<svg xmlns="http://www.w3.org/2000/svg" xmlns:xlink="http://www.w3.org/1999/xlink" width="69.329" height="47.872" viewBox="0 0 69.329 47.872">
  <defs>
    <linearGradient id="linear-gradient" x1="0.5" x2="0.724" y2="1.259" gradientUnits="objectBoundingBox">
      <stop offset="0" stop-color="#60b4ae"/>
      <stop offset="1" stop-color="#5e648f"/>
    </linearGradient>
  </defs>
  <g id="eye" transform="translate(7.951 -5.347) rotate(11)">
    <path id="Path_179" data-name="Path 179" d="M32.267,31.346C20.164,31.346,8.786,26,.23,16.282a.922.922,0,0,1,0-1.219C8.786,5.347,20.163,0,32.267,0S55.749,5.347,64.3,15.063a.922.922,0,0,1,0,1.217c-.987,1.127-2.06,2.234-3.28,3.383a.922.922,0,1,1-1.264-1.342c.955-.9,1.816-1.771,2.613-2.647C54.238,6.748,43.577,1.845,32.264,1.845S10.292,6.749,2.157,15.674C10.292,24.6,20.953,29.5,32.264,29.5a38.658,38.658,0,0,0,14.652-2.891.922.922,0,0,1,.694,1.707,40.481,40.481,0,0,1-15.344,3.027Z" transform="translate(0 10.326)" fill="url(#linear-gradient)"/>
    <path id="Path_180" data-name="Path 180" d="M.917,3.306A.922.922,0,0,1,.436,1.6c.787-.48,1.528-.962,2.2-1.434a.922.922,0,1,1,1.058,1.51c-.7.493-1.475,1-2.3,1.5A.916.916,0,0,1,.917,3.306Z" transform="translate(52.122 32.511)" fill="url(#linear-gradient)"/>
    <path id="Path_181" data-name="Path 181" d="M15.673,31.346A15.673,15.673,0,1,1,31.346,15.673,15.673,15.673,0,0,1,15.673,31.346Zm0-29.5A13.829,13.829,0,1,0,29.5,15.673,13.829,13.829,0,0,0,15.673,1.844Z" transform="translate(16.594 10.326)" fill="url(#linear-gradient)"/>
    <path id="Path_182" data-name="Path 182" d="M8.682,17.364A8.682,8.682,0,1,1,8.682,0a3.566,3.566,0,0,1,.369.013.922.922,0,1,1-.17,1.836c-.065-.006-.13,0-.195,0A6.838,6.838,0,1,0,15.52,8.684a1.885,1.885,0,0,0,0-.192.922.922,0,1,1,1.833-.178c.012.123.014.244.014.369a8.692,8.692,0,0,1-8.68,8.681Z" transform="translate(23.585 17.316)" fill="url(#linear-gradient)"/>
    <path id="Path_183" data-name="Path 183" d="M8.39,9.311A8.426,8.426,0,0,1,0,.922a.922.922,0,0,1,1.844,0A6.579,6.579,0,0,0,8.391,7.468a.922.922,0,0,1,0,1.844Z" transform="translate(31.628 17.332)" fill="url(#linear-gradient)"/>
    <path id="Path_184" data-name="Path 184" d="M.92,5.41A.922.922,0,0,1,.113,4.047L2.063.48a.922.922,0,1,1,1.617.885L1.73,4.931A.922.922,0,0,1,.92,5.41Z" transform="translate(47.485 4.626)" fill="url(#linear-gradient)"/>
    <path id="Path_185" data-name="Path 185" d="M.923,5.784A.922.922,0,0,1,.028,4.635L1.028.7a.922.922,0,1,1,1.788.453l-1,3.94a.922.922,0,0,1-.893.7Z" transform="translate(39.614 1.157)" fill="url(#linear-gradient)"/>
    <path id="Path_186" data-name="Path 186" d="M.922,5.91A.922.922,0,0,1,0,4.989V.922a.922.922,0,0,1,1.844,0V4.988A.922.922,0,0,1,.922,5.91Z" transform="translate(31.345 0)" fill="url(#linear-gradient)"/>
    <path id="Path_187" data-name="Path 187" d="M1.921,5.786a.922.922,0,0,1-.893-.7l-1-3.941A.922.922,0,0,1,1.816.7l1,3.941a.922.922,0,0,1-.9,1.149Z" transform="translate(22.077 1.156)" fill="url(#linear-gradient)"/>
    <path id="Path_188" data-name="Path 188" d="M2.879,5.408a.922.922,0,0,1-.809-.479L.114,1.365A.922.922,0,1,1,1.731.479L3.681,4.046A.922.922,0,0,1,2.874,5.41Z" transform="translate(13.254 4.628)" fill="url(#linear-gradient)"/>
  </g>
</svg>
