<svg id="flag" xmlns="http://www.w3.org/2000/svg" width="59.491" height="38.083" viewBox="0 0 59.491 38.083">
  <g id="Group_25" data-name="Group 25" transform="translate(20.579 11.128)">
    <g id="Group_24" data-name="Group 24">
      <path id="Path_77" data-name="Path 77" d="M142.339,147.86l-1.319-.328L140.3,146.4a.162.162,0,0,0-.054-.054.167.167,0,0,0-.231.051l0,0-.686,1.128-1.3.328a.162.162,0,0,0-.066.036.167.167,0,0,0,0,.233l.853,1.027-.09,1.337a.176.176,0,0,0,0,.072.167.167,0,0,0,.215.1l1.241-.5,1.229.489a.167.167,0,0,0,.239-.161l-.09-1.337.847-1.021a.164.164,0,0,0-.078-.275Z" transform="translate(-137.923 -146.323)" fill="#ffd9d9"/>
    </g>
  </g>
  <g id="Group_27" data-name="Group 27" transform="translate(13.092 4.579)">
    <g id="Group_26" data-name="Group 26">
      <path id="Path_78" data-name="Path 78" d="M92.187,103.938l-1.307-.3-.716-1.128a.167.167,0,0,0-.231-.049.169.169,0,0,0-.049.049l-.716,1.128-1.3.328a.167.167,0,0,0-.089.269l.859,1.027-.09,1.337a.167.167,0,0,0,.227.167l1.241-.5,1.247.483a.2.2,0,0,0,.239-.178h0l-.09-1.337.847-1.021a.164.164,0,0,0-.078-.275Z" transform="translate(-87.745 -102.429)" fill="#ffd9d9"/>
    </g>
  </g>
  <g id="Group_29" data-name="Group 29" transform="translate(20.564 4.575)">
    <g id="Group_28" data-name="Group 28">
      <path id="Path_79" data-name="Path 79" d="M142.231,103.922l-1.3-.31-.716-1.128a.162.162,0,0,0-.054-.054.167.167,0,0,0-.231.051l0,0-.686,1.128-1.3.328a.167.167,0,0,0-.089.269l.853,1.027-.09,1.337a.171.171,0,0,0,0,.072.167.167,0,0,0,.215.1l1.241-.5,1.229.489a.2.2,0,0,0,.239-.178h0l-.09-1.337.847-1.021a.164.164,0,0,0-.078-.275Z" transform="translate(-137.825 -102.403)" fill="#ffd9d9"/>
    </g>
  </g>
  <g id="Group_31" data-name="Group 31" transform="translate(0 0)">
    <g id="Group_30" data-name="Group 30">
      <path id="Path_80" data-name="Path 80" d="M58.494,71.74H1a1,1,0,0,0-1,1V108.82a1,1,0,0,0,1,1H58.488a1,1,0,0,0,1-1V72.749A1,1,0,0,0,58.494,71.74ZM2.005,73.751H28.743V89.782H2.005Zm55.5,34.066H2.005v-3.975h55.5Zm0-5.968H2.005V97.815h55.5Zm0-6.028H2.005V91.787h55.5ZM30.748,89.794V85.759H57.479l.03,4.034Zm0-6.028V79.737H57.479l.03,4.029Zm0-6.028V73.751H57.479l.03,3.987Z" transform="translate(0 -71.74)" fill="#ffd9d9"/>
    </g>
  </g>
  <g id="Group_33" data-name="Group 33" transform="translate(5.658 11.128)">
    <g id="Group_32" data-name="Group 32">
      <path id="Path_81" data-name="Path 81" d="M42.339,147.866l-1.3-.334-.71-1.128a.169.169,0,0,0-.285,0l0,0-.716,1.128-1.3.328a.162.162,0,0,0-.066.036.167.167,0,0,0,0,.233l.853,1.027-.09,1.337a.167.167,0,0,0,.227.167l1.241-.5,1.218.5a.167.167,0,0,0,.239-.161l-.09-1.337.847-1.021a.164.164,0,0,0-.078-.275Z" transform="translate(-37.923 -146.323)" fill="#ffd9d9"/>
    </g>
  </g>
  <g id="Group_35" data-name="Group 35" transform="translate(5.644 4.579)">
    <g id="Group_34" data-name="Group 34">
      <path id="Path_82" data-name="Path 82" d="M42.255,103.938l-1.3-.3-.71-1.128a.167.167,0,0,0-.231-.049.169.169,0,0,0-.049.049l-.722,1.128-1.3.328a.167.167,0,0,0-.089.269l.853,1.027-.066,1.337a.167.167,0,0,0,.227.167l1.241-.5,1.218.483a.2.2,0,0,0,.239-.178h0l-.09-1.337.847-1.021a.164.164,0,0,0-.078-.275Z" transform="translate(-37.825 -102.429)" fill="#ffd9d9"/>
    </g>
  </g>
  <g id="Group_37" data-name="Group 37" transform="translate(13.101 11.128)">
    <g id="Group_36" data-name="Group 36">
      <path id="Path_83" data-name="Path 83" d="M92.237,147.866l-1.307-.334-.716-1.128a.169.169,0,0,0-.285,0l0,0-.716,1.128-1.3.328a.162.162,0,0,0-.066.036.167.167,0,0,0,0,.233l.853,1.027-.09,1.337a.167.167,0,0,0,.227.167l1.241-.5,1.235.5a.167.167,0,0,0,.239-.161l-.09-1.337.847-1.021a.164.164,0,0,0-.078-.275Z" transform="translate(-87.803 -146.323)" fill="#ffd9d9"/>
    </g>
  </g>
</svg>
