<svg id="globe" xmlns="http://www.w3.org/2000/svg" width="44.495" height="44.495" viewBox="0 0 44.495 44.495">
  <g id="Group_7" data-name="Group 7">
    <path id="Path_24" data-name="Path 24" d="M22.247,0C12.849,0,0,7.1,0,22.247,0,37.006,12.359,44.495,22.247,44.495c16.966,0,22.247-14.864,22.247-22.247C44.495,11.351,36.156,0,22.247,0ZM17.088,2.093A19.865,19.865,0,0,0,11.6,11.413,20.668,20.668,0,0,1,7.191,7.9,20.844,20.844,0,0,1,17.088,2.093ZM6.236,8.969A21.811,21.811,0,0,0,11.2,12.84a37.615,37.615,0,0,0-1.139,8.689H1.454A20.721,20.721,0,0,1,6.236,8.969Zm0,26.557a20.668,20.668,0,0,1-4.782-12.56h8.61A37.552,37.552,0,0,0,11.2,31.654,22.456,22.456,0,0,0,6.236,35.526ZM7.191,36.6A20.669,20.669,0,0,1,11.6,33.091c1.244,4.055,3.171,7.34,5.492,9.319A20.986,20.986,0,0,1,7.191,36.6Zm14.338,6.4c-3.731-.473-6.946-4.642-8.68-10.616a20.935,20.935,0,0,1,8.68-2.233Zm0-14.277a22.284,22.284,0,0,0-9.048,2.251,37.572,37.572,0,0,1-.99-8.014H21.529Zm0-7.2H11.491a37.572,37.572,0,0,1,.99-8.014,22.354,22.354,0,0,0,9.048,2.251Zm0-7.191a20.768,20.768,0,0,1-8.68-2.233C14.583,6.122,17.8,1.962,21.529,1.489ZM38.258,8.969a20.721,20.721,0,0,1,4.782,12.56h-8.6A37.551,37.551,0,0,0,33.3,12.84,22.209,22.209,0,0,0,38.258,8.969ZM37.3,7.892A20.669,20.669,0,0,1,32.9,11.4a19.954,19.954,0,0,0-5.492-9.319A20.986,20.986,0,0,1,37.3,7.892Zm-14.338-6.4c3.731.473,6.946,4.642,8.68,10.616a20.9,20.9,0,0,1-8.68,2.233Zm0,14.277a22.283,22.283,0,0,0,9.048-2.251A37.571,37.571,0,0,1,33,21.529H22.965Zm0,7.2H33a37.572,37.572,0,0,1-.99,8.014,22.005,22.005,0,0,0-9.048-2.251Zm0,20.04V30.156a20.768,20.768,0,0,1,8.68,2.233C29.911,38.372,26.7,42.533,22.965,43.006Zm4.441-.6A19.865,19.865,0,0,0,32.9,33.082,20.669,20.669,0,0,1,37.3,36.594,20.844,20.844,0,0,1,27.406,42.4Zm10.852-6.876A22.208,22.208,0,0,0,33.3,31.654a37.616,37.616,0,0,0,1.139-8.689h8.6A20.721,20.721,0,0,1,38.258,35.526Z" fill="#fac3a7"/>
  </g>
</svg>
