<svg xmlns="http://www.w3.org/2000/svg" xmlns:xlink="http://www.w3.org/1999/xlink" width="140.31" height="162.633" viewBox="0 0 140.31 162.633">
  <defs>
    <linearGradient id="linear-gradient" x1="0.5" x2="0.5" y2="1" gradientUnits="objectBoundingBox">
      <stop offset="0" stop-color="#ff6767"/>
      <stop offset="1" stop-color="#57bcff"/>
    </linearGradient>
  </defs>
  <g id="Group_282" data-name="Group 282" transform="matrix(0.985, -0.174, 0.174, 0.985, -1147.647, -430.29)">
    <g id="Smartphone" transform="matrix(0.934, -0.358, 0.358, 0.934, 1048.538, 662.482)">
      <path id="Path_36" data-name="Path 36" d="M66.326,0H11.436A11.5,11.5,0,0,0,0,11.533V131.477A11.5,11.5,0,0,0,11.435,143.01h54.89a11.5,11.5,0,0,0,11.435-11.533V11.533A11.5,11.5,0,0,0,66.326,0ZM54.388,4.613l-1.372,6.92H24.746l-1.372-6.92Zm18.8,126.863a6.9,6.9,0,0,1-6.861,6.92H11.435a6.9,6.9,0,0,1-6.861-6.92V11.533a6.9,6.9,0,0,1,6.861-6.92h7.273l1.919,9.679a2.292,2.292,0,0,0,2.243,1.854H54.89a2.292,2.292,0,0,0,2.243-1.854l1.919-9.679h7.273a6.9,6.9,0,0,1,6.861,6.92Z" transform="translate(0 0)" fill="url(#linear-gradient)"/>
      <path id="Path_37" data-name="Path 37" d="M16.01,0H2.287a2.287,2.287,0,0,0,0,4.574H16.01A2.287,2.287,0,1,0,16.01,0Z" transform="translate(9.148 129.287)" fill="url(#linear-gradient)"/>
      <path id="Path_38" data-name="Path 38" d="M4.574,0H2.287a2.287,2.287,0,1,0,0,4.574H4.574A2.287,2.287,0,1,0,4.574,0Z" transform="translate(29.732 129.287)" fill="url(#linear-gradient)"/>
    </g>
    <g id="link" transform="matrix(0.934, -0.358, 0.358, 0.934, 1084.049, 700.683)">
      <g id="Group_9" data-name="Group 9" transform="translate(0 15.563)">
        <path id="Path_34" data-name="Path 34" d="M28.214,2.779A9.434,9.434,0,0,0,21.348,0L16.643,4.707a1.364,1.364,0,0,0,1.928,1.928,4.091,4.091,0,1,1,5.785,5.785L12.434,24.334a4.091,4.091,0,1,1-5.785-5.785l3.3-3.293a11.425,11.425,0,0,1-1.022-.906,12.059,12.059,0,0,1-2.391-3.394L2.791,14.692a9.545,9.545,0,1,0,13.5,13.5L28.214,16.278c2.257-2.257,4.919-8.581,0-13.5Z" transform="translate(0 0)" fill="#e4d381"/>
      </g>
      <g id="Group_10" data-name="Group 10" transform="translate(8.07 0)">
        <path id="Path_35" data-name="Path 35" d="M22.072,16.413a11.938,11.938,0,0,1,2.391,3.394l3.511-3.516a9.545,9.545,0,1,0-13.5-13.5L2.788,14.484A9.528,9.528,0,0,0,9.653,30.761l4.705-4.705a1.364,1.364,0,0,0-1.928-1.928,4.091,4.091,0,1,1-5.785-5.785L18.332,6.648a4.091,4.091,0,1,1,5.785,5.785L21.05,15.506a11.118,11.118,0,0,1,1.022.906Z" transform="translate(0)" fill="#e4d381"/>
      </g>
    </g>
  </g>
</svg>
