<svg xmlns="http://www.w3.org/2000/svg" width="60.929" height="38.083" viewBox="0 0 60.929 38.083">
  <g id="Group_38" data-name="Group 38" transform="translate(1474.602 -1249.258)">
    <path id="Path_97" data-name="Path 97" d="M59.977,25.551H49.5a.952.952,0,1,0,0,1.9h9.52V37.927H34.2L31.326,31.81a.952.952,0,0,0-1.724,0l-2.87,6.117H1.9V27.455H45.7a.952.952,0,0,0,0-1.9H1.9c-1.873.006-.123-.008-1.9,0V63.625c1.785.011.21,0,1.9,0h.073l8.495.006a.952.952,0,1,0,0-1.9H1.9v-9.52h21l-.438,2.7a.952.952,0,0,0,1.4.986l6.6-3.648,6.6,3.648a.952.952,0,0,0,1.4-.986l-.438-2.7h21v9.52H14.28a.952.952,0,1,0,0,1.9h45.7a.952.952,0,0,0,.952-.952V26.5A.952.952,0,0,0,59.977,25.551ZM1.9,50.3V39.831h18.1L18.9,40a.952.952,0,0,0-.538,1.606l5.376,5.511L23.216,50.3Zm29.021.024a.952.952,0,0,0-.922,0l-5.345,2.951,1.033-6.331a.952.952,0,0,0-.258-.818L21.016,41.6l6.062-.926a.952.952,0,0,0,.718-.537l2.668-5.682,2.666,5.685a.952.952,0,0,0,.718.537l6.062.926-4.418,4.529a.952.952,0,0,0-.258.818l1.033,6.331Zm6.788-.024-.52-3.185,5.376-5.511A.952.952,0,0,0,42.031,40l-1.11-.169h18.1V50.3Z" transform="translate(-1474.602 1223.71)" fill="#ffe0e0"/>
    <path id="Path_99" data-name="Path 99" d="M47.9,15h-.952a.952.952,0,0,0,0,1.9H47.9a.952.952,0,0,0,0-1.9Z" transform="translate(-1476.81 1239.973)" fill="#ffe0e0"/>
    <path id="Path_100" data-name="Path 100" d="M50.952,16.9H51.9a.952.952,0,1,0,0-1.9h-.952a.952.952,0,1,0,0,1.9Z" transform="translate(-1477.002 1239.973)" fill="#ffe0e0"/>
  </g>
</svg>
