<svg xmlns="http://www.w3.org/2000/svg" width="83.697" height="82.276" viewBox="0 0 83.697 82.276">
  <g id="Group_278" data-name="Group 278" transform="translate(0 0)">
    <path id="Path_341" data-name="Path 341" d="M3392.322,302.856c.141.7,14.929,60.563,14.929,60.563l-39.858-23.239,7.324-12.394s-8.593-2.676-5.493-10.141,14.648-3.38,14.648-3.38l7.746-13.8Z" transform="translate(-3357.159 -284.07)" fill="#e4d381"/>
    <path id="Path_342" data-name="Path 342" d="M23.589,61.954C23.722,61.233,37.715,0,37.715,0L0,23.773,6.93,36.452s-7.753,1.771-5.2,10.374,13.86,3.458,13.86,3.458l7.33,14.12Z" transform="matrix(-0.891, 0.454, -0.454, -0.891, 83.697, 62.225)" fill="#f89b6c"/>
    <g id="Union_2" data-name="Union 2" transform="translate(51.127 82.276) rotate(-149)" fill="none">
      <path d="M0,0V49.822H14.554a10.292,10.292,0,1,0,20.584,0H49.692V32.95a9.985,9.985,0,0,0,0-19.971V0Z" stroke="none"/>
      <path d="M 3 3 L 3.000080108642578 46.82185745239258 L 17.55419540405273 46.82187271118164 L 17.55420684814453 49.82186126708984 C 17.55421829223633 53.86045074462891 20.82534027099609 57.14607238769531 24.84609603881836 57.14608383178711 L 24.84613037109375 57.14608383178711 C 28.86685180664062 57.14608383178711 32.1379508972168 53.8604736328125 32.1379508972168 49.82190704345703 L 32.1379508972168 46.82189559936523 L 46.69206619262695 46.82193374633789 L 46.6920280456543 29.9500617980957 L 49.69203948974609 29.9500617980957 C 53.52685165405273 29.9500617980957 56.64669418334961 26.8164176940918 56.64669418334961 22.96465301513672 C 56.64668273925781 19.11287307739258 53.52682876586914 15.97921752929688 49.69199371337891 15.97920608520508 L 46.6920051574707 15.97919464111328 L 46.69198989868164 3.000080108642578 L 3 3 M -3.814697265625e-06 -3.814697265625e-06 L 49.69198608398438 8.392333984375e-05 L 49.6920051574707 12.97920608520508 C 55.19000625610352 12.97921752929688 59.64668273925781 17.44944000244141 59.64669418334961 22.96464157104492 C 59.64669418334961 28.47931861877441 55.1900520324707 32.9500617980957 49.69203948974609 32.9500617980957 L 49.69207382202148 49.82194137573242 L 35.1379508972168 49.82190704345703 C 35.1379508972168 55.52369689941406 30.5301513671875 60.1461067199707 24.84608459472656 60.14608383178711 C 19.16204071044922 60.14607238769531 14.55421829223633 55.52366256713867 14.55420684814453 49.82187271118164 L 8.392333984375e-05 49.82185363769531 L -3.814697265625e-06 -3.814697265625e-06 Z" stroke="none" fill="#fce089"/>
    </g>
  </g>
</svg>
