<svg xmlns="http://www.w3.org/2000/svg" xmlns:xlink="http://www.w3.org/1999/xlink" width="175.846" height="175.32" viewBox="0 0 175.846 175.32">
  <defs>
    <linearGradient id="linear-gradient" x1="0.5" x2="0.5" y2="1" gradientUnits="objectBoundingBox">
      <stop offset="0" stop-color="#ffa17d"/>
      <stop offset="0.629" stop-color="#6f71b4"/>
      <stop offset="1" stop-color="#7628bb"/>
    </linearGradient>
  </defs>
  <g id="Group_306" data-name="Group 306" transform="matrix(1, -0.017, 0.017, 1, -1536.885, -429.5)">
    <g id="Group_280" data-name="Group 280" transform="translate(1527.012 457.167)">
      <path id="Path_345" data-name="Path 345" d="M3445.263,505.755l5.3,6.083,10.99-8.831-1.57-2.944-5.3-3.532Z" transform="translate(-3362.733 -465.182)" fill="#bfa775" stroke="#707070" stroke-width="1"/>
      <path id="Path_346" data-name="Path 346" d="M3450.325,509.016l2.453,4.514s26.688,33.361,34.146,40.033,15.5,18.643,22.371,15.5,5.495-8.046,0-13.737-22.371-26.885-22.371-26.885l-28.848-27.278Z" transform="translate(-3359.651 -462.36)" fill="#f8c14e" stroke="#707070" stroke-width="1"/>
      <path id="Path_344" data-name="Path 344" d="M1240.28,380.73l4.585,21.727s9.936,7.513,16.412,9.083a56.145,56.145,0,0,0,9.028-8.046s-3.14-12.756-5.888-14.914-17.858-10.008-24.138-7.85" transform="translate(-1178.748 -371.753)" fill="#292929" stroke="#707070" stroke-width="1"/>
      <path id="Path_343" data-name="Path 343" d="M1247.08,395.176c-4.856-.765-11.489-3.827-18.122,12.246s-13.521,37.246-10.46,50,2.04,27.042,17.6,41.073,35.716,17.6,35.716,17.6,43.625,1.021,53.064-17.6,7.653-19.9,7.653-19.9v-11.48l-27.3-28.828s-11.735.51-26.277,1.786-23.725-16.582-23.725-16.582-1.531-13.011,0-16.072S1251.936,395.941,1247.08,395.176Z" transform="translate(-1192.473 -363.176)" fill="none"/>
      <ellipse id="Ellipse_49" data-name="Ellipse 49" cx="8.046" cy="8.85" rx="8.046" ry="8.85" transform="translate(38.515 72.396)" fill="#ff5959"/>
      <ellipse id="Ellipse_50" data-name="Ellipse 50" cx="10.46" cy="10.46" rx="10.46" ry="10.46" transform="translate(46.561 99.751)" fill="#ffc159"/>
      <ellipse id="Ellipse_51" data-name="Ellipse 51" cx="11.264" cy="11.264" rx="11.264" ry="11.264" transform="translate(72.308 114.234)" fill="#ff9b59"/>
      <ellipse id="Ellipse_52" data-name="Ellipse 52" cx="10.46" cy="10.46" rx="10.46" ry="10.46" transform="translate(104.491 106.188)" fill="#459586"/>
      <g id="artist" transform="matrix(0.407, -0.914, 0.914, 0.407, 0, 121.877)">
        <path id="Path_5" data-name="Path 5" d="M43.195,128.746c1.068.2,7.073.54,7.576-1.279s-5.8-2.4-6.869-2.595A34.753,34.753,0,0,1,24.38,114.046C9.16,97.43,2.384,79.508,4.239,60.778,8.425,18.509,53-2.53,94.107,5.692a9.592,9.592,0,0,1,7.881,9.176,9.466,9.466,0,0,1-6.9,9.739C88.167,26.673,82.7,29.69,78.827,33.572c-8.869,8.9-9.638,23.911-1.169,34.024a34.649,34.649,0,0,1,7.755,17.542c-4.458,10.133-9.018,21.609-12.546,32.231a35.638,35.638,0,0,1-20.261,8c-1.085.071-9.653-1.167-10.313,1.349s9.411,2.584,10.44,2.584c.043,0,.086,0,.13,0a39.743,39.743,0,0,0,18.027-5.708,8.486,8.486,0,0,0,15.55,6.5c3.791-6.708,7.9-14.849,11.879-23.544.453-.989,3.9-6.991,1.74-8.311s-4.868,5.684-5.32,6.672c-3.934,8.6-7.989,16.633-11.727,23.245a4.563,4.563,0,0,1-5.933,1.864,4.517,4.517,0,0,1-2.386-5.408c5.082-16.765,13.558-37.172,21.323-52.952l10.582,4.53c-2.467,6.724-5.278,13.725-8.146,20.363-.431,1-4.438,9.989-2.513,11.056s5.7-8.5,6.128-9.5c5.4-12.536,11.431-28.193,14.949-41.366a4.468,4.468,0,0,0,2.633-2.473l1.7-3.981a4.5,4.5,0,0,0,.286-2.607c3.277-2.092,7.864-5.823,10.241-11.376,2.937-6.859.985-18.48-.439-24.8a3.879,3.879,0,0,0-5.779-2.474c-5.554,3.33-15.309,9.94-18.245,16.8-2.376,5.551-1.911,11.444-1.163,15.259a4.489,4.489,0,0,0-1.688,2.01l-1.7,3.981a4.466,4.466,0,0,0,.028,3.612A286.289,286.289,0,0,0,88.135,79.084a38.466,38.466,0,0,0-7.458-14.015A20.858,20.858,0,0,1,75.7,51.33c0-11.163,6.9-18.884,20.512-22.95a13.278,13.278,0,0,0,9.709-13.694A13.586,13.586,0,0,0,94.879,1.831C51.545-6.836,4.749,15.685.321,60.39c-1.97,19.891,5.148,38.838,21.156,56.315A38.659,38.659,0,0,0,43.195,128.746Zm62.719-75.433,7.13,3.052c-1.287,4.734-3.031,10.235-5.108,16.115L97.78,68.132c2.821-5.563,5.6-10.621,8.134-14.819Zm11.822-4.569-1.7,3.981a.586.586,0,0,1-.768.307l-8.472-3.626a.585.585,0,0,1-.307-.768l1.7-3.981a.585.585,0,0,1,.768-.307l8.471,3.626a.591.591,0,0,1,.307.768Zm-6.7-21.356c.862-2.014,4.2-7.5,16.581-14.929,3.166,14.088,1.505,20.288.643,22.3-2.033,4.749-6.122,7.974-8.963,9.749-.105-.055-.213-.107-.323-.154l-8.472-3.626h0q-.164-.07-.334-.127c-.676-3.282-1.165-8.466.867-13.215Z" transform="translate(0 0)" fill="url(#linear-gradient)"/>
      </g>
    </g>
  </g>
</svg>
