<svg xmlns="http://www.w3.org/2000/svg" xmlns:xlink="http://www.w3.org/1999/xlink" width="268.103" height="285.595" viewBox="0 0 268.103 285.595">
  <defs>
    <linearGradient id="linear-gradient" x1="0.263" y1="0.038" x2="0.585" y2="1.244" gradientUnits="objectBoundingBox">
      <stop offset="0" stop-color="#a9dfff"/>
      <stop offset="1" stop-color="#8e60bc"/>
    </linearGradient>
  </defs>
  <g id="Group_281" data-name="Group 281" transform="translate(-1460.069 -254.099)">
    <circle id="Ellipse_47" data-name="Ellipse 47" cx="38.48" cy="38.48" r="38.48" transform="translate(1587.835 308.099)" fill="#ff7070" opacity="0"/>
    <circle id="Ellipse_48" data-name="Ellipse 48" cx="35.052" cy="35.052" r="35.052" transform="translate(1559.069 370.591)" fill="#9ebeff" opacity="0"/>
    <g id="web-site" transform="translate(1525.102 331.784) rotate(-17)">
      <path id="Path_41" data-name="Path 41" d="M125.217,124.638H16.036A16.055,16.055,0,0,1,0,108.6V16.036A16.055,16.055,0,0,1,16.036,0H125.217a16.055,16.055,0,0,1,16.036,16.036V108.6A16.055,16.055,0,0,1,125.217,124.638ZM16.036,4.777A11.272,11.272,0,0,0,4.777,16.036V108.6a11.272,11.272,0,0,0,11.259,11.259H125.217A11.272,11.272,0,0,0,136.476,108.6V16.036A11.272,11.272,0,0,0,125.217,4.777Zm0,0" transform="translate(0 0)"/>
      <path id="Path_42" data-name="Path 42" d="M39.918,4.777H2.388A2.388,2.388,0,0,1,2.388,0h37.53a2.388,2.388,0,0,1,0,4.777Zm0,0" transform="translate(79.778 83.398)"/>
      <path id="Path_43" data-name="Path 43" d="M39.918,4.777H2.388A2.388,2.388,0,0,1,2.388,0h37.53a2.388,2.388,0,0,1,0,4.777Zm0,0" transform="translate(79.778 100.666)"/>
      <path id="Path_44" data-name="Path 44" d="M39.918,4.777H2.388A2.388,2.388,0,0,1,2.388,0h37.53a2.388,2.388,0,0,1,0,4.777Zm0,0" transform="translate(79.778 48.863)"/>
      <path id="Path_45" data-name="Path 45" d="M39.918,4.777H2.388A2.388,2.388,0,0,1,2.388,0h37.53a2.388,2.388,0,0,1,0,4.777Zm0,0" transform="translate(79.778 66.131)"/>
      <path id="Path_46" data-name="Path 46" d="M138.864,4.777H2.388A2.388,2.388,0,0,1,2.388,0H138.864a2.388,2.388,0,0,1,0,4.777Zm0,0" transform="translate(0 27.203)"/>
      <path id="Path_47" data-name="Path 47" d="M7.433,14.863a7.432,7.432,0,1,1,7.432-7.432A7.44,7.44,0,0,1,7.433,14.863Zm0-10.086a2.655,2.655,0,1,0,2.655,2.655A2.659,2.659,0,0,0,7.433,4.777Zm0,0" transform="translate(26.998 8.604)"/>
      <path id="Path_48" data-name="Path 48" d="M7.432,14.863a7.432,7.432,0,1,1,7.433-7.432A7.44,7.44,0,0,1,7.432,14.863Zm0-10.086a2.655,2.655,0,1,0,2.656,2.655A2.659,2.659,0,0,0,7.432,4.777Zm0,0" transform="translate(9.791 8.604)"/>
      <path id="Path_49" data-name="Path 49" d="M7.432,14.863a7.432,7.432,0,1,1,7.433-7.432A7.439,7.439,0,0,1,7.432,14.863Zm0-10.086a2.655,2.655,0,1,0,2.656,2.655A2.658,2.658,0,0,0,7.432,4.777Zm0,0" transform="translate(44.207 8.604)"/>
      <path id="Path_50" data-name="Path 50" d="M45.719,56.579H2.388A2.388,2.388,0,0,1,0,54.19V2.388A2.389,2.389,0,0,1,2.388,0H45.719a2.389,2.389,0,0,1,2.388,2.388v51.8A2.388,2.388,0,0,1,45.719,56.579ZM4.777,51.8H43.331V4.777H4.777Zm0,0" transform="translate(18.424 48.863)"/>
    </g>
    <g id="web-site-2" data-name="web-site" transform="translate(1525.102 331.784) rotate(-17)">
      <path id="Path_41-2" data-name="Path 41" d="M125.217,124.638H16.036A16.055,16.055,0,0,1,0,108.6V16.036A16.055,16.055,0,0,1,16.036,0H125.217a16.055,16.055,0,0,1,16.036,16.036V108.6A16.055,16.055,0,0,1,125.217,124.638ZM16.036,4.777A11.272,11.272,0,0,0,4.777,16.036V108.6a11.272,11.272,0,0,0,11.259,11.259H125.217A11.272,11.272,0,0,0,136.476,108.6V16.036A11.272,11.272,0,0,0,125.217,4.777Zm0,0" transform="translate(0 0)" fill="url(#linear-gradient)"/>
      <path id="Path_42-2" data-name="Path 42" d="M39.918,4.777H2.388A2.388,2.388,0,0,1,2.388,0h37.53a2.388,2.388,0,0,1,0,4.777Zm0,0" transform="translate(79.778 83.398)" fill="url(#linear-gradient)"/>
      <path id="Path_43-2" data-name="Path 43" d="M39.918,4.777H2.388A2.388,2.388,0,0,1,2.388,0h37.53a2.388,2.388,0,0,1,0,4.777Zm0,0" transform="translate(79.778 100.666)" fill="url(#linear-gradient)"/>
      <path id="Path_44-2" data-name="Path 44" d="M39.918,4.777H2.388A2.388,2.388,0,0,1,2.388,0h37.53a2.388,2.388,0,0,1,0,4.777Zm0,0" transform="translate(79.778 48.863)" fill="url(#linear-gradient)"/>
      <path id="Path_45-2" data-name="Path 45" d="M39.918,4.777H2.388A2.388,2.388,0,0,1,2.388,0h37.53a2.388,2.388,0,0,1,0,4.777Zm0,0" transform="translate(79.778 66.131)" fill="url(#linear-gradient)"/>
      <path id="Path_46-2" data-name="Path 46" d="M138.864,4.777H2.388A2.388,2.388,0,0,1,2.388,0H138.864a2.388,2.388,0,0,1,0,4.777Zm0,0" transform="translate(0 27.203)" fill="url(#linear-gradient)"/>
      <path id="Path_47-2" data-name="Path 47" d="M7.433,14.863a7.432,7.432,0,1,1,7.432-7.432A7.44,7.44,0,0,1,7.433,14.863Zm0-10.086a2.655,2.655,0,1,0,2.655,2.655A2.659,2.659,0,0,0,7.433,4.777Zm0,0" transform="translate(26.998 8.604)" fill="url(#linear-gradient)"/>
      <path id="Path_48-2" data-name="Path 48" d="M7.432,14.863a7.432,7.432,0,1,1,7.433-7.432A7.44,7.44,0,0,1,7.432,14.863Zm0-10.086a2.655,2.655,0,1,0,2.656,2.655A2.659,2.659,0,0,0,7.432,4.777Zm0,0" transform="translate(9.791 8.604)" fill="url(#linear-gradient)"/>
      <path id="Path_49-2" data-name="Path 49" d="M7.432,14.863a7.432,7.432,0,1,1,7.433-7.432A7.439,7.439,0,0,1,7.432,14.863Zm0-10.086a2.655,2.655,0,1,0,2.656,2.655A2.658,2.658,0,0,0,7.432,4.777Zm0,0" transform="translate(44.207 8.604)" fill="url(#linear-gradient)"/>
      <path id="Path_50-2" data-name="Path 50" d="M45.719,56.579H2.388A2.388,2.388,0,0,1,0,54.19V2.388A2.389,2.389,0,0,1,2.388,0H45.719a2.389,2.389,0,0,1,2.388,2.388v51.8A2.388,2.388,0,0,1,45.719,56.579ZM4.777,51.8H43.331V4.777H4.777Zm0,0" transform="translate(18.424 48.863)" fill="url(#linear-gradient)"/>
    </g>
  </g>
</svg>
