<svg xmlns="http://www.w3.org/2000/svg" xmlns:xlink="http://www.w3.org/1999/xlink" width="52.481" height="52.482" viewBox="0 0 52.481 52.482">
  <defs>
    <linearGradient id="linear-gradient" x1="0.5" x2="0.5" y2="1" gradientUnits="objectBoundingBox">
      <stop offset="0" stop-color="#e49c79"/>
      <stop offset="1" stop-color="#f0737f"/>
    </linearGradient>
  </defs>
  <g id="Group_285" data-name="Group 285" transform="translate(0.586 8.937) rotate(-11)">
    <path id="Path_75" data-name="Path 75" d="M9.378,0a9.378,9.378,0,1,0,9.378,9.378A9.378,9.378,0,0,0,9.378,0Zm0,15.629a6.252,6.252,0,1,1,6.252-6.252A6.252,6.252,0,0,1,9.378,15.629Zm0,0" transform="translate(12.504 12.503)" stroke="#101010" stroke-width="1" fill="url(#linear-gradient)"/>
    <path id="Path_76" data-name="Path 76" d="M42.2,15.629H36.975l3.695-3.695a1.563,1.563,0,0,0,0-2.21L34.038,3.093a1.563,1.563,0,0,0-2.21,0L28.133,6.788V1.563A1.563,1.563,0,0,0,26.57,0H17.192a1.563,1.563,0,0,0-1.563,1.563V6.788L11.935,3.093a1.563,1.563,0,0,0-2.21,0L3.093,9.725a1.563,1.563,0,0,0,0,2.21l3.7,3.695H1.563A1.563,1.563,0,0,0,0,17.193V26.57a1.563,1.563,0,0,0,1.563,1.563H6.788L3.093,31.828a1.563,1.563,0,0,0,0,2.21l6.632,6.632a1.563,1.563,0,0,0,2.21,0l3.695-3.695V42.2a1.563,1.563,0,0,0,1.563,1.563H26.57A1.563,1.563,0,0,0,28.133,42.2V36.975l3.7,3.695a1.562,1.562,0,0,0,2.209,0l6.632-6.632a1.563,1.563,0,0,0,0-2.21l-3.7-3.695H42.2a1.563,1.563,0,0,0,1.563-1.563V17.193A1.563,1.563,0,0,0,42.2,15.629Zm-1.563,9.378h-5.5a1.563,1.563,0,0,0-1.472,1.038,12.756,12.756,0,0,1-.507,1.213,1.563,1.563,0,0,0,.3,1.78l3.9,3.9-4.422,4.422-3.9-3.893a1.562,1.562,0,0,0-1.779-.313,12.959,12.959,0,0,1-1.211.5,1.563,1.563,0,0,0-1.041,1.472v5.514H18.755v-5.5a1.562,1.562,0,0,0-1.04-1.474,12.377,12.377,0,0,1-1.213-.505,1.563,1.563,0,0,0-1.779.313l-3.9,3.889L6.408,32.933,10.3,29.04a1.563,1.563,0,0,0,.313-1.779,12.728,12.728,0,0,1-.5-1.211,1.564,1.564,0,0,0-1.482-1.043H3.126V18.755h5.5A1.563,1.563,0,0,0,10.1,17.718a12.387,12.387,0,0,1,.507-1.213,1.564,1.564,0,0,0-.313-1.781l-3.889-3.9L10.83,6.408,14.724,10.3a1.564,1.564,0,0,0,1.779.313,12.584,12.584,0,0,1,1.211-.5,1.563,1.563,0,0,0,1.041-1.479V3.126h6.252v5.5a1.563,1.563,0,0,0,1.04,1.474,12.372,12.372,0,0,1,1.213.5,1.562,1.562,0,0,0,1.779-.312l3.9-3.889,4.422,4.422-3.9,3.894a1.563,1.563,0,0,0-.313,1.779,12.746,12.746,0,0,1,.5,1.211,1.563,1.563,0,0,0,1.475,1.042h5.516Zm0,0" transform="translate(0 0)" stroke="#101010" stroke-width="1" fill="url(#linear-gradient)"/>
  </g>
</svg>
