<svg xmlns="http://www.w3.org/2000/svg" width="55.013" height="53.216" viewBox="0 0 55.013 53.216">
  <g id="Group_276" data-name="Group 276" transform="translate(0)">
    <path id="Path_341" data-name="Path 341" d="M3383.771,340.252c.093-.463,9.809-39.791,9.809-39.791l-26.187,15.268,4.288,7.478s-5.121,2.424-3.085,7.328,9.624,2.221,9.624,2.221l5.09,9.069Z" transform="translate(-3360.646 -298.538)" fill="#cb65ff"/>
    <path id="Path_342" data-name="Path 342" d="M15.5,1.609c.087.473,9.281,40.7,9.281,40.7L0,26.695l4.553-8.33s-5.342-1.8-3.415-6.816c3.394-6.133,9.107-2.272,9.107-2.272L15.061,0Z" transform="matrix(-0.891, -0.454, 0.454, -0.891, 35.803, 50.875)" fill="#ff657a"/>
    <g id="Union_2" data-name="Union 2" transform="translate(53.454 33.019) rotate(149)" fill="none">
      <path d="M0,38.521V6.612H9.569a6.768,6.768,0,0,1,13.533,0H32.67V17.418a6.4,6.4,0,1,1,0,12.791v8.313Z" stroke="none"/>
      <path d="M 4.000006198883057 34.52127456665039 L 28.67041969299316 34.52125930786133 L 28.67042541503906 26.20862770080566 L 32.67042541503906 26.20862770080566 C 34.07362365722656 26.20862770080566 35.21520614624023 25.13409805297852 35.21520614624023 23.81331634521484 C 35.21520614624023 23.19101715087891 34.96218490600586 22.60104751586914 34.50274658203125 22.15209770202637 C 34.01832580566406 21.67873764038086 33.36759567260742 21.41804695129395 32.67042541503906 21.41804695129395 L 28.67042541503906 21.41804695129395 L 28.67043113708496 10.61225128173828 L 19.10170555114746 10.61225700378418 L 19.10170555114746 6.612257480621338 C 19.10170555114746 5.171847343444824 17.86067581176758 3.99999737739563 16.33523559570312 3.99999737739563 C 14.80979537963867 3.99999737739563 13.56875514984131 5.171847343444824 13.56875514984131 6.612257480621338 L 13.56875514984131 10.61225700378418 L 4.000013828277588 10.61226272583008 L 4.000006198883057 34.52127456665039 M 4.980468929716153e-06 38.52127838134766 L 1.498046913184226e-05 6.61226749420166 L 9.568755149841309 6.612257480621338 C 9.568755149841309 2.960477352142334 12.59820461273193 -2.716674771363614e-06 16.33523559570312 -2.716674771363614e-06 C 20.072265625 -2.716674771363614e-06 23.10170555114746 2.960477352142334 23.10170555114746 6.612257480621338 L 32.67043685913086 6.612247467041016 L 32.67042541503906 17.41804695129395 C 36.28513336181641 17.41804695129395 39.21521377563477 20.28138732910156 39.21520614624023 23.81332778930664 C 39.21520614624023 27.34560775756836 36.28512573242188 30.20862770080566 32.67042541503906 30.20862770080566 L 32.67041397094727 38.52125549316406 L 4.980468929716153e-06 38.52127838134766 Z" stroke="none" fill="#f057d7"/>
    </g>
  </g>
</svg>
