<svg xmlns="http://www.w3.org/2000/svg" xmlns:xlink="http://www.w3.org/1999/xlink" width="310.453" height="315.599" viewBox="0 0 310.453 315.599">
  <defs>
    <linearGradient id="linear-gradient" x1="0.5" y1="1" x2="0.5" gradientUnits="objectBoundingBox">
      <stop offset="0" stop-color="#9e8c36"/>
      <stop offset="1" stop-color="#e4d381"/>
    </linearGradient>
    <linearGradient id="linear-gradient-2" x1="0.248" y1="-0.346" x2="-0.01" y2="0.761" gradientUnits="objectBoundingBox">
      <stop offset="0" stop-color="#e4d381"/>
      <stop offset="1" stop-color="#965e46"/>
    </linearGradient>
    <linearGradient id="linear-gradient-7" x1="0.735" y1="0.279" x2="0.5" y2="1" xlink:href="#linear-gradient-2"/>
    <linearGradient id="linear-gradient-15" x1="0.5" y1="0" x2="0.733" y2="1.241" xlink:href="#linear-gradient-2"/>
  </defs>
  <g id="Group_448" data-name="Group 448" transform="translate(-1020.905 -2623.703)">
    <circle id="Ellipse_68" data-name="Ellipse 68" cx="12.5" cy="12.5" r="12.5" transform="translate(1097.319 2663.964)" fill="url(#linear-gradient)"/>
    <g id="moon-landing" transform="translate(1207.316 2807) rotate(2)">
      <g id="Group_201" data-name="Group 201" transform="translate(73.944 68.662)">
        <path id="Path_278" data-name="Path 278" d="M2.641,42.254A2.642,2.642,0,0,1,0,39.613V2.641A2.642,2.642,0,0,1,2.641,0h31.69A2.644,2.644,0,0,1,36.2,4.511L27.5,13.2,36.2,21.9a2.644,2.644,0,0,1-1.864,4.511H5.282v13.2A2.642,2.642,0,0,1,2.641,42.254ZM5.282,21.127H27.956L21.9,15.074a2.643,2.643,0,0,1,0-3.734l6.053-6.058H5.282Z" stroke="#000" stroke-width="2" fill="url(#linear-gradient-2)"/>
      </g>
      <g id="Group_202" data-name="Group 202" transform="translate(0 0)">
        <path id="Path_279" data-name="Path 279" d="M34.331,68.662A34.331,34.331,0,1,1,68.662,34.331,34.371,34.371,0,0,1,34.331,68.662Zm0-63.38A29.049,29.049,0,1,0,63.38,34.331,29.08,29.08,0,0,0,34.331,5.282Z" stroke="#000" stroke-width="2" fill="url(#linear-gradient-2)"/>
      </g>
      <g id="Group_203" data-name="Group 203" transform="translate(7.114 5.87)">
        <path id="Path_280" data-name="Path 280" d="M8.71,36.383H0V31.725H8.71a4.043,4.043,0,0,0,2.916-1.178A4.3,4.3,0,0,0,12.9,27.566a9.076,9.076,0,0,1,7.327-8.8,6.447,6.447,0,0,0,4.97-6.232V10.159a9.317,9.317,0,0,0-2.869-6.8L25.553,0a13.935,13.935,0,0,1,4.3,10.159v2.376a11.145,11.145,0,0,1-8.72,10.8,4.37,4.37,0,0,0-2.585,1.551,4.285,4.285,0,0,0-.992,2.744,9.024,9.024,0,0,1-2.641,6.214A8.707,8.707,0,0,1,8.71,36.383Z" transform="translate(0)" stroke="#000" stroke-width="2" fill="url(#linear-gradient-2)"/>
      </g>
      <g id="Group_204" data-name="Group 204" transform="translate(30.211 21.464)">
        <path id="Path_281" data-name="Path 281" d="M12,40.082,4.44,32.758a14.3,14.3,0,0,1-1.46-19.1A13.3,13.3,0,0,1,11.764,8.68a13.437,13.437,0,0,1,4.753.279l1.734.52A4.025,4.025,0,0,0,22.6,7.39L26.321,0,30.64,1.928,26.813,9.54a8.856,8.856,0,0,1-9.781,4.5l-1.71-.51a8.5,8.5,0,0,0-8.614,3.029,9.708,9.708,0,0,0,1,12.791l7.579,7.343Z" stroke="#000" stroke-width="2" fill="url(#linear-gradient-2)"/>
      </g>
      <g id="Group_205" data-name="Group 205" transform="translate(0.003 105.684)">
        <path id="Path_282" data-name="Path 282" d="M124.117,21.077a2.569,2.569,0,0,1-1.215-.3C83.337.172,43.292.172,3.864,20.776a2.642,2.642,0,1,1-2.445-4.685c41.044-21.454,82.738-21.454,123.919,0a2.644,2.644,0,0,1-1.22,4.986Z" transform="translate(0 0)" stroke="#000" stroke-width="2" fill="url(#linear-gradient-2)"/>
      </g>
    </g>
    <g id="speed" transform="translate(1206.079 2623.703) rotate(45)">
      <g id="Group_207" data-name="Group 207" transform="translate(62.803 34.275)">
        <g id="Group_206" data-name="Group 206" transform="translate(0 0)">
          <path id="Path_283" data-name="Path 283" d="M.168,1.7A1.535,1.535,0,0,1,1.435.87L14.376.007a1.51,1.51,0,0,1,1.535.974l9.329,23.841a1.538,1.538,0,0,1-2.355,1.791l-7.743-5.806-4.508.9a1.537,1.537,0,0,1-1.738-.96A99.957,99.957,0,0,0,.236,3.222,1.538,1.538,0,0,1,.168,1.7ZM11.3,18.437l3.916-.783a1.549,1.549,0,0,1,1.224.278l3.967,2.975L13.457,3.151,4.17,3.769A103.88,103.88,0,0,1,11.3,18.437Z" fill="url(#linear-gradient-7)"/>
        </g>
      </g>
      <g id="Group_209" data-name="Group 209" transform="translate(34.279 62.799)">
        <g id="Group_208" data-name="Group 208" transform="translate(0 0)">
          <path id="Path_284" data-name="Path 284" d="M0,14.379.866,1.437A1.539,1.539,0,0,1,3.22.236,100.011,100.011,0,0,0,20.745,8.9a1.535,1.535,0,0,1,.96,1.738l-.9,4.508,5.806,7.741a1.539,1.539,0,0,1-1.23,2.463,1.627,1.627,0,0,1-.561-.1L.977,15.914A1.538,1.538,0,0,1,0,14.379Zm20.9,6.025L17.93,16.437a1.539,1.539,0,0,1-.277-1.224l.783-3.915A103.785,103.785,0,0,1,3.769,4.171l-.62,9.286Z" fill="url(#linear-gradient-7)"/>
        </g>
      </g>
      <g id="Group_211" data-name="Group 211" transform="translate(46.151 46.147)">
        <g id="Group_210" data-name="Group 210" transform="translate(0 0)">
          <path id="Path_285" data-name="Path 285" d="M1.538,0H11.9a1.54,1.54,0,0,1,1.344.791L26.254,24.164A1.538,1.538,0,0,1,24.91,26.45a1.518,1.518,0,0,1-.8-.223L.741,12.082A1.537,1.537,0,0,1,0,10.767V1.538A1.539,1.539,0,0,1,1.538,0ZM3.076,9.9,20.748,20.6,11,3.078v0H3.076Z" fill="url(#linear-gradient-7)"/>
        </g>
      </g>
      <g id="Group_213" data-name="Group 213" transform="translate(0.022 0.021)">
        <g id="Group_212" data-name="Group 212">
          <path id="Path_286" data-name="Path 286" d="M.055,1.46A1.54,1.54,0,0,1,1.461.054C1.972.014,52.624-3.522,74.548,53.9a1.537,1.537,0,0,1-.349,1.637l-7.314,7.314a1.538,1.538,0,0,1-2.435-.346L57.123,49.2H49.2v6.843L62.589,64.5a1.538,1.538,0,0,1,.266,2.389L55.542,74.2a1.536,1.536,0,0,1-1.088.451,1.515,1.515,0,0,1-.549-.1C-3.522,52.622.012,1.97.055,1.46ZM8.124,28.75c5.4,13.354,17.749,31.509,45.95,42.566l5.245-5.245L46.845,58.2a1.542,1.542,0,0,1-.717-1.3V47.666a1.539,1.539,0,0,1,1.538-1.538H58.034a1.539,1.539,0,0,1,1.347.8L66.16,59.232l5.157-5.159C52.07,4.973,11.045,2.965,3.07,3.077A68.169,68.169,0,0,0,8.124,28.75Z" fill="url(#linear-gradient-7)"/>
        </g>
      </g>
      <g id="Group_215" data-name="Group 215" transform="translate(64.035 64.032)">
        <g id="Group_214" data-name="Group 214" transform="translate(0)">
          <path id="Path_287" data-name="Path 287" d="M1.912,3.9A1.534,1.534,0,0,1,3.3,3.3a1.539,1.539,0,0,1,.6-1.387,9.621,9.621,0,0,1,8.215-1.6,10.346,10.346,0,0,1,6.911,5.768l9.093,20.006a1.537,1.537,0,0,1-2.037,2.036L6.078,19.027A10.342,10.342,0,0,1,.312,12.118,9.617,9.617,0,0,1,1.912,3.9Zm1.381,7.458A7.286,7.286,0,0,0,7.35,16.227l16.273,7.4-7.4-16.275A7.282,7.282,0,0,0,11.36,3.292a6.963,6.963,0,0,0-1.71-.215,6.49,6.49,0,0,0-2.749.6L8.366,6.271a1.539,1.539,0,0,1-2.1,2.1L3.677,6.9A6.666,6.666,0,0,0,3.293,11.361Z" fill="url(#linear-gradient-7)"/>
        </g>
      </g>
      <g id="Group_217" data-name="Group 217" transform="translate(0 0)">
        <g id="Group_216" data-name="Group 216">
          <path id="Path_288" data-name="Path 288" d="M.078,1.483A1.54,1.54,0,0,1,1.484.077c.6-.048,14.858-1.128,31.627,6.6a1.538,1.538,0,0,1,.444,2.484L9.16,33.553A1.538,1.538,0,0,1,8.073,34,1.632,1.632,0,0,1,7.8,33.98a1.539,1.539,0,0,1-1.126-.871C-1.051,16.341.029,2.081.078,1.483ZM8.571,29.789l21.22-21.22a68.446,68.446,0,0,0-26.7-5.477A68.268,68.268,0,0,0,8.571,29.789Z" fill="url(#linear-gradient-7)"/>
        </g>
      </g>
      <g id="Group_219" data-name="Group 219" transform="translate(20.485 20.483)">
        <g id="Group_218" data-name="Group 218" transform="translate(0 0)">
          <path id="Path_289" data-name="Path 289" d="M3.88,3.88a13.259,13.259,0,1,1,0,18.761A13.28,13.28,0,0,1,3.88,3.88ZM6.054,20.465a10.185,10.185,0,1,0,0-14.411A10.2,10.2,0,0,0,6.054,20.465Z" fill="url(#linear-gradient-7)"/>
        </g>
      </g>
      <g id="Group_221" data-name="Group 221" transform="translate(28.062 26.345)">
        <g id="Group_220" data-name="Group 220">
          <path id="Path_290" data-name="Path 290" d="M2.626,10.456a4.325,4.325,0,1,0,0-6.117A1.538,1.538,0,0,1,.451,2.164a7.4,7.4,0,1,1,0,10.467,1.538,1.538,0,0,1,2.175-2.175Z" fill="url(#linear-gradient-7)"/>
        </g>
      </g>
    </g>
    <g id="landing-page_1_" data-name="landing-page (1)" transform="translate(1021.477 2759.24) rotate(-9)">
      <path id="Path_291" data-name="Path 291" d="M104.691,97.957h-93a8.008,8.008,0,0,1-8-8V25.843H85.159a1.846,1.846,0,0,0,0-3.692H3.692V11.691a8.008,8.008,0,0,1,8-8h8.2a1.846,1.846,0,0,0,0-3.692h-8.2A11.7,11.7,0,0,0,0,11.691V89.958a11.7,11.7,0,0,0,11.691,11.691h93a1.846,1.846,0,1,0,0-3.692Z" transform="translate(0 0)" stroke="#000" stroke-width="1" fill="url(#linear-gradient-15)"/>
      <path id="Path_292" data-name="Path 292" d="M87.667,0H1.846a1.846,1.846,0,1,0,0,3.692H87.667a8.008,8.008,0,0,1,8,8v10.46H67.116a1.846,1.846,0,0,0,0,3.692h28.55V89.958a8.008,8.008,0,0,1-8,8H86.512a1.846,1.846,0,0,0,0,3.692h1.155A11.7,11.7,0,0,0,99.358,89.958V11.691A11.7,11.7,0,0,0,87.667,0Z" transform="translate(26.657 0)" stroke="#000" stroke-width="1" fill="url(#linear-gradient-15)"/>
      <path id="Path_293" data-name="Path 293" d="M0,5.538A5.538,5.538,0,1,0,5.538,0,5.544,5.544,0,0,0,0,5.538Zm7.384,0A1.846,1.846,0,1,1,5.538,3.692,1.848,1.848,0,0,1,7.384,5.538Z" transform="translate(7.568 7.322)" stroke="#000" stroke-width="1" fill="url(#linear-gradient-15)"/>
      <path id="Path_294" data-name="Path 294" d="M5.538,11.076A5.538,5.538,0,1,0,0,5.538,5.544,5.544,0,0,0,5.538,11.076Zm0-7.384A1.846,1.846,0,1,1,3.692,5.538,1.848,1.848,0,0,1,5.538,3.692Z" transform="translate(23.382 7.384)" stroke="#000" stroke-width="1" fill="url(#linear-gradient-15)"/>
      <path id="Path_295" data-name="Path 295" d="M11.076,5.538a5.538,5.538,0,1,0-5.538,5.538A5.544,5.544,0,0,0,11.076,5.538Zm-7.384,0A1.846,1.846,0,1,1,5.538,7.384,1.848,1.848,0,0,1,3.692,5.538Z" transform="translate(39.134 7.384)" stroke="#000" stroke-width="1" fill="url(#linear-gradient-15)"/>
      <path id="Path_296" data-name="Path 296" d="M57.962,11.076A5.538,5.538,0,1,0,57.962,0H5.538a5.538,5.538,0,1,0,0,11.076ZM3.692,5.538A1.848,1.848,0,0,1,5.538,3.692H57.962a1.846,1.846,0,1,1,0,3.692H5.538A1.848,1.848,0,0,1,3.692,5.538Z" transform="translate(55.132 7.384)" stroke="#000" stroke-width="1" fill="url(#linear-gradient-15)"/>
      <path id="Path_297" data-name="Path 297" d="M37.041,0H1.846a1.846,1.846,0,0,0,0,3.692h35.2a1.846,1.846,0,0,0,0-3.692Z" transform="translate(75.021 38.741)" stroke="#000" stroke-width="1" fill="url(#linear-gradient-15)"/>
      <path id="Path_298" data-name="Path 298" d="M37.041,0H1.846a1.846,1.846,0,0,0,0,3.692h35.2a1.846,1.846,0,0,0,0-3.692Z" transform="translate(75.021 48.586)" stroke="#000" stroke-width="1" fill="url(#linear-gradient-15)"/>
      <path id="Path_299" data-name="Path 299" d="M38.887,1.846A1.846,1.846,0,0,0,37.041,0H1.846a1.846,1.846,0,0,0,0,3.692h35.2A1.846,1.846,0,0,0,38.887,1.846Z" transform="translate(75.021 58.431)" stroke="#000" stroke-width="1" fill="url(#linear-gradient-15)"/>
      <path id="Path_300" data-name="Path 300" d="M8.737,17.475h38.4A8.737,8.737,0,0,0,47.133,0H8.737a8.737,8.737,0,0,0,0,17.475Zm0-13.783h38.4a5.046,5.046,0,0,1,0,10.091H8.737a5.046,5.046,0,0,1,0-10.091Z" transform="translate(35.073 73.321)" stroke="#000" stroke-width="1" fill="url(#linear-gradient-15)"/>
      <path id="Path_301" data-name="Path 301" d="M36.3,0H9.23A9.24,9.24,0,0,0,0,9.23V22.274A9.24,9.24,0,0,0,9.23,31.5H36.3a9.24,9.24,0,0,0,9.23-9.23v-.506h0V9.23A9.24,9.24,0,0,0,36.3,0ZM9.2,27.811l3.256-5.005a1.846,1.846,0,0,0-3.095-2.013l-3.71,5.7a5.526,5.526,0,0,1-1.959-4.221V9.229A5.544,5.544,0,0,1,9.23,3.692H36.3a5.544,5.544,0,0,1,5.538,5.538V16.7l-5.6-6.687a1.846,1.846,0,0,0-1.388-.661,1.819,1.819,0,0,0-1.407.619l-6.271,7.054L21.124,7.5a1.846,1.846,0,0,0-1.548-.856h-.01a1.846,1.846,0,0,0-1.547.839L14.067,13.56a1.846,1.846,0,0,0,3.094,2.013L19.548,11.9,29.654,27.812H9.2Zm27.1,0H34.028l-4.793-7.544,5.55-6.243,7.052,8.423A5.543,5.543,0,0,1,36.3,27.812Z" transform="translate(12.013 34.68)" stroke="#000" stroke-width="1" fill="url(#linear-gradient-15)"/>
    </g>
  </g>
</svg>
