<svg xmlns="http://www.w3.org/2000/svg" xmlns:xlink="http://www.w3.org/1999/xlink" width="408.369" height="467.098" viewBox="0 0 408.369 467.098">
  <defs>
    <linearGradient id="linear-gradient" x1="0.062" y1="0.884" x2="0.946" y2="0.271" gradientUnits="objectBoundingBox">
      <stop offset="0" stop-color="#ff9191"/>
      <stop offset="1" stop-color="#734b4b"/>
    </linearGradient>
    <linearGradient id="linear-gradient-2" x1="0.783" y1="0.895" x2="0.039" y2="0.338" gradientUnits="objectBoundingBox">
      <stop offset="0" stop-color="#a5cff3"/>
      <stop offset="1" stop-color="#9496d2"/>
    </linearGradient>
    <linearGradient id="linear-gradient-3" x1="0.253" y1="0.057" x2="0.5" y2="1" gradientUnits="objectBoundingBox">
      <stop offset="0" stop-color="#bcd8fe"/>
      <stop offset="1" stop-color="#9481c0"/>
    </linearGradient>
    <linearGradient id="linear-gradient-4" x1="0.715" y1="0.048" x2="0.41" y2="1.079" gradientUnits="objectBoundingBox">
      <stop offset="0" stop-color="#ffa9a9"/>
      <stop offset="1" stop-color="#ae9069"/>
    </linearGradient>
    <linearGradient id="linear-gradient-5" x1="0.07" y1="0.046" x2="0.949" y2="1" gradientUnits="objectBoundingBox">
      <stop offset="0" stop-color="#b78181"/>
      <stop offset="1" stop-color="#98a9ff"/>
    </linearGradient>
    <linearGradient id="linear-gradient-6" x1="0.733" y1="0.041" x2="0.34" y2="1.089" gradientUnits="objectBoundingBox">
      <stop offset="0" stop-color="#fdabab"/>
      <stop offset="1" stop-color="#f9de92"/>
    </linearGradient>
  </defs>
  <g id="Group_544" data-name="Group 544" transform="translate(-1291 -327.497)">
    <path id="Path_74" data-name="Path 74" d="M88.417.5H8.038A8.047,8.047,0,0,0,0,8.538V59.981a8.047,8.047,0,0,0,8.038,8.037H19.291v13.8a3.215,3.215,0,0,0,5.488,2.273L40.856,68.019H88.417a8.047,8.047,0,0,0,8.038-8.037V8.538A8.047,8.047,0,0,0,88.417.5ZM93.24,59.981A4.823,4.823,0,0,1,88.417,64.8H40.19a1.611,1.611,0,0,0-1.136.471L22.506,81.822V66.411A1.608,1.608,0,0,0,20.9,64.8H8.038a4.823,4.823,0,0,1-4.823-4.822V8.538A4.823,4.823,0,0,1,8.038,3.715H88.417A4.823,4.823,0,0,1,93.24,8.538Zm0,0" transform="translate(1596.824 328.729)" fill="url(#linear-gradient)"/>
    <g id="Group_38" data-name="Group 38" transform="translate(3089.189 -905.804)">
      <path id="Path_97" data-name="Path 97" d="M59.977,25.551H49.5a.952.952,0,1,0,0,1.9h9.52V37.927H34.2L31.326,31.81a.952.952,0,0,0-1.724,0l-2.87,6.117H1.9V27.455H45.7a.952.952,0,0,0,0-1.9H1.9c-1.873.006-.123-.008-1.9,0V63.625c1.785.011.21,0,1.9,0h.073l8.495.006a.952.952,0,1,0,0-1.9H1.9v-9.52h21l-.438,2.7a.952.952,0,0,0,1.4.986l6.6-3.648,6.6,3.648a.952.952,0,0,0,1.4-.986l-.438-2.7h21v9.52H14.28a.952.952,0,1,0,0,1.9h45.7a.952.952,0,0,0,.952-.952V26.5A.952.952,0,0,0,59.977,25.551ZM1.9,50.3V39.831h18.1L18.9,40a.952.952,0,0,0-.538,1.606l5.376,5.511L23.216,50.3Zm29.021.024a.952.952,0,0,0-.922,0l-5.345,2.951,1.033-6.331a.952.952,0,0,0-.258-.818L21.016,41.6l6.062-.926a.952.952,0,0,0,.718-.537l2.668-5.682,2.666,5.685a.952.952,0,0,0,.718.537l6.062.926-4.418,4.529a.952.952,0,0,0-.258.818l1.033,6.331Zm6.788-.024-.52-3.185,5.376-5.511A.952.952,0,0,0,42.031,40l-1.11-.169h18.1V50.3Z" transform="translate(-1474.602 1223.71)" fill="#ffe0e0"/>
      <path id="Path_99" data-name="Path 99" d="M47.9,15h-.952a.952.952,0,0,0,0,1.9H47.9a.952.952,0,0,0,0-1.9Z" transform="translate(-1476.81 1239.973)" fill="#ffe0e0"/>
      <path id="Path_100" data-name="Path 100" d="M50.952,16.9H51.9a.952.952,0,1,0,0-1.9h-.952a.952.952,0,1,0,0,1.9Z" transform="translate(-1477.002 1239.973)" fill="#ffe0e0"/>
    </g>
    <path id="Path_103" data-name="Path 103" d="M8.038.5H88.417a8.047,8.047,0,0,1,8.038,8.038V59.981a8.047,8.047,0,0,1-8.038,8.037H77.165v13.8A3.215,3.215,0,0,1,71.676,84.1L55.6,68.019H8.038A8.047,8.047,0,0,1,0,59.981V8.538A8.047,8.047,0,0,1,8.038.5ZM3.215,59.981A4.823,4.823,0,0,0,8.038,64.8H56.266a1.611,1.611,0,0,1,1.136.471L73.95,81.822V66.411A1.608,1.608,0,0,1,75.557,64.8H88.417a4.823,4.823,0,0,0,4.823-4.822V8.538a4.823,4.823,0,0,0-4.823-4.823H8.038A4.823,4.823,0,0,0,3.215,8.538Zm0,0" transform="translate(1291 431.497)" fill="url(#linear-gradient-2)"/>
    <g id="flag" transform="translate(1309.965 446.121)">
      <g id="Group_25" data-name="Group 25" transform="translate(20.579 11.128)">
        <g id="Group_24" data-name="Group 24">
          <path id="Path_77" data-name="Path 77" d="M142.339,147.86l-1.319-.328L140.3,146.4a.162.162,0,0,0-.054-.054.167.167,0,0,0-.231.051l0,0-.686,1.128-1.3.328a.162.162,0,0,0-.066.036.167.167,0,0,0,0,.233l.853,1.027-.09,1.337a.176.176,0,0,0,0,.072.167.167,0,0,0,.215.1l1.241-.5,1.229.489a.167.167,0,0,0,.239-.161l-.09-1.337.847-1.021a.164.164,0,0,0-.078-.275Z" transform="translate(-137.923 -146.323)" fill="#ffd9d9"/>
        </g>
      </g>
      <g id="Group_27" data-name="Group 27" transform="translate(13.092 4.579)">
        <g id="Group_26" data-name="Group 26">
          <path id="Path_78" data-name="Path 78" d="M92.187,103.938l-1.307-.3-.716-1.128a.167.167,0,0,0-.231-.049.169.169,0,0,0-.049.049l-.716,1.128-1.3.328a.167.167,0,0,0-.089.269l.859,1.027-.09,1.337a.167.167,0,0,0,.227.167l1.241-.5,1.247.483a.2.2,0,0,0,.239-.178h0l-.09-1.337.847-1.021a.164.164,0,0,0-.078-.275Z" transform="translate(-87.745 -102.429)" fill="#ffd9d9"/>
        </g>
      </g>
      <g id="Group_29" data-name="Group 29" transform="translate(20.564 4.575)">
        <g id="Group_28" data-name="Group 28">
          <path id="Path_79" data-name="Path 79" d="M142.231,103.922l-1.3-.31-.716-1.128a.162.162,0,0,0-.054-.054.167.167,0,0,0-.231.051l0,0-.686,1.128-1.3.328a.167.167,0,0,0-.089.269l.853,1.027-.09,1.337a.171.171,0,0,0,0,.072.167.167,0,0,0,.215.1l1.241-.5,1.229.489a.2.2,0,0,0,.239-.178h0l-.09-1.337.847-1.021a.164.164,0,0,0-.078-.275Z" transform="translate(-137.825 -102.403)" fill="#ffd9d9"/>
        </g>
      </g>
      <g id="Group_31" data-name="Group 31" transform="translate(0 0)">
        <g id="Group_30" data-name="Group 30">
          <path id="Path_80" data-name="Path 80" d="M58.494,71.74H1a1,1,0,0,0-1,1V108.82a1,1,0,0,0,1,1H58.488a1,1,0,0,0,1-1V72.749A1,1,0,0,0,58.494,71.74ZM2.005,73.751H28.743V89.782H2.005Zm55.5,34.066H2.005v-3.975h55.5Zm0-5.968H2.005V97.815h55.5Zm0-6.028H2.005V91.787h55.5ZM30.748,89.794V85.759H57.479l.03,4.034Zm0-6.028V79.737H57.479l.03,4.029Zm0-6.028V73.751H57.479l.03,3.987Z" transform="translate(0 -71.74)" fill="#ffd9d9"/>
        </g>
      </g>
      <g id="Group_33" data-name="Group 33" transform="translate(5.658 11.128)">
        <g id="Group_32" data-name="Group 32">
          <path id="Path_81" data-name="Path 81" d="M42.339,147.866l-1.3-.334-.71-1.128a.169.169,0,0,0-.285,0l0,0-.716,1.128-1.3.328a.162.162,0,0,0-.066.036.167.167,0,0,0,0,.233l.853,1.027-.09,1.337a.167.167,0,0,0,.227.167l1.241-.5,1.218.5a.167.167,0,0,0,.239-.161l-.09-1.337.847-1.021a.164.164,0,0,0-.078-.275Z" transform="translate(-37.923 -146.323)" fill="#ffd9d9"/>
        </g>
      </g>
      <g id="Group_35" data-name="Group 35" transform="translate(5.644 4.579)">
        <g id="Group_34" data-name="Group 34">
          <path id="Path_82" data-name="Path 82" d="M42.255,103.938l-1.3-.3-.71-1.128a.167.167,0,0,0-.231-.049.169.169,0,0,0-.049.049l-.722,1.128-1.3.328a.167.167,0,0,0-.089.269l.853,1.027-.066,1.337a.167.167,0,0,0,.227.167l1.241-.5,1.218.483a.2.2,0,0,0,.239-.178h0l-.09-1.337.847-1.021a.164.164,0,0,0-.078-.275Z" transform="translate(-37.825 -102.429)" fill="#ffd9d9"/>
        </g>
      </g>
      <g id="Group_37" data-name="Group 37" transform="translate(13.101 11.128)">
        <g id="Group_36" data-name="Group 36">
          <path id="Path_83" data-name="Path 83" d="M92.237,147.866l-1.307-.334-.716-1.128a.169.169,0,0,0-.285,0l0,0-.716,1.128-1.3.328a.162.162,0,0,0-.066.036.167.167,0,0,0,0,.233l.853,1.027-.09,1.337a.167.167,0,0,0,.227.167l1.241-.5,1.235.5a.167.167,0,0,0,.239-.161l-.09-1.337.847-1.021a.164.164,0,0,0-.078-.275Z" transform="translate(-87.803 -146.323)" fill="#ffd9d9"/>
        </g>
      </g>
    </g>
    <path id="Path_102" data-name="Path 102" d="M88.417,85.036H8.038A8.047,8.047,0,0,1,0,77V25.555a8.047,8.047,0,0,1,8.038-8.037H19.291V3.714a3.215,3.215,0,0,1,5.488-2.273L40.856,17.518H88.417a8.047,8.047,0,0,1,8.038,8.037V77a8.047,8.047,0,0,1-8.038,8.038Zm4.823-59.481a4.823,4.823,0,0,0-4.823-4.822H40.19a1.611,1.611,0,0,1-1.136-.471L22.506,3.714v15.41A1.608,1.608,0,0,1,20.9,20.733H8.038a4.823,4.823,0,0,0-4.823,4.822V77a4.823,4.823,0,0,0,4.823,4.823H88.417A4.823,4.823,0,0,0,93.241,77Zm0,0" transform="translate(1602.913 709.559)" fill="url(#linear-gradient-3)"/>
    <g id="singapore" transform="translate(1621.164 740.377)">
      <path id="Path_90" data-name="Path 90" d="M57.2,88.177H2.756A2.759,2.759,0,0,0,0,90.933v33.792a2.759,2.759,0,0,0,2.756,2.756H57.2a2.759,2.759,0,0,0,2.756-2.756V90.933A2.759,2.759,0,0,0,57.2,88.177Zm0,37.547H2.756a1,1,0,0,1-1-1V108.707H51.567a.878.878,0,1,0,0-1.756H1.756V90.933a1,1,0,0,1,1-1H57.2a1,1,0,0,1,1,1v16.018H55.321a.878.878,0,0,0,0,1.756H58.2v16.018a1,1,0,0,1-1,1Z" transform="translate(0 -88.177)" fill="#cfe4ff"/>
      <path id="Path_91" data-name="Path 91" d="M64.793,131.229a4.746,4.746,0,0,1,0-8.954.878.878,0,0,0,0-1.656,6.51,6.51,0,1,0,0,12.265.878.878,0,0,0,0-1.656Zm-6.924-4.477a4.762,4.762,0,0,1,4.007-4.7,6.492,6.492,0,0,0,0,9.39A4.762,4.762,0,0,1,57.869,126.752Z" transform="translate(-49.541 -116.487)" fill="#cfe4ff"/>
      <path id="Path_92" data-name="Path 92" d="M153.23,136.274h-.009a.883.883,0,1,0,.009,0Z" transform="translate(-134.507 -130.642)" fill="#cfe4ff"/>
      <path id="Path_93" data-name="Path 93" d="M171.462,192.387h-.009a.883.883,0,1,0,.009,0Z" transform="translate(-150.604 -180.184)" fill="#cfe4ff"/>
      <path id="Path_94" data-name="Path 94" d="M135,192.387h-.009a.883.883,0,1,0,.009,0Z" transform="translate(-118.409 -180.184)" fill="#cfe4ff"/>
      <path id="Path_95" data-name="Path 95" d="M182.73,157.708h-.009a.883.883,0,1,0,.009,0Z" transform="translate(-160.553 -149.566)" fill="#cfe4ff"/>
      <path id="Path_96" data-name="Path 96" d="M123.72,157.708a.883.883,0,1,0,.009,0Z" transform="translate(-108.461 -149.566)" fill="#cfe4ff"/>
    </g>
    <g id="globe" transform="translate(1387.245 737.72)">
      <g id="Group_7" data-name="Group 7">
        <path id="Path_24" data-name="Path 24" d="M22.247,0C12.849,0,0,7.1,0,22.247,0,37.006,12.359,44.495,22.247,44.495c16.966,0,22.247-14.864,22.247-22.247C44.495,11.351,36.156,0,22.247,0ZM17.088,2.093A19.865,19.865,0,0,0,11.6,11.413,20.668,20.668,0,0,1,7.191,7.9,20.844,20.844,0,0,1,17.088,2.093ZM6.236,8.969A21.811,21.811,0,0,0,11.2,12.84a37.615,37.615,0,0,0-1.139,8.689H1.454A20.721,20.721,0,0,1,6.236,8.969Zm0,26.557a20.668,20.668,0,0,1-4.782-12.56h8.61A37.552,37.552,0,0,0,11.2,31.654,22.456,22.456,0,0,0,6.236,35.526ZM7.191,36.6A20.669,20.669,0,0,1,11.6,33.091c1.244,4.055,3.171,7.34,5.492,9.319A20.986,20.986,0,0,1,7.191,36.6Zm14.338,6.4c-3.731-.473-6.946-4.642-8.68-10.616a20.935,20.935,0,0,1,8.68-2.233Zm0-14.277a22.284,22.284,0,0,0-9.048,2.251,37.572,37.572,0,0,1-.99-8.014H21.529Zm0-7.2H11.491a37.572,37.572,0,0,1,.99-8.014,22.354,22.354,0,0,0,9.048,2.251Zm0-7.191a20.768,20.768,0,0,1-8.68-2.233C14.583,6.122,17.8,1.962,21.529,1.489ZM38.258,8.969a20.721,20.721,0,0,1,4.782,12.56h-8.6A37.551,37.551,0,0,0,33.3,12.84,22.209,22.209,0,0,0,38.258,8.969ZM37.3,7.892A20.669,20.669,0,0,1,32.9,11.4a19.954,19.954,0,0,0-5.492-9.319A20.986,20.986,0,0,1,37.3,7.892Zm-14.338-6.4c3.731.473,6.946,4.642,8.68,10.616a20.9,20.9,0,0,1-8.68,2.233Zm0,14.277a22.283,22.283,0,0,0,9.048-2.251A37.571,37.571,0,0,1,33,21.529H22.965Zm0,7.2H33a37.572,37.572,0,0,1-.99,8.014,22.005,22.005,0,0,0-9.048-2.251Zm0,20.04V30.156a20.768,20.768,0,0,1,8.68,2.233C29.911,38.372,26.7,42.533,22.965,43.006Zm4.441-.6A19.865,19.865,0,0,0,32.9,33.082,20.669,20.669,0,0,1,37.3,36.594,20.844,20.844,0,0,1,27.406,42.4Zm10.852-6.876A22.208,22.208,0,0,0,33.3,31.654a37.616,37.616,0,0,0,1.139-8.689h8.6A20.721,20.721,0,0,1,38.258,35.526Z" fill="#fac3a7"/>
      </g>
    </g>
    <path id="Path_107" data-name="Path 107" d="M8.038,85.036H88.417A8.047,8.047,0,0,0,96.456,77V25.555a8.047,8.047,0,0,0-8.038-8.037H77.165V3.714a3.215,3.215,0,0,0-5.488-2.273L55.6,17.518H8.038A8.047,8.047,0,0,0,0,25.555V77a8.047,8.047,0,0,0,8.038,8.038ZM3.215,25.555a4.823,4.823,0,0,1,4.823-4.822H56.266a1.611,1.611,0,0,0,1.136-.471L73.95,3.714v15.41a1.608,1.608,0,0,0,1.607,1.608H88.417a4.823,4.823,0,0,1,4.823,4.822V77a4.823,4.823,0,0,1-4.823,4.823H8.038A4.823,4.823,0,0,1,3.215,77Zm0,0" transform="translate(1361.456 708.559)" fill="url(#linear-gradient-4)"/>
    <path id="Path_101" data-name="Path 101" d="M8.038.5H88.417a8.047,8.047,0,0,1,8.038,8.038V59.981a8.047,8.047,0,0,1-8.038,8.037H77.165v13.8A3.215,3.215,0,0,1,71.676,84.1L55.6,68.019H8.038A8.047,8.047,0,0,1,0,59.981V8.538A8.047,8.047,0,0,1,8.038.5ZM3.215,59.981A4.823,4.823,0,0,0,8.038,64.8H56.266a1.611,1.611,0,0,1,1.136.471L73.95,81.822V66.411A1.608,1.608,0,0,1,75.557,64.8H88.417a4.823,4.823,0,0,0,4.823-4.822V8.538a4.823,4.823,0,0,0-4.823-4.823H8.038A4.823,4.823,0,0,0,3.215,8.538Zm0,0" transform="translate(1371.456 326.997)" fill="url(#linear-gradient-5)"/>
    <g id="japan" transform="translate(1389.938 341.896)">
      <path id="Path_84" data-name="Path 84" d="M56.756,88.178H2.734A2.737,2.737,0,0,0,0,90.912v33.531a2.737,2.737,0,0,0,2.734,2.734H56.756a2.737,2.737,0,0,0,2.734-2.734V90.912A2.737,2.737,0,0,0,56.756,88.178Zm.991,36.265a.993.993,0,0,1-.991.991H2.734a.992.992,0,0,1-.991-.991V90.912a.992.992,0,0,1,.991-.991H56.756a.992.992,0,0,1,.991.991Z" transform="translate(0 -88.178)" fill="#fdd6ff"/>
      <path id="Path_85" data-name="Path 85" d="M185.812,172.664a.871.871,0,0,0-.245,1.208,8.449,8.449,0,1,1-2.389-2.389.871.871,0,1,0,.962-1.453,10.193,10.193,0,1,0,2.88,2.88A.872.872,0,0,0,185.812,172.664Z" transform="translate(-148.779 -159.025)" fill="#fdd6ff"/>
    </g>
    <g id="global-network" transform="translate(1382.069 413.535)" fill="url(#linear-gradient-6)">
      <path d="M 149.3780975341797 283.8270874023438 C 127.230712890625 283.8270874023438 105.5716323852539 278.5348510742188 86.74236297607422 268.5224914550781 L 86.12813568115234 268.1958923339844 L 85.60832214355469 268.6581420898438 C 82.554443359375 271.3739929199219 78.92520904541016 272.8095397949219 75.11309051513672 272.8095397949219 C 72.53717041015625 272.8095397949219 69.93278503417969 272.1447143554688 67.58155822753906 270.886962890625 C 65.25901794433594 269.6445617675781 63.24694061279297 267.8610229492188 61.76286315917969 265.7291259765625 C 60.34082412719727 263.6863098144531 59.45193862915039 261.4266052246094 59.12086486816406 259.0127258300781 C 58.76251602172852 256.4000244140625 59.08193969726562 253.7215728759766 60.07028579711914 251.0517578125 L 60.30824661254883 250.4089508056641 L 59.79451751708984 249.9551544189453 C 52.52067184448242 243.5296936035156 45.90655517578125 236.2613372802734 40.13582611083984 228.3520355224609 C 34.43924713134766 220.5442962646484 29.54709434509277 212.0892333984375 25.5953254699707 203.2216491699219 C 21.64609336853027 194.3598022460938 18.62809371948242 185.0682983398438 16.62517166137695 175.6053466796875 C 14.59870910644531 166.0309143066406 13.6062479019165 156.2537994384766 13.67540168762207 146.5455780029297 L 13.68086338043213 145.7811889648438 L 12.94467067718506 145.5753784179688 C 8.717594146728516 144.3936920166016 5.384055614471436 141.9681091308594 3.304440259933472 138.5608367919922 C 1.429748058319092 135.4893035888672 0.6615172624588013 131.7419128417969 1.141209602355957 128.0090026855469 C 1.619478821754456 124.2874221801758 3.30351734161377 120.8740692138672 5.883132457733154 118.3976898193359 C 8.753132820129395 115.6425704956055 12.60694026947021 114.1466522216797 17.02790260314941 114.0715713500977 L 17.78978729248047 114.0586471557617 L 17.97944068908691 113.320686340332 C 21.42770957946777 99.9051513671875 26.88940238952637 87.13314819335938 34.21286392211914 75.35945892333984 C 34.81013107299805 74.39926147460938 35.64997863769531 73.89168548583984 36.64159393310547 73.89168548583984 C 37.85609436035156 73.89168548583984 39.13382339477539 74.66457366943359 39.74882507324219 75.77122497558594 C 40.12028503417969 76.43965148925781 40.40178680419922 77.49580383300781 39.63340377807617 78.73149871826172 C 32.63932418823242 89.97615051269531 27.4274787902832 102.1727294921875 24.14267158508301 114.982421875 L 23.95201683044434 115.7258834838867 L 24.62090110778809 116.1023025512695 C 27.28324890136719 117.6005325317383 29.45382499694824 119.8149566650391 30.89801788330078 122.5061874389648 L 31.25251770019531 123.1667633056641 L 31.9859790802002 123.0117263793945 C 49.22370910644531 119.3680725097656 66.85897827148438 117.4728775024414 84.40193939208984 117.3788070678711 L 85.03936004638672 117.3753814697266 L 85.30536651611328 116.7961120605469 C 86.58159637451172 114.0168380737305 88.65605926513672 111.6674194335938 91.304443359375 110.0017623901367 C 93.91355895996094 108.3608779907227 96.89293670654297 107.4935302734375 99.92059326171875 107.4935302734375 C 101.4336318969727 107.4935302734375 102.9295959472656 107.7137680053711 104.366943359375 108.1480712890625 L 105.0456314086914 108.3531494140625 L 105.4637451171875 107.7805328369141 C 114.0509033203125 96.02118682861328 123.9821319580078 85.24103546142578 134.9815521240234 75.73949432373047 L 135.5775909423828 75.22464752197266 L 135.2167510986328 74.52457427978516 C 134.3270111083984 72.79845428466797 133.7487487792969 70.82972717285156 133.5444030761719 68.83118438720703 C 133.3403625488281 66.83522796630859 133.5070953369141 64.7899169921875 134.0266723632812 62.9163818359375 L 134.2306365966797 62.18080139160156 L 133.5749053955078 61.79007339477539 C 120.085823059082 53.75268936157227 105.5515594482422 47.46249389648438 90.37582397460938 43.09418869018555 L 89.57555389404297 42.86380386352539 L 89.20417022705078 43.60914993286133 C 87.86313629150391 46.30045700073242 85.76917266845703 48.54449462890625 83.14875030517578 50.09868621826172 C 80.61624908447266 51.60072708129883 77.72259521484375 52.39468765258789 74.78063201904297 52.39468765258789 C 71.46747589111328 52.39468765258789 68.31728363037109 51.38561248779297 65.67051696777344 49.4765739440918 L 65.02490234375 49.01091766357422 L 64.42632293701172 49.53564834594727 C 60.06086349487305 53.36260986328125 55.93574905395508 57.49084091186523 52.16543960571289 61.80557250976562 C 51.56409454345703 62.49384307861328 50.84890365600586 62.84280395507812 50.03982543945312 62.84280395507812 C 48.76020812988281 62.84280395507812 47.41932678222656 61.93545532226562 46.85151672363281 60.68537902832031 C 46.51066970825195 59.93499374389648 46.32186508178711 58.79157257080078 47.35805511474609 57.60557174682617 C 51.35055541992188 53.03588104248047 55.72213363647461 48.6663818359375 60.35136413574219 44.6184196472168 L 60.91159439086914 44.12853240966797 L 60.60317230224609 43.45122528076172 C 59.33893966674805 40.6748046875 58.80663299560547 37.86922454833984 59.02113342285156 35.11249542236328 C 59.21786499023438 32.58411026000977 60.02636337280273 30.20061111450195 61.42417144775391 28.02818870544434 C 62.88405609130859 25.75934219360352 64.92567443847656 23.8525333404541 67.32836151123047 22.51387977600098 C 69.75505828857422 21.16180419921875 72.45240020751953 20.4471492767334 75.12874603271484 20.4471492767334 C 79.46132659912109 20.4471492767334 83.47389984130859 22.27257347106934 86.73271179199219 25.72603416442871 L 87.25051879882812 26.27480316162109 L 87.92032623291016 25.9274959564209 C 106.4637451171875 16.31249618530273 127.7191696166992 11.23030376434326 149.3887023925781 11.23030376434326 C 159.8376007080078 11.23030376434326 170.2442169189453 12.41261100769043 180.3194732666016 14.74437999725342 C 190.5661773681641 17.11580276489258 200.4040985107422 20.66241836547852 209.5599060058594 25.28568840026855 L 210.1981353759766 25.60795783996582 L 210.7095184326172 25.1082649230957 C 213.8216705322266 22.06718826293945 217.5967407226562 20.45976448059082 221.6266784667969 20.45976448059082 C 226.8153228759766 20.45976448059082 231.9399719238281 23.18522644042969 235.0008239746094 27.57253456115723 C 236.4335632324219 29.62615013122559 237.3315887451172 31.89691925048828 237.6700897216797 34.32172775268555 C 238.0366668701172 36.94803237915039 237.7221374511719 39.64011001586914 236.7351379394531 42.32322692871094 L 236.4942932128906 42.97784042358398 L 237.0254821777344 43.42995834350586 C 240.1861267089844 46.12018966674805 243.2604370117188 48.98822784423828 246.1631011962891 51.9544563293457 L 246.6584777832031 52.46072769165039 L 247.3004455566406 52.16138076782227 C 249.635986328125 51.07230377197266 252.0212097167969 50.52007293701172 254.3899383544922 50.52007293701172 C 257.4322509765625 50.52007293701172 260.40185546875 51.44407272338867 262.9777221679688 53.19211196899414 C 265.4517822265625 54.87115097045898 267.4353942871094 57.20515060424805 268.7140808105469 59.94187927246094 C 269.9606018066406 62.60968780517578 270.4526062011719 65.51553344726562 270.1369934082031 68.34526824951172 C 269.7886047363281 71.46868896484375 268.5027160644531 74.37845611572266 266.3149719238281 76.99372863769531 L 265.8581848144531 77.53984069824219 L 266.2247619628906 78.15018463134766 C 276.9283142089844 95.97291564941406 283.3305053710938 116.8878784179688 284.7391662597656 138.6340026855469 C 286.1447143554688 160.3316040039062 282.5198364257812 181.8812255859375 274.2564392089844 200.9531555175781 L 274.2387390136719 200.9940338134766 L 274.2247009277344 201.0363464355469 C 274.1836242675781 201.1604156494141 274.1294860839844 201.2902221679688 274.0591735839844 201.4332275390625 L 274.0476989746094 201.4565734863281 L 274.0374755859375 201.4804534912109 C 270.1279907226562 210.6016540527344 265.2071228027344 219.3102264404297 259.41162109375 227.3642272949219 C 253.5590972900391 235.4975738525391 246.7832489013672 243.0060272216797 239.2723693847656 249.6810760498047 L 238.7301635742188 250.1629180908203 L 239.0198974609375 250.8279113769531 C 240.2175903320312 253.5771179199219 240.6983184814453 256.3526916503906 240.4487152099609 259.0776062011719 C 240.2192840576172 261.582275390625 239.3904724121094 263.9397277832031 237.9853668212891 266.0844116210938 C 234.9716949462891 270.6842956542969 229.7603454589844 273.5416870117188 224.3849945068359 273.5416870117188 C 224.3846740722656 273.5416870117188 224.3844604492188 273.5416870117188 224.3841400146484 273.5416870117188 C 220.2514343261719 273.5414123535156 216.3747100830078 271.8675842285156 213.1730194091797 268.7011108398438 L 212.6499786376953 268.1838073730469 L 212.0003967285156 268.5291137695312 C 193.1746673583984 278.5371398925781 171.5202026367188 283.8270874023438 149.3780975341797 283.8270874023438 Z M 208.2469787597656 170.3219604492188 L 207.7554779052734 170.94384765625 C 192.6519775390625 190.0544586181641 175.05029296875 206.9123382568359 155.4393310546875 221.0491943359375 C 135.8286743164062 235.1858367919922 114.3171310424805 246.5234527587891 91.50221252441406 254.7471466064453 L 90.79540252685547 255.001953125 L 90.84336090087891 255.7517242431641 C 90.97747802734375 257.8489685058594 90.67340087890625 260.0870361328125 89.98721313476562 262.0537414550781 L 89.70078277587891 262.8746032714844 L 90.47393798828125 263.2723693847656 C 99.49809265136719 267.9149169921875 109.1066360473633 271.4858093261719 119.0326309204102 273.8858032226562 C 128.9689025878906 276.2882690429688 139.1781005859375 277.5064086914062 149.3766326904297 277.5064086914062 C 159.6583709716797 277.5064086914062 169.9482421875 276.2683715820312 179.9603576660156 273.8266906738281 C 189.9616394042969 271.3876953125 199.6371307373047 267.7595825195312 208.7182159423828 263.0431518554688 L 209.4417877197266 262.6673278808594 L 209.2193603515625 261.8829040527344 C 207.9913635253906 257.5518493652344 208.7189331054688 252.8260650634766 211.2155151367188 248.9173431396484 C 212.4075622558594 247.0510406494141 213.9886322021484 245.4185028076172 215.7878265380859 244.1961517333984 C 217.6875152587891 242.9055328369141 219.7920532226562 242.0696563720703 222.0429077148438 241.7116851806641 L 222.7993316650391 241.5914154052734 L 222.8802490234375 240.8297576904297 C 223.6812896728516 233.2906494140625 224.0283966064453 225.6678466796875 223.9119415283203 218.1730651855469 C 223.8975982666016 217.2557678222656 224.169677734375 216.5069885253906 224.7205200195312 215.9474639892578 C 225.3035583496094 215.3552703857422 226.1757507324219 215.0156097412109 227.1135101318359 215.0156097412109 C 228.6734008789062 215.0156097412109 230.2620239257812 215.96142578125 230.2947845458984 218.074462890625 C 230.4144439697266 225.7870788574219 230.0589752197266 233.6340789794922 229.23828125 241.3975372314453 L 229.1557464599609 242.1784515380859 L 229.8948211669922 242.44384765625 C 231.3937835693359 242.9819946289062 232.7983245849609 243.7388458251953 234.0694732666016 244.6933746337891 L 234.7252807617188 245.1858367919922 L 235.3365936279297 244.6390686035156 C 242.0967102050781 238.5928344726562 248.2350616455078 231.8245697021484 253.5811767578125 224.5223388671875 C 258.8722534179688 217.2952270507812 263.4283752441406 209.4896545410156 267.1228942871094 201.3224639892578 L 267.40478515625 200.6993103027344 L 266.9263000488281 200.2106475830078 C 255.0703277587891 188.1034240722656 241.9495239257812 177.1381530761719 227.9282836914062 167.6194610595703 L 227.2587890625 167.1649627685547 L 226.6746368408203 167.7248840332031 C 225.8701782226562 168.4960021972656 224.9892883300781 169.1813354492188 224.0564422607422 169.7619934082031 L 223.4249725341797 170.155029296875 L 223.6197814941406 170.8728790283203 C 225.6014404296875 178.1750335693359 227.1629333496094 185.6421813964844 228.2609405517578 193.0668792724609 C 228.4054718017578 194.0446472167969 228.1961669921875 194.8678741455078 227.6388702392578 195.5136566162109 C 227.0298309326172 196.2193450927734 226.0461730957031 196.6406097412109 225.0075225830078 196.6406097412109 C 223.7161712646484 196.6406097412109 222.2336273193359 195.9470672607422 221.9456329345703 194.00048828125 C 220.9019775390625 186.9444580078125 219.4214019775391 179.8356475830078 217.5450897216797 172.8714904785156 L 217.334716796875 172.0906524658203 L 216.5271301269531 172.1330413818359 C 216.2529754638672 172.1474151611328 215.9745178222656 172.1546936035156 215.6994781494141 172.1546936035156 C 213.3807525634766 172.1546936035156 211.0518646240234 171.6372985839844 208.9646301269531 170.6584930419922 L 208.2469787597656 170.3219604492188 Z M 224.5450592041016 247.9410400390625 C 222.1285552978516 247.9410400390625 219.8501281738281 248.7929229736328 218.1295166015625 250.3397674560547 C 216.1988983154297 252.0753784179688 215.1146697998047 254.5409545898438 214.9940490722656 257.469970703125 L 214.9932098388672 257.4905395507812 L 214.9932098388672 257.5111083984375 C 214.9932098388672 262.8126220703125 219.2782135009766 267.1257019042969 224.5452117919922 267.1257019042969 C 229.8124847412109 267.1257019042969 234.0977478027344 262.8126220703125 234.0977478027344 257.5111083984375 L 234.0977478027344 257.4906005859375 L 234.0969085693359 257.4701232910156 C 233.9767150878906 254.541259765625 232.8925628662109 252.07568359375 230.9617156982422 250.3399505615234 C 229.2407836914062 248.7929992675781 226.9619750976562 247.9410400390625 224.5450592041016 247.9410400390625 Z M 74.94416809082031 247.167724609375 C 69.67720794677734 247.167724609375 65.3922119140625 251.4808044433594 65.3922119140625 256.7823181152344 C 65.3922119140625 262.0837707519531 69.67720794677734 266.3968505859375 74.94416809082031 266.3968505859375 C 80.21144104003906 266.3968505859375 84.49671173095703 262.0837707519531 84.49671173095703 256.7823181152344 C 84.49671173095703 254.3255767822266 83.46916961669922 251.8731842041016 81.67759704589844 250.0540313720703 C 79.84455871582031 248.1927642822266 77.4532470703125 247.167724609375 74.94416809082031 247.167724609375 Z M 94.24332427978516 138.4949188232422 L 93.86544036865234 139.2632598876953 C 86.19889831542969 154.8517303466797 80.76605224609375 171.3645782470703 77.71786499023438 188.3431549072266 C 74.66940307617188 205.3233795166016 74.01863098144531 222.6991882324219 75.78370666503906 239.9878387451172 L 75.86594390869141 240.7930755615234 L 76.67066955566406 240.8804168701172 C 79.09535980224609 241.1435699462891 81.37205505371094 241.9426116943359 83.43751525878906 243.2553100585938 C 85.42794036865234 244.5203094482422 87.14732360839844 246.2455291748047 88.40970611572266 248.2444915771484 L 88.83909606933594 248.9244232177734 L 89.59532165527344 248.6509246826172 C 111.8225555419922 240.6121520996094 132.7793579101562 229.5403747558594 151.8835906982422 215.7432250976562 C 170.9875183105469 201.9462280273438 188.1337890625 185.4998779296875 202.8460540771484 166.8609161376953 L 203.3185882568359 166.2622680664062 L 202.8662414550781 165.6482238769531 C 201.4857940673828 163.7743072509766 200.5157470703125 161.5422668457031 200.0610504150391 159.1933441162109 C 199.6065979003906 156.8457336425781 199.6729431152344 154.4132232666016 200.2528991699219 152.1587982177734 L 200.4532165527344 151.3802337646484 L 199.7358245849609 151.0173492431641 C 173.5310974121094 137.7613067626953 145.5398559570312 129.2273406982422 116.5397109985352 125.6524963378906 L 115.6090927124023 125.5378036499023 L 115.4347839355469 126.459114074707 C 114.7455520629883 130.1024627685547 112.7387084960938 133.4233093261719 109.7839431762695 135.8099517822266 C 106.8800201416016 138.1555023193359 103.2753982543945 139.4472198486328 99.63405609130859 139.4472198486328 C 98.08209228515625 139.4472198486328 96.54336547851562 139.212646484375 95.0606689453125 138.7499542236328 L 94.24332427978516 138.4949188232422 Z M 83.82759094238281 123.7611083984375 L 82.89032745361328 123.7715759277344 C 78.17643737792969 123.8241119384766 69.00001525878906 124.3490753173828 52.05313110351562 126.5514984130859 C 41.93290328979492 127.8666915893555 33.7152099609375 129.1767578125 33.63336181640625 129.1898345947266 L 32.79121017456055 129.324462890625 L 32.79121017456055 130.1773071289062 C 32.79121017456055 133.0871124267578 32.17094039916992 135.6990356445312 30.9476318359375 137.9404144287109 C 29.97017097473145 139.7314147949219 28.60290145874023 141.3006439208984 26.88382530212402 142.6045684814453 C 23.90982437133789 144.8603820800781 20.87417030334473 145.5516815185547 20.84382438659668 145.5583801269531 L 20.06020927429199 145.7320709228516 L 20.05855560302734 146.5350799560547 C 20.05855560302734 162.6907196044922 24.07067108154297 181.0678100585938 31.35586357116699 198.2810668945312 C 35.14063262939453 207.2236938476562 39.70820999145508 215.6444549560547 44.93170928955078 223.3094940185547 C 50.46393966674805 231.4275665283203 56.65701675415039 238.5788421630859 63.3389778137207 244.5647583007812 L 63.98936462402344 245.1474151611328 L 64.65436553955078 244.5814208984375 C 65.92147827148438 243.5029144287109 67.33536529541016 242.6345367431641 68.85671234130859 242.0003051757812 L 69.54347991943359 241.7140350341797 L 69.46659088134766 240.9739990234375 C 67.58882141113281 222.8971099853516 68.26416778564453 204.7309112548828 71.47382354736328 186.9799957275391 C 74.68332672119141 169.2299194335938 80.41163635253906 151.9795379638672 88.4996337890625 135.7079925537109 L 88.81313323974609 135.0773010253906 L 88.32490539550781 134.5696868896484 C 85.7509765625 131.8935394287109 84.17901611328125 128.3868865966797 83.89859771728516 124.6957626342773 L 83.82759094238281 123.7611083984375 Z M 253.4757537841797 82.54722595214844 L 253.2626647949219 83.26534271240234 C 246.9904327392578 104.4041519165039 238.0580596923828 124.6862258911133 226.7136688232422 143.5481567382812 L 226.3087921142578 144.2213745117188 L 226.8670196533203 144.7741546630859 C 231.1063690185547 148.9718780517578 232.6746368408203 155.3521881103516 230.8623962402344 161.0288391113281 L 230.6348571777344 161.7415313720703 L 231.2543182373047 162.1609954833984 C 244.7254791259766 171.2826538085938 257.4149169921875 181.7285766601562 268.9700317382812 193.2086181640625 L 270.0652160644531 194.2966918945312 L 270.6104125976562 192.8523406982422 C 273.9356079101562 184.0428466796875 276.2656860351562 174.7029571533203 277.5358581542969 165.0921936035156 C 278.7862548828125 155.6313018798828 279.0035095214844 145.9621887207031 278.181640625 136.3533477783203 C 277.3586730957031 126.7321472167969 275.4996643066406 117.2399597167969 272.6562194824219 108.1404571533203 C 269.7608337402344 98.87464904785156 265.8589477539062 90.06607055664062 261.0589294433594 81.95934295654297 L 260.6312866210938 81.23703765869141 L 259.8457946777344 81.53311157226562 C 258.0558166503906 82.20780181884766 256.1830139160156 82.54991912841797 254.2794036865234 82.54991912841797 L 254.2248229980469 82.5498046875 L 253.4757537841797 82.54722595214844 Z M 215.6847076416016 146.5428466796875 C 210.4177551269531 146.5428466796875 206.1327514648438 150.8559112548828 206.1327514648438 156.1573791503906 C 206.1327514648438 161.4588775634766 210.4177551269531 165.7719573974609 215.6847076416016 165.7719573974609 L 215.7054443359375 165.7719573974609 L 215.7261657714844 165.7711181640625 C 218.6379852294922 165.6502685546875 221.0887145996094 164.5574645996094 222.8133697509766 162.6108093261719 C 224.34716796875 160.8796081542969 225.1919403076172 158.5878753662109 225.1920928955078 156.1577606201172 C 225.1922454833984 153.7276916503906 224.3477478027344 151.4359588623047 222.8141784667969 149.7047271728516 C 221.0896301269531 147.7579956054688 218.6387023925781 146.6649627685547 215.7262878417969 146.5436859130859 L 215.7055206298828 146.5428466796875 L 215.6847076416016 146.5428466796875 Z M 139.8065948486328 80.00672912597656 L 139.2245483398438 80.50895690917969 C 128.7570495605469 89.54130554199219 119.2770919799805 99.78922271728516 111.0479431152344 110.9681091308594 L 110.5437088012695 111.6531143188477 L 111.1389007568359 112.2607269287109 C 112.8432846069336 114.0006484985352 114.1467514038086 116.1386489868164 114.9084014892578 118.4436492919922 L 115.1084365844727 119.0489959716797 L 115.7416305541992 119.1231079101562 C 146.1307830810547 122.6802673339844 175.4452514648438 131.5371856689453 202.8707885742188 145.4477996826172 L 203.5415191650391 145.7879943847656 L 204.054443359375 145.2379913330078 C 204.6599731445312 144.5887298583984 205.3207855224609 143.9875793457031 206.0184478759766 143.4513092041016 L 206.6562805175781 142.9609985351562 L 206.3139801025391 142.2330017089844 C 200.8014831542969 130.5079498291016 194.0102081298828 119.2906875610352 186.1288299560547 108.8928451538086 C 178.2465972900391 98.49384307861328 169.2967071533203 88.94438171386719 159.52783203125 80.50972747802734 L 158.9457550048828 80.00714874267578 L 158.3105926513672 80.44061279296875 C 155.6962280273438 82.22477722167969 152.6069488525391 83.16795349121094 149.3773803710938 83.16795349121094 C 149.3769836425781 83.16795349121094 149.3769836425781 83.16795349121094 149.3765869140625 83.16795349121094 C 146.1457824707031 83.16783905029297 143.0561370849609 82.22453308105469 140.4415893554688 80.44010925292969 L 139.8065948486328 80.00672912597656 Z M 215.6338653564453 140.1660766601562 C 217.1377105712891 140.1660766601562 218.6696319580078 140.3780364990234 220.0640563964844 140.7790679931641 L 220.801513671875 140.9911804199219 L 221.1972045898438 140.3337249755859 C 232.2369079589844 121.9918823242188 240.9385223388672 102.2746887207031 247.0603637695312 81.72995758056641 L 247.2900238037109 80.95930480957031 L 246.5865936279297 80.56961059570312 C 242.6660919189453 78.39791870117188 239.8319854736328 74.57238006591797 238.8109436035156 70.07399749755859 C 238.3204345703125 67.91299438476562 238.2696380615234 65.63687896728516 238.6640167236328 63.49172592163086 C 239.0800170898438 61.22880172729492 239.9624786376953 59.13787841796875 241.2867889404297 57.2771110534668 L 241.7739410400391 56.59260940551758 L 241.1836700439453 55.99468612670898 C 238.7070617675781 53.48611068725586 236.0957489013672 51.04803466796875 233.4223175048828 48.74818801879883 L 232.7673187255859 48.18468856811523 L 232.11474609375 48.75099563598633 C 230.7037506103516 49.97549438476562 229.0963592529297 50.91542053222656 227.3372039794922 51.5446891784668 C 225.65478515625 52.1464958190918 223.8738708496094 52.4516487121582 222.0439758300781 52.4516487121582 C 219.1679382324219 52.4516487121582 216.3364715576172 51.69803237915039 213.8556671142578 50.27226638793945 C 211.2828979492188 48.79360961914062 209.2187805175781 46.65249633789062 207.8865203857422 44.08037948608398 L 207.5059356689453 43.34564971923828 L 206.7129821777344 43.58195877075195 C 192.1490173339844 47.92180252075195 178.1749420166016 54.04826354980469 165.1789398193359 61.79118728637695 L 164.5231323242188 62.18191909790039 L 164.7271728515625 62.91753387451172 C 165.7927551269531 66.75968933105469 165.3585968017578 70.99064636230469 163.5360565185547 74.52557373046875 L 163.1751708984375 75.22549438476562 L 163.7709350585938 75.74041748046875 C 173.8952484130859 84.49111175537109 183.1670532226562 94.39865112304688 191.328857421875 105.1878051757812 C 199.4912872314453 115.9777679443359 206.5179443359375 127.6156463623047 212.2136688232422 139.7782592773438 L 212.5309753417969 140.4558410644531 L 213.2705993652344 140.3426513671875 C 214.0358581542969 140.2254943847656 214.8309783935547 140.1660766601562 215.6338653564453 140.1660766601562 Z M 16.85774803161621 120.4521102905273 C 11.59078693389893 120.4521102905273 7.305786609649658 124.7651901245117 7.305786609649658 130.066650390625 C 7.305786609649658 132.6297607421875 8.299555778503418 135.0422668457031 10.10397911071777 136.8597717285156 C 11.91036319732666 138.6791534423828 14.3089017868042 139.6809539794922 16.85786247253418 139.6806488037109 L 16.87855529785156 139.6806488037109 L 16.89920997619629 139.6798095703125 C 19.8110179901123 139.5589599609375 22.26174736022949 138.4661865234375 23.98640251159668 136.5196075439453 C 25.52021026611328 134.7884521484375 26.3649787902832 132.4968109130859 26.36517143249512 130.0667572021484 C 26.36532402038574 127.6367263793945 25.52082443237305 125.3450698852539 23.98720932006836 123.6139221191406 C 22.26267051696777 121.6672286987305 19.81174850463867 120.5742263793945 16.89932441711426 120.4529571533203 L 16.87855529785156 120.4521102905273 L 16.85774803161621 120.4521102905273 Z M 99.78240203857422 113.8540725708008 C 94.5157470703125 113.8540725708008 90.23051452636719 118.1671142578125 90.22986602783203 123.4685363769531 L 90.22986602783203 123.4891128540039 L 90.230712890625 123.509651184082 C 90.35089874267578 126.4386138916016 91.43502044677734 128.9042205810547 93.36582183837891 130.6399536132812 C 95.086669921875 132.1869506835938 97.36544036865234 133.0389251708984 99.78240203857422 133.0389251708984 C 102.198860168457 133.0389251708984 104.4773254394531 132.1869964599609 106.1980209350586 130.6400756835938 C 108.1286697387695 128.9043731689453 109.2128982543945 126.4387664794922 109.3335189819336 123.5098037719727 L 109.3343658447266 123.4892272949219 L 109.3343658447266 123.4686508178711 C 109.3343658447266 118.1671524047852 105.0493621826172 113.8540725708008 99.78240203857422 113.8540725708008 Z M 149.3766326904297 57.58638000488281 C 144.1096649169922 57.58638000488281 139.8246765136719 61.89945602416992 139.8246765136719 67.20095825195312 C 139.8246765136719 72.50215148925781 144.1096649169922 76.81495666503906 149.3766326904297 76.81495666503906 L 149.3973693847656 76.81495666503906 L 149.4180908203125 76.81410980224609 C 152.3300170898438 76.69326782226562 154.7808227539062 75.60049438476562 156.5055999755859 73.65391540527344 C 158.0394439697266 71.92280578613281 158.8842926025391 69.63111114501953 158.8844451904297 67.20107269287109 C 158.8845977783203 64.77103424072266 158.0400543212891 62.47934341430664 156.5063629150391 60.74818801879883 C 154.7817840576172 58.80153274536133 152.3307495117188 57.70849609375 149.418212890625 57.58726501464844 L 149.3974456787109 57.58638000488281 L 149.3766326904297 57.58638000488281 Z M 254.237548828125 56.93749618530273 L 254.2168273925781 56.9383430480957 C 251.3047790527344 57.05918884277344 248.8538970947266 58.15195846557617 247.1291351318359 60.09853363037109 C 245.5952453613281 61.82968902587891 244.7504425048828 64.12142181396484 244.750244140625 66.55149841308594 C 244.7500915527344 68.98165130615234 245.5946655273438 71.27342224121094 247.1284027099609 73.00468444824219 C 248.8530578613281 74.951416015625 251.3041381835938 76.04449462890625 254.2167053222656 76.16576385498047 L 254.2374725341797 76.16661071777344 L 254.2582855224609 76.16661071777344 C 259.5252990722656 76.16661071777344 263.8102722167969 71.85353088378906 263.8102722167969 66.55207061767578 C 263.8102722167969 61.25057220458984 259.5252990722656 56.93749618530273 254.2582855224609 56.93749618530273 L 254.237548828125 56.93749618530273 Z M 149.3763580322266 51.29661178588867 C 151.5028686523438 51.29661178588867 153.5664367675781 51.6988410949707 155.5097503662109 52.49211120605469 C 157.5240631103516 53.3143424987793 159.305908203125 54.51791763305664 160.8057098388672 56.06934356689453 L 161.355712890625 56.63830184936523 L 162.0358581542969 56.2337646484375 C 175.5682525634766 48.18534088134766 190.1094818115234 41.83257293701172 205.2556304931641 37.3519172668457 L 205.9681701660156 37.14110946655273 L 205.9719390869141 36.3980712890625 C 205.9796752929688 34.86611175537109 206.2049713134766 33.34903335571289 206.6415100097656 31.88895797729492 L 206.8825988769531 31.08272552490234 L 206.12939453125 30.70745658874512 C 197.4755096435547 26.39561080932617 188.1911010742188 23.08941841125488 178.5340118408203 20.88068771362305 C 169.0424346923828 18.70980262756348 159.2401733398438 17.60907173156738 149.3995208740234 17.60907173156738 C 128.7985534667969 17.60907173156738 108.5819778442383 22.4326114654541 90.93540191650391 31.55818748474121 L 90.23728942871094 31.91922569274902 L 90.423095703125 32.68288040161133 C 90.67586517333984 33.72161102294922 90.82451629638672 34.79518890380859 90.86493682861328 35.87376403808594 L 90.89213562011719 36.59934234619141 L 91.59047698974609 36.79811096191406 C 107.4357833862305 41.30803298950195 122.6188278198242 47.84692001342773 136.7179718017578 56.23318862915039 L 137.3980560302734 56.63772583007812 L 137.9480895996094 56.06880187988281 C 139.4483947753906 54.51703262329102 141.2301635742188 53.31345748901367 143.2439422607422 52.49149703979492 C 145.1864776611328 51.69865036010742 147.2497406005859 51.29661178588867 149.3763580322266 51.29661178588867 Z M 74.94401550292969 26.90899467468262 C 72.52751922607422 26.90899467468262 70.24909210205078 27.76087951660156 68.52848052978516 29.30772590637207 C 66.59786224365234 31.04334259033203 65.513671875 33.50891876220703 65.39305877685547 36.43788146972656 L 65.3922119140625 36.45845794677734 L 65.3922119140625 36.47903442382812 C 65.3922119140625 41.78053283691406 69.67720794677734 46.09361267089844 74.94416809082031 46.09361267089844 C 80.21144104003906 46.09361267089844 84.49671173095703 41.78053283691406 84.49671173095703 36.47903442382812 L 84.49671173095703 36.45853424072266 L 84.49586486816406 36.43803405761719 C 84.37567138671875 33.50918960571289 83.29151916503906 31.04364967346191 81.36067199707031 29.30791854858398 C 79.63974761962891 27.76095771789551 77.36097717285156 26.90899467468262 74.94401550292969 26.90899467468262 Z M 221.9054412841797 26.86503410339355 C 216.6384735107422 26.86503410339355 212.3534851074219 31.17811012268066 212.3534851074219 36.47961044311523 L 212.3534851074219 36.5001106262207 L 212.3543243408203 36.52061080932617 C 212.4745178222656 39.4495735168457 213.5586395263672 41.9151496887207 215.4893646240234 43.65084075927734 C 217.2101287841797 45.1977653503418 219.4889068603516 46.04968643188477 221.9058685302734 46.04968643188477 C 224.3223266601562 46.04968643188477 226.6007843017578 45.1977653503418 228.3215484619141 43.65084075927734 C 230.2522430419922 41.9151496887207 231.3364715576172 39.44961166381836 231.4570922851562 36.5207633972168 L 231.4579467773438 36.50018692016602 L 231.4579467773438 36.47961044311523 C 231.4579467773438 31.17811012268066 227.1727142333984 26.86503410339355 221.9054412841797 26.86503410339355 Z" stroke="none"/>
      <path d="M 149.3780975341797 282.8270874023438 C 171.3572082519531 282.8270874023438 192.8493194580078 277.5776062011719 211.5310211181641 267.6461486816406 L 212.8301391601562 266.9555358886719 L 213.8762054443359 267.9901123046875 C 216.8867492675781 270.967529296875 220.5203704833984 272.5414123535156 224.3850555419922 272.5416870117188 C 226.8667449951172 272.5416870117188 229.3715972900391 271.8821411132812 231.6287841796875 270.6343383789062 C 233.8647155761719 269.3983154296875 235.7735595703125 267.63525390625 237.1488952636719 265.535888671875 C 238.4632873535156 263.529541015625 239.2384338378906 261.3258056640625 239.4527435302734 258.9859619140625 C 239.6868286132812 256.4306030273438 239.2327423095703 253.8202667236328 238.1031341552734 251.2273406982422 L 237.5236663818359 249.8973083496094 L 238.6080932617188 248.9335784912109 C 246.0640563964844 242.3073425292969 252.790283203125 234.8538818359375 258.5999450683594 226.7801513671875 C 264.3528747558594 218.7853088378906 269.237548828125 210.1406860351562 273.1183166503906 201.0865020751953 L 273.1388244628906 201.0386810302734 L 273.1617736816406 200.9919891357422 C 273.2110290527344 200.8919219970703 273.2492370605469 200.8010406494141 273.2754516601562 200.7219543457031 L 273.3034362792969 200.6373748779297 L 273.3388671875 200.5556182861328 C 281.5395202636719 181.6284942626953 285.1365966796875 160.2387237548828 283.7412719726562 138.6986541748047 C 282.3428649902344 117.110954284668 275.9893188476562 96.3516845703125 265.367431640625 78.66503143310547 L 264.6343383789062 77.44430541992188 L 265.5479736328125 76.35211181640625 C 267.6073608398438 73.89022827148438 268.8169555664062 71.15903472900391 269.1431579589844 68.23442077636719 C 269.4384155273438 65.58749389648438 268.9767456054688 62.86637878417969 267.80810546875 60.36518859863281 C 266.6056823730469 57.79168701171875 264.7411804199219 55.59741973876953 262.4161682128906 54.01957321166992 C 260.0066833496094 52.38438034057617 257.2312622070312 51.52007293701172 254.3899383544922 51.52007293701172 C 252.1683197021484 51.52007293701172 249.9252471923828 52.04076385498047 247.7230987548828 53.06768798828125 L 246.4391784667969 53.6663818359375 L 245.4483642578125 52.65388107299805 C 242.5668640136719 49.70926666259766 239.5149383544922 46.8620719909668 236.3773193359375 44.19145584106445 L 235.3149719238281 43.28726577758789 L 235.7966003417969 41.97795867919922 C 237.5854339599609 37.11515045166016 237.0115509033203 32.20241928100586 234.1807098388672 28.14472579956055 C 231.3039398193359 24.02130317687988 226.4935607910156 21.45976448059082 221.6266784667969 21.45976448059082 C 217.8633270263672 21.45976448059082 214.3298950195312 22.96872711181641 211.4084014892578 25.82349586486816 L 210.3856353759766 26.82291793823242 L 209.109130859375 26.17834091186523 C 191.0384368896484 17.05345726013184 170.3874816894531 12.23030376434326 149.3887023925781 12.23030376434326 C 127.8787078857422 12.23030376434326 106.7824401855469 17.2736873626709 88.38063049316406 26.81522560119629 L 87.041015625 27.50984191894531 L 86.00540161132812 26.4123420715332 C 82.94024658203125 23.16407203674316 79.17913055419922 21.4471492767334 75.12874603271484 21.4471492767334 C 72.62236022949219 21.4471492767334 70.09332275390625 22.11807250976562 67.81509399414062 23.38741874694824 C 65.55551910400391 24.64634132385254 63.6363639831543 26.4382266998291 62.26517105102539 28.56926536560059 C 60.95786285400391 30.60099601745605 60.20186233520508 32.82853317260742 60.01813125610352 35.19007110595703 C 59.81690216064453 37.77614974975586 60.31993865966797 40.41618728637695 61.51328659057617 43.03684234619141 L 62.13009262084961 44.39145660400391 L 61.0096321105957 45.3712272644043 C 56.41397857666016 49.38980484008789 52.07428741455078 53.7274169921875 48.11113357543945 58.26353454589844 C 47.55266952514648 58.90268707275391 47.43848037719727 59.55961227416992 47.76197814941406 60.27184295654297 C 48.16878509521484 61.16741943359375 49.14805603027344 61.84280395507812 50.03982543945312 61.84280395507812 C 50.55471038818359 61.84280395507812 51.00366973876953 61.61541748046875 51.41244125366211 61.1475715637207 C 55.21174621582031 56.7995719909668 59.36848068237305 52.63976669311523 63.76709365844727 48.78368759155273 L 64.96424865722656 47.73418807983398 L 66.25547790527344 48.66553497314453 C 68.73090362548828 50.45095825195312 71.67882537841797 51.39468765258789 74.78063201904297 51.39468765258789 C 77.54317474365234 51.39468765258789 80.26043701171875 50.64911270141602 82.63863372802734 49.23860931396484 C 85.09320831298828 47.78276443481445 87.05405426025391 45.68191909790039 88.30913543701172 43.16315078735352 L 89.05194091796875 41.6724967956543 L 90.65244293212891 42.13318634033203 C 105.9105911254883 46.52522659301758 120.5240173339844 52.84972763061523 134.0867462158203 60.93103408813477 L 135.3982543945312 61.71245574951172 L 134.9902801513672 63.18361282348633 C 134.5036773681641 64.93837738037109 134.3477020263672 66.85610961914062 134.5392150878906 68.72945404052734 C 134.7309722900391 70.60488128662109 135.2726287841797 72.45034027099609 136.1055908203125 74.06642150878906 L 136.8272857666016 75.46653747558594 L 135.63525390625 76.49622344970703 C 124.6932067871094 85.94818878173828 114.8137893676758 96.67218780517578 106.2713623046875 108.3702621459961 L 105.4350967407227 109.515495300293 L 104.0776748657227 109.1053009033203 C 102.734245300293 108.6993789672852 101.3355941772461 108.4935302734375 99.92059326171875 108.4935302734375 C 97.08155822753906 108.4935302734375 94.28624725341797 109.3078002929688 91.83682250976562 110.8482666015625 C 89.35336303710938 112.4101867675781 87.4090576171875 114.6112289428711 86.21413421630859 117.2134170532227 L 85.68212890625 118.3719177246094 L 84.40732574462891 118.3787612915039 C 66.93190002441406 118.4725341796875 49.36440277099609 120.3604583740234 32.19278717041016 123.9901123046875 L 30.7258243560791 124.3001861572266 L 30.0168628692627 122.9790344238281 C 28.66259384155273 120.4553451538086 26.62713241577148 118.3787612915039 24.13047790527344 116.973762512207 L 22.79270935058594 116.2209548950195 L 23.17401695251465 114.7339935302734 C 26.48417091369629 101.8254165649414 31.73624801635742 89.53469085693359 38.78417205810547 78.20341491699219 C 39.20074844360352 77.5335693359375 39.23036193847656 76.89688110351562 38.87474822998047 76.2569580078125 C 38.43509292602539 75.46588134765625 37.49590301513672 74.89168548583984 36.64159393310547 74.89168548583984 C 35.99555587768555 74.89168548583984 35.47886276245117 75.21749877929688 35.06197738647461 75.88761138916016 C 27.79240226745605 87.57476806640625 22.37086296081543 100.2528381347656 18.94797897338867 113.5696105957031 L 18.56859397888184 115.0455703735352 L 17.04490280151367 115.0714569091797 C 12.8806324005127 115.1421508789062 9.260439872741699 116.5418014526367 6.575671195983887 119.1190719604492 C 4.160094261169434 121.4379959106445 2.582324981689453 124.6404190063477 2.133055686950684 128.1364593505859 C 1.682247996330261 131.6446533203125 2.401363372802734 135.1617279052734 4.158017158508301 138.0398406982422 C 6.103440284729004 141.2272644042969 9.234901428222656 143.5 13.21390151977539 144.6123046875 L 14.68628692626953 145.02392578125 L 14.67540168762207 146.5526885986328 C 14.6067476272583 156.1890716552734 15.5919017791748 165.8941040039062 17.60351753234863 175.3982696533203 C 19.5919017791748 184.7926177978516 22.58805656433105 194.0167999267578 26.50874710083008 202.8146057128906 C 30.4319019317627 211.6179504394531 35.28851699829102 220.0116882324219 40.94367218017578 227.7626495361328 C 46.67178726196289 235.6135711669922 53.23686218261719 242.8280792236328 60.45659255981445 249.2056884765625 L 61.48401641845703 250.1132965087891 L 61.00809478759766 251.3989562988281 C 59.21655654907227 256.2384338378906 59.77605438232422 261.1247253417969 62.58359527587891 265.1577758789062 C 65.43978881835938 269.2607116699219 70.24078369140625 271.8095397949219 75.11309051513672 271.8095397949219 C 78.67639923095703 271.8095397949219 82.07582855224609 270.46142578125 84.94378662109375 267.9109191894531 L 85.98343658447266 266.986328125 L 87.21186065673828 267.6395263671875 C 105.8971328735352 277.5753173828125 127.3938598632812 282.8270874023438 149.3780975341797 282.8270874023438 M 207.9539031982422 169.0800018310547 L 209.3892059326172 169.7531127929688 C 211.344482421875 170.6700286865234 213.5265197753906 171.1546936035156 215.6994781494141 171.1546936035156 C 215.9571380615234 171.1546936035156 216.2179718017578 171.1478424072266 216.4747924804688 171.1343841552734 L 218.0899047851562 171.0496826171875 L 218.5106658935547 172.6113433837891 C 220.3970184326172 179.6128082275391 221.8855590820312 186.7599182128906 222.9348602294922 193.8541107177734 C 223.0243988037109 194.4592590332031 223.2639770507812 194.9174194335938 223.64697265625 195.2159576416016 C 223.9983673095703 195.4898071289062 224.4815521240234 195.6406097412109 225.0075225830078 195.6406097412109 C 225.7482147216797 195.6406097412109 226.4664459228516 195.3415679931641 226.8818664550781 194.8602294921875 C 227.2457122802734 194.4386444091797 227.3732147216797 193.8998870849609 227.2716674804688 193.2131500244141 C 226.179443359375 185.8273010253906 224.6260528564453 178.3990783691406 222.6546783447266 171.134765625 L 222.2650604248047 169.6991119384766 L 223.5280151367188 168.9129943847656 C 224.4022064208984 168.3688812255859 225.2280578613281 167.7262573242188 225.9826354980469 167.0029602050781 L 227.1509857177734 165.8830718994141 L 228.4899444580078 166.7920684814453 C 242.5661315917969 176.3481140136719 255.7383575439453 187.3563385009766 267.6407470703125 199.5110015869141 L 268.5977783203125 200.4882965087891 L 268.0340270996094 201.7346038818359 C 264.3110656738281 209.9646453857422 259.7198486328125 217.8303070068359 254.3880157470703 225.1130676269531 C 249.0007934570312 232.4714965820312 242.8152923583984 239.2917633056641 236.0032501220703 245.3844604492188 L 234.7806396484375 246.4779510498047 L 233.4689788818359 245.4930267333984 C 232.2778625488281 244.5985717773438 230.961669921875 243.8893432617188 229.5569458007812 243.3849945068359 L 228.0787048339844 242.8543090820312 L 228.2438201904297 241.2923736572266 C 229.0602874755859 233.56884765625 229.4139404296875 225.762451171875 229.2949066162109 218.0899505615234 C 229.2642822265625 216.1156158447266 227.4723968505859 216.0156097412109 227.1135101318359 216.0156097412109 C 226.4517822265625 216.0156097412109 225.8235931396484 216.2523803710938 225.4331359863281 216.6490020751953 C 225.0772094726562 217.0105285644531 224.9018249511719 217.5179901123047 224.9118194580078 218.1575317382812 C 225.0289001464844 225.6926422119141 224.6799468994141 233.3562316894531 223.8746643066406 240.9354248046875 L 223.7128295898438 242.4587249755859 L 222.1999816894531 242.6993103027344 C 220.0953216552734 243.0339965820312 218.1270141601562 243.8158874511719 216.3497924804688 245.0233001708984 C 214.661865234375 246.1700286865234 213.1779022216797 247.7027282714844 212.0582885742188 249.4556121826172 C 209.7154083251953 253.1236877441406 209.0313262939453 257.5538330078125 210.1814422607422 261.610107421875 L 210.6262512207031 263.178955078125 L 209.1790924072266 263.9305725097656 C 200.027099609375 268.683837890625 190.2762145996094 272.3402709960938 180.1972808837891 274.7982177734375 C 170.1077117919922 277.2587890625 159.7381286621094 278.5064086914062 149.3766326904297 278.5064086914062 C 139.0990142822266 278.5064086914062 128.8107452392578 277.2788391113281 118.7975921630859 274.8577575683594 C 108.7945175170898 272.4391479492188 99.11112976074219 268.8404235839844 90.0164794921875 264.16162109375 L 88.47020721435547 263.3661193847656 L 89.04305267333984 261.7242736816406 C 89.68621063232422 259.8808898925781 89.97116851806641 257.782470703125 89.84540557861328 255.8155364990234 L 89.74951934814453 254.3159637451172 L 91.16313171386719 253.8064117431641 C 113.8905181884766 245.6142578125 135.3193969726562 234.3202209472656 154.8545532226562 220.2379913330078 C 174.3903656005859 206.1553039550781 191.9248657226562 189.3617248535156 206.970947265625 170.3237609863281 L 207.9539031982422 169.0800018310547 M 224.5450592041016 246.9410400390625 C 227.2092437744141 246.9410400390625 229.7254791259766 247.884033203125 231.6302032470703 249.5962677001953 C 233.7660522460938 251.5162963867188 234.9645538330078 254.2248382568359 235.0960540771484 257.4290771484375 L 235.0977478027344 257.5111083984375 C 235.0977478027344 263.3639831542969 230.3639068603516 268.1257019042969 224.5452117919922 268.1257019042969 C 218.7268218994141 268.1257019042969 213.9932098388672 263.3639831542969 213.9932098388672 257.5111083984375 L 213.9949035644531 257.4288024902344 C 214.1268615722656 254.2245025634766 215.3254089355469 251.5159912109375 217.4609375 249.5961151123047 C 219.3654327392578 247.8839569091797 221.8813323974609 246.9410400390625 224.5450592041016 246.9410400390625 M 74.94416809082031 246.167724609375 C 76.35671234130859 246.167724609375 77.73805236816406 246.4608001708984 79.04975128173828 247.0388488769531 C 80.29463195800781 247.5874176025391 81.41847991943359 248.3657989501953 82.39005279541016 249.3523406982422 C 83.35555267333984 250.3326873779297 84.11686706542969 251.4637298583984 84.65286254882812 252.7140655517578 C 85.21278381347656 254.0203094482422 85.49671173095703 255.3890686035156 85.49671173095703 256.7823181152344 C 85.49671173095703 262.6351928710938 80.76286315917969 267.3968505859375 74.94416809082031 267.3968505859375 C 69.12578582763672 267.3968505859375 64.3922119140625 262.6351928710938 64.3922119140625 256.7823181152344 C 64.3922119140625 250.9294128417969 69.12578582763672 246.167724609375 74.94416809082031 246.167724609375 M 93.72382354736328 137.2852630615234 L 95.3585205078125 137.7953491210938 C 96.7447509765625 138.2279205322266 98.18325042724609 138.4472198486328 99.63405609130859 138.4472198486328 C 103.0475158691406 138.4472198486328 106.4289779663086 137.2343444824219 109.1555938720703 135.0320281982422 C 111.9260177612305 132.7942962646484 113.8070526123047 129.6837310791016 114.4522094726562 126.2732238769531 L 114.8007888793945 124.4305725097656 L 116.6620559692383 124.6600341796875 C 145.7772064208984 128.2490386962891 173.8791351318359 136.8166809082031 200.1872100830078 150.125 L 201.6219787597656 150.8507690429688 L 201.2213592529297 152.407958984375 C 200.6781005859375 154.5196838378906 200.6163635253906 156.8003082275391 201.0428314208984 159.0032653808594 C 201.469482421875 161.2073059082031 202.3784027099609 163.3000030517578 203.6713562011719 165.0551147460938 L 204.5760498046875 166.2831878662109 L 203.6310119628906 167.4804992675781 C 188.8614044189453 186.1920776367188 171.6480102539062 202.7027587890625 152.4691009521484 216.5539245605469 C 133.2894744873047 230.4055328369141 112.250129699707 241.5209197998047 89.93540191650391 249.59130859375 L 88.42298126220703 250.1383056640625 L 87.564208984375 248.7784576416016 C 86.38017272949219 246.9035797119141 84.76770782470703 245.2855377197266 82.90113067626953 244.0992584228516 C 80.96620941162109 242.8695373535156 78.83367156982422 242.1210784912109 76.56275177001953 241.8745727539062 L 74.95332336425781 241.6999206542969 L 74.78890228271484 240.0893859863281 C 73.01432800292969 222.7079162597656 73.66863250732422 205.2384948730469 76.73359680175781 188.1664123535156 C 79.79828643798828 171.0960388183594 85.26036071777344 154.4941558837891 92.96809387207031 138.8219146728516 L 93.72382354736328 137.2852630615234 M 20.62878799438477 144.5817565917969 C 20.73789978027344 144.5563812255859 23.57745361328125 143.8778076171875 26.33763313293457 141.7635345458984 C 29.95636367797852 138.9916076660156 31.79121017456055 135.0934600830078 31.79121017456055 130.1773071289062 L 31.79121017456055 128.4716033935547 L 33.47551727294922 128.2023773193359 C 33.55747985839844 128.1892700195312 41.7896728515625 126.8768768310547 51.92424774169922 125.5598068237305 C 65.56871032714844 123.7866134643555 75.98348236083984 122.8485336303711 82.87917327880859 122.771614074707 L 84.75374603271484 122.7507247924805 L 84.89574432373047 124.6199951171875 C 85.15855407714844 128.0800323486328 86.63236236572266 131.3673858642578 89.04563140869141 133.8764495849609 L 90.02213287353516 134.8917236328125 L 89.39513397216797 136.1531066894531 C 81.34909057617188 152.3401489257812 75.65055847167969 169.5006866455078 72.45786285400391 187.157958984375 C 69.26497650146484 204.8160400390625 68.59320831298828 222.8876037597656 70.46125030517578 240.8706512451172 L 70.61498260498047 242.3507690429688 L 69.24147796630859 242.92333984375 C 67.81590270996094 243.5176086425781 66.49063110351562 244.3316802978516 65.30252075195312 245.3429565429688 L 63.97255706787109 246.4749145507812 L 62.67171096801758 245.3095703125 C 55.92967224121094 239.2698364257812 49.68301773071289 232.0574188232422 44.10536193847656 223.8726501464844 C 38.84474945068359 216.1531829833984 34.24536514282227 207.674072265625 30.43494033813477 198.6708374023438 C 23.09874725341797 181.3370666503906 19.05855560302734 162.8215789794922 19.05855560302734 146.5350799560547 L 19.0450553894043 144.9156951904297 L 20.62878799438477 144.5817565917969 M 252.7303619384766 81.54383850097656 L 254.2794036865234 81.54991912841797 C 256.0621032714844 81.54991912841797 257.8162231445312 81.22941589355469 259.4930419921875 80.59738159179688 L 261.0640563964844 80.00522613525391 L 261.91943359375 81.44988250732422 C 266.7587585449219 89.62303161621094 270.6922607421875 98.502685546875 273.6107177734375 107.8421859741211 C 276.4757385253906 117.0108413696289 278.348876953125 126.5747299194336 279.177978515625 136.2681121826172 C 280.0060119628906 145.9488830566406 279.787109375 155.6907653808594 278.5272521972656 165.2232208251953 C 277.2470092773438 174.9098052978516 274.8981628417969 184.3244171142578 271.5459899902344 193.2054595947266 L 270.4555969238281 196.0941467285156 L 268.2652587890625 193.9179992675781 C 256.7542114257812 182.4817962646484 244.1133270263672 172.0758056640625 230.6936645507812 162.9890289306641 L 229.4547119140625 162.1501159667969 L 229.9097442626953 160.7247314453125 C 231.6088256835938 155.4026184082031 230.1382904052734 149.4205780029297 226.1634063720703 145.4847717285156 L 225.0469360351562 144.3792266845703 L 225.8567504882812 143.0327606201172 C 237.1576385498047 124.2431488037109 246.0557556152344 104.0388031005859 252.3039855957031 82.98088073730469 L 252.7303619384766 81.54383850097656 M 215.6847076416016 145.5428466796875 L 215.7678985595703 145.5445709228516 C 218.9582824707031 145.6773834228516 221.6536712646484 146.8866424560547 223.5627136230469 149.0416564941406 C 225.2584838867188 150.9559173583984 226.1922912597656 153.483154296875 226.1920928955078 156.1578369140625 C 226.1919403076172 158.8324890136719 225.2578277587891 161.3596954345703 223.5618591308594 163.2739562988281 C 221.6526641845703 165.4288787841797 218.9574737548828 166.6378784179688 215.7676391601562 166.7702331542969 L 215.6847076416016 166.7719573974609 C 209.8663177490234 166.7719573974609 205.1327514648438 162.0102691650391 205.1327514648438 156.1573791503906 C 205.1327514648438 150.3044891357422 209.8663177490234 145.5428466796875 215.6847076416016 145.5428466796875 M 139.7353668212891 78.74738311767578 L 141.0053253173828 79.61415100097656 C 143.4530487060547 81.28476715087891 146.3477935791016 82.16783905029297 149.3773651123047 82.16795349121094 C 152.4050903320312 82.16795349121094 155.2992553710938 81.2850341796875 157.7469024658203 79.61464691162109 L 159.0172424316406 78.74768829345703 L 160.1813201904297 79.75279998779297 C 170.003173828125 88.23314666748047 179.0012817382812 97.83403778076172 186.9257507324219 108.2887649536133 C 194.8492126464844 118.7421493530273 201.6768188476562 130.0194549560547 207.2189788818359 141.8074951171875 L 207.9035186767578 143.2635650634766 L 206.6278991699219 144.2441101074219 C 205.9736785888672 144.7469940185547 205.3538970947266 145.3108825683594 204.7857513427734 145.9200286865234 L 203.7598571777344 147.0200347900391 L 202.4184417724609 146.3396453857422 C 175.0984039306641 132.4825286865234 145.8970184326172 123.6597290039062 115.6253662109375 120.1163024902344 L 114.3589401245117 119.9680709838867 L 113.9589004516602 118.7573776245117 C 113.2448654174805 116.5964965820312 112.0227127075195 114.5919952392578 110.4245529174805 112.9604949951172 L 109.234130859375 111.7452621459961 L 110.2426300048828 110.3753051757812 C 118.5160522460938 99.13622283935547 128.0471649169922 88.83299255371094 138.5712890625 79.75187683105469 L 139.7353668212891 78.74738311767578 M 215.6338653564453 141.1660766601562 C 214.881591796875 141.1660766601562 214.1374053955078 141.2216033935547 213.4219055175781 141.3311157226562 L 211.9427032470703 141.5575408935547 L 211.3080596923828 140.2023468017578 C 205.6419372558594 128.1029968261719 198.6516265869141 116.5253829956055 190.5313568115234 105.7911071777344 C 182.4118194580078 95.05783843994141 173.1882934570312 85.20188140869141 163.1170196533203 76.49695587158203 L 161.9255218505859 75.46710968017578 L 162.647216796875 74.06730651855469 C 163.4812469482422 72.44968414306641 164.0234832763672 70.6046142578125 164.21533203125 68.73149871826172 C 164.4070129394531 66.85972595214844 164.2507934570312 64.94172668457031 163.7635192871094 63.18476486206055 L 163.3555145263672 61.71353530883789 L 164.6671295166016 60.93210983276367 C 177.7340545654297 53.14688110351562 191.7842407226562 46.98703384399414 206.4273986816406 42.62357330322266 L 208.0133666992188 42.15099716186523 L 208.7744750976562 43.62045669555664 C 210.0183563232422 46.02199554443359 211.94775390625 48.02234268188477 214.3539428710938 49.40522766113281 C 216.6833648681641 50.74399566650391 219.3425598144531 51.4516487121582 222.0439758300781 51.4516487121582 C 223.7587432861328 51.4516487121582 225.4263305664062 51.1661491394043 227.0003967285156 50.60311126708984 C 228.6422119140625 50.01580429077148 230.1423950195312 49.13857269287109 231.4593200683594 47.9957275390625 L 232.7644348144531 46.8631477355957 L 234.0744781494141 47.99007415771484 C 236.7684020996094 50.30753326416016 239.3997039794922 52.76430511474609 241.8953247070312 55.29214859008789 L 243.0758666992188 56.48791885375977 L 242.1015167236328 57.85695648193359 C 240.862548828125 59.59776306152344 240.0369415283203 61.55442047119141 239.6475219726562 63.67253494262695 C 239.2774353027344 65.68556976318359 239.3253631591797 67.82260894775391 239.7861328125 69.85264587402344 C 240.7442169189453 74.0736083984375 243.3994750976562 77.66099548339844 247.0711364746094 79.69487762451172 L 248.4780120849609 80.47418975830078 L 248.0187530517578 82.01553344726562 C 241.8728637695312 102.6408767700195 233.1370544433594 122.4354553222656 222.0540161132812 140.8494262695312 L 221.2625579833984 142.164306640625 L 219.7876281738281 141.7401123046875 C 218.4818572998047 141.3645782470703 217.0455169677734 141.1660766601562 215.6338653564453 141.1660766601562 M 16.85774803161621 119.4521102905273 L 16.94094085693359 119.4538421630859 C 20.13132476806641 119.5866470336914 22.82670974731445 120.7958831787109 24.73571014404297 122.9508056640625 C 26.43151664733887 124.8650360107422 27.36532402038574 127.3922271728516 27.36517143249512 130.0668487548828 C 27.3649787902832 132.7414245605469 26.43086433410645 135.2685699462891 24.73490142822266 137.1827697753906 C 22.82571029663086 139.3376159667969 20.13051795959473 140.5465698242188 16.94067192077637 140.6789245605469 L 16.85797882080078 140.6806488037109 C 14.04051685333252 140.6809997558594 11.38990211486816 139.5742645263672 9.394363403320312 137.5643005371094 C 7.402671337127686 135.5582580566406 6.305786609649658 132.8955383300781 6.305786609649658 130.066650390625 C 6.305786609649658 124.2137680053711 11.03936386108398 119.4521102905273 16.85774803161621 119.4521102905273 M 99.78240203857422 112.8540725708008 C 105.6007843017578 112.8540725708008 110.3343658447266 117.6157684326172 110.3343658447266 123.4686508178711 L 110.3326721191406 123.5509185791016 C 110.2007064819336 126.7552642822266 109.0021743774414 129.4638061523438 106.8665924072266 131.3837280273438 C 104.9620208740234 133.0959625244141 102.4461288452148 134.0389251708984 99.78240203857422 134.0389251708984 C 97.11820983886719 134.0389251708984 94.60198211669922 133.0959167480469 92.69728851318359 131.3836517333984 C 90.56151580810547 129.4636535644531 89.36305236816406 126.7550354003906 89.23155212402344 123.550651550293 L 89.22986602783203 123.4684219360352 C 89.23055267333984 117.6156463623047 93.96443939208984 112.8540725708008 99.78240203857422 112.8540725708008 M 149.3766326904297 56.58638000488281 L 149.4598236083984 56.58811187744141 C 152.6503295898438 56.72092056274414 155.3457794189453 57.93014907836914 157.2548980712891 60.0850715637207 C 158.9507446289062 61.99930191040039 159.8846282958984 64.52653503417969 159.8844451904297 67.20114898681641 C 159.8842468261719 69.87576293945312 158.9500885009766 72.40291595458984 157.2540588378906 74.31710815429688 C 155.3447875976562 76.47191619873047 152.6494750976562 77.68087768554688 149.4595489501953 77.81322479248047 L 149.3766326904297 77.81495666503906 C 143.5582427978516 77.81495666503906 138.8246765136719 73.05353546142578 138.8246765136719 67.20095825195312 C 138.8246765136719 61.34807205200195 143.5582427978516 56.58638000488281 149.3766326904297 56.58638000488281 M 254.2168273925781 55.93749618530273 L 254.2582855224609 55.93749618530273 C 260.07666015625 55.93749618530273 264.8102722167969 60.69918823242188 264.8102722167969 66.55207061767578 C 264.8102722167969 72.40496063232422 260.07666015625 77.16661071777344 254.2582855224609 77.16661071777344 L 254.1750946044922 77.16487884521484 C 250.9845581054688 77.03207397460938 248.2890167236328 75.82279968261719 246.3798980712891 73.66780090332031 C 244.6839752197266 71.75345611572266 243.7500915527344 69.22615051269531 243.750244140625 66.55142211914062 C 243.7504425048828 63.87676620483398 244.6846008300781 61.34957122802734 246.3806762695312 59.43537902832031 C 248.2899780273438 57.28053283691406 250.9853210449219 56.07157135009766 254.1753692626953 55.93922805786133 L 254.2168273925781 55.93749618530273 M 149.3763580322266 52.29661178588867 C 147.3799438476562 52.29661178588867 145.4438323974609 52.67368698120117 143.6218566894531 53.41734313964844 C 141.7373199462891 54.1865348815918 140.0702819824219 55.31249618530273 138.6670227050781 56.76388168334961 L 137.5669860839844 57.90168762207031 L 136.2067413330078 57.09264755249023 C 122.1819763183594 48.7506103515625 107.0788269042969 42.24615097045898 91.31674957275391 37.75991821289062 L 89.92005920410156 37.36238098144531 L 89.86563110351562 35.91122817993164 C 89.82775115966797 34.89957427978516 89.68836212158203 33.8929557800293 89.45143890380859 32.91934204101562 L 89.07978820800781 31.39199638366699 L 90.47605895996094 30.66995620727539 C 108.2640151977539 21.47122573852539 128.639404296875 16.60907173156738 149.3995208740234 16.60907173156738 C 159.3150939941406 16.60907173156738 169.1923980712891 17.71826553344727 178.7570190429688 19.90584182739258 C 188.4912109375 22.13222694396973 197.8506317138672 25.46526527404785 206.5753631591797 29.81237983703613 L 208.0817413330078 30.56295776367188 L 207.5996398925781 32.17541885375977 C 207.1903686523438 33.54415130615234 206.9791717529297 34.96653366088867 206.9719085693359 36.40311050415039 L 206.9644012451172 37.88926315307617 L 205.5392913818359 38.31084060668945 C 190.4727478027344 42.76791763305664 176.008056640625 49.08726501464844 162.5470123291016 57.09326553344727 L 161.1867523193359 57.90226364135742 L 160.0867462158203 56.76438140869141 C 158.6839752197266 55.3133430480957 157.0169067382812 54.18741989135742 155.1318206787109 53.4179573059082 C 153.3090515136719 52.67388153076172 151.3726348876953 52.29661178588867 149.3763580322266 52.29661178588867 M 74.94401550292969 25.90899467468262 C 77.60820770263672 25.90899467468262 80.12440490722656 26.85199546813965 82.0291748046875 28.5642261505127 C 84.16501617431641 30.48422622680664 85.36351776123047 33.19276428222656 85.49501800537109 36.39699554443359 L 85.49671173095703 36.47903442382812 C 85.49671173095703 42.33191680908203 80.76286315917969 47.09361267089844 74.94416809082031 47.09361267089844 C 69.12578582763672 47.09361267089844 64.3922119140625 42.33191680908203 64.3922119140625 36.47903442382812 L 64.39390563964844 36.39676666259766 C 64.52586364746094 33.19241714477539 65.724365234375 30.48391914367676 67.85993957519531 28.56407165527344 C 69.76444244384766 26.85191917419434 72.28028869628906 25.90899467468262 74.94401550292969 25.90899467468262 M 221.9054412841797 25.86503410339355 C 227.7240905761719 25.86503410339355 232.4579467773438 30.6267261505127 232.4579467773438 36.47961044311523 L 232.4562530517578 36.56188201904297 C 232.3242797851562 39.76610946655273 231.1257171630859 42.474609375 228.9900970458984 44.39449691772461 C 227.0854797363281 46.10672760009766 224.5695953369141 47.04968643188477 221.9058685302734 47.04968643188477 C 219.2416687011719 47.04968643188477 216.7254791259766 46.10672760009766 214.8208312988281 44.39453506469727 C 212.6850891113281 42.47457122802734 211.4866638183594 39.76599502563477 211.3551635742188 36.56161117553711 L 211.3534851074219 36.47961044311523 C 211.3534851074219 30.6267261505127 216.0870513916016 25.86503410339355 221.9054412841797 25.86503410339355 M 149.3780975341797 284.8270874023438 C 127.4952926635742 284.8270874023438 105.6051940917969 279.6852722167969 86.27286529541016 269.4054260253906 C 73.02436828613281 281.1873779296875 52.94863891601562 267.4089660644531 59.13248062133789 250.7046051025391 C 29.48874855041504 224.5183410644531 12.39374828338623 186.0772247314453 12.67544078826904 146.5384521484375 C -6.442252159118652 141.1941070556641 -3.070905923843384 113.4126510620117 17.01094055175781 113.0717239379883 C 20.48294067382812 99.5638427734375 25.97259330749512 86.71380615234375 33.36370849609375 74.83126831054688 C 36.26055526733398 70.17436981201172 43.25259780883789 74.80499267578125 40.48259353637695 79.25957489013672 C 33.53082656860352 90.43618774414062 28.36978721618652 102.5238418579102 25.11132431030273 115.2308044433594 C 27.92601776123047 116.8147659301758 30.24774742126465 119.1795349121094 31.77917098999023 122.0333404541016 C 49.1223258972168 118.3674163818359 66.786865234375 116.4732666015625 84.39659118652344 116.3788070678711 C 87.869140625 108.8166961669922 96.67094421386719 104.7779693603516 104.6561737060547 107.190803527832 C 113.3059387207031 95.34568786621094 123.2669372558594 84.53737640380859 134.3278656005859 74.98272705078125 C 132.3973693847656 71.23741912841797 131.9379425048828 66.70630645751953 133.0630187988281 62.64915084838867 C 119.6239013671875 54.64153289794922 105.2016677856445 48.40238189697266 90.09921264648438 44.05514907836914 C 85.5228271484375 53.23922348022461 73.42732238769531 56.30435180664062 65.08551788330078 50.2876091003418 C 60.77182388305664 54.0692253112793 56.68782424926758 58.14987945556641 52.91847991943359 62.46357345581055 C 49.44425582885742 66.43972778320312 43.10670471191406 60.95173263549805 46.60498046875 56.94765090942383 C 50.65655517578125 52.31034088134766 55.05074691772461 47.92507171630859 59.69309234619141 43.86565017700195 C 51.58713531494141 26.0641918182373 74.07173919677734 10.85164642333984 87.46001434326172 25.03972625732422 C 106.4960861206055 15.16930484771729 127.93994140625 10.23030471801758 149.3887176513672 10.23030471801758 C 170.3457183837891 10.23030471801758 191.3076782226562 14.94889736175537 210.0106353759766 24.39303398132324 C 223.0310516357422 11.66986656188965 243.9379425048828 25.63942527770996 237.6736297607422 42.66845703125 C 240.8649749755859 45.38480377197266 243.9446258544922 48.25761032104492 246.8778228759766 51.25507354736328 C 263.5692443847656 43.47161865234375 278.8326721191406 63.58811569213867 267.08203125 77.63534545898438 C 289.0926818847656 114.2856903076172 292.1209106445312 162.2372589111328 275.1740112304688 201.3507232666016 C 275.1147766113281 201.5295715332031 275.0404052734375 201.7039642333984 274.9566040039062 201.8744201660156 L 274.9566345214844 201.8744201660156 C 267.0832214355469 220.2437286376953 255.214599609375 236.8507995605469 239.9366760253906 250.4285278320312 C 247.5267486572266 267.8504943847656 225.94482421875 282.7389526367188 212.4698181152344 269.412109375 C 193.1363830566406 279.6900024414062 171.2608947753906 284.8270874023438 149.3780975341797 284.8270874023438 Z M 208.5400543212891 171.5638732910156 C 178.0758209228516 210.1105651855469 137.8612823486328 239.0998840332031 91.84132385253906 255.6879119873047 C 91.98328399658203 257.907958984375 91.66132354736328 260.2911376953125 90.93140411376953 262.3831481933594 C 108.9128265380859 271.6338500976562 129.0315246582031 276.5064086914062 149.3766326904297 276.5064086914062 C 169.8882446289062 276.5064086914062 190.1629333496094 271.5533447265625 208.2572937011719 262.1557006835938 C 205.5331268310547 252.5479125976562 211.9992065429688 242.2963104248047 221.8858642578125 240.7241058349609 C 222.6817932128906 233.2329559326172 223.0282897949219 225.6691436767578 222.9120483398438 218.1886138916016 C 222.8265228271484 212.7112426757812 231.209716796875 212.5826873779297 231.294677734375 218.0589599609375 C 231.4154052734375 225.84130859375 231.0565490722656 233.7097320556641 230.2327423095703 241.5026550292969 C 231.8362426757812 242.0783386230469 233.3302154541016 242.8876953125 234.6699371337891 243.8937225341797 C 248.2197418212891 231.7747192382812 258.8844299316406 217.1082305908203 266.2117919921875 200.9103088378906 C 254.3968963623047 188.8450012207031 241.3551635742188 177.9433441162109 227.3665924072266 168.4468078613281 C 226.5181732177734 169.2600402832031 225.5870208740234 169.9871826171875 224.5848693847656 170.6109619140625 C 226.5751647949219 177.9449920654297 228.1429443359375 185.4333801269531 229.2501678466797 192.9205780029297 C 230.0511016845703 198.3387298583984 221.7550506591797 199.5448303222656 220.9564056396484 194.1468353271484 C 219.9134368896484 187.0955657958984 218.4418182373047 180.0437622070312 216.5795135498047 173.1316528320312 C 213.8201446533203 173.2762451171875 211.0429077148438 172.7376251220703 208.5400543212891 171.5638732910156 Z M 224.5450592041016 248.9410400390625 C 220.3868713378906 248.9410400390625 216.2285003662109 251.7974395751953 215.9932098388672 257.5111083984375 C 215.9932098388672 262.2613525390625 219.8296356201172 266.1257019042969 224.5452117919922 266.1257019042969 C 229.2613220214844 266.1257019042969 233.0977478027344 262.2613525390625 233.0977478027344 257.5111083984375 C 232.8632507324219 251.7980041503906 228.7042541503906 248.9410400390625 224.5450592041016 248.9410400390625 Z M 74.94416809082031 248.167724609375 C 70.22859191894531 248.167724609375 66.3922119140625 252.0320739746094 66.3922119140625 256.7823181152344 C 66.3922119140625 261.5325012207031 70.22859191894531 265.3968505859375 74.94416809082031 265.3968505859375 C 79.65974426269531 265.3968505859375 83.49671173095703 261.5325012207031 83.49671173095703 256.7823181152344 C 83.49671173095703 252.1974945068359 79.59659576416016 248.167724609375 74.94416809082031 248.167724609375 Z M 94.76278686523438 139.7045745849609 C 79.44124603271484 170.8580017089844 73.25067138671875 205.331298828125 76.77855682373047 239.8862609863281 C 82.02620697021484 240.455810546875 86.55959320068359 243.4421081542969 89.25521087646484 247.7105407714844 C 133.7426300048828 231.6210784912109 172.6135559082031 203.5483856201172 202.0611267089844 166.2413482666016 C 199.0681762695312 162.1785736083984 198.0280151367188 156.79345703125 199.2844390869141 151.9096527099609 C 173.1596374511719 138.6940765380859 145.3217163085938 130.2080383300781 116.417366027832 126.6449966430664 C 114.5690536499023 136.4153900146484 104.2810516357422 142.6746368408203 94.76278686523438 139.7045745849609 Z M 82.90148162841797 124.7714920043945 C 66.46321105957031 124.9548034667969 33.79121017456055 130.1773071289062 33.79121017456055 130.1773071289062 C 33.79121017456055 143.7583770751953 21.05855560302734 146.5350799560547 21.05855560302734 146.5350799560547 L 21.05855560302734 146.5351104736328 C 21.05855560302734 178.2714233398438 36.65790176391602 219.3204193115234 64.00621032714844 243.8199157714844 C 65.33528900146484 242.6886901855469 66.83878326416016 241.7581176757812 68.47193908691406 241.0773010253906 C 64.67913055419922 204.564453125 71.26821136474609 168.127685546875 87.60417175292969 135.2628784179688 C 84.94429016113281 132.4973754882812 83.20997619628906 128.8325653076172 82.90148162841797 124.7714920043945 Z M 254.2213592529297 83.5498046875 C 247.9212799072266 104.7824554443359 238.9713592529297 125.1079559326172 227.5706329345703 144.0635681152344 C 232.0670928955078 148.5158843994141 233.740478515625 155.3016815185547 231.8150177001953 161.3329620361328 C 245.3726348876953 170.5131530761719 258.0711975097656 180.9709930419922 269.6748352050781 192.4991912841797 C 283.033447265625 157.1081085205078 279.5028381347656 115.0720748901367 260.198486328125 82.46884155273438 C 258.3389282226562 83.16976165771484 256.3204650878906 83.55677032470703 254.2213592529297 83.5498046875 Z M 215.6847076416016 147.5428466796875 C 210.9691314697266 147.5428466796875 207.1327514648438 151.4071502685547 207.1327514648438 156.1573791503906 C 207.1327514648438 160.9076080322266 210.9691314697266 164.7719573974609 215.6847076416016 164.7719573974609 C 227.0262145996094 164.3013458251953 227.0295867919922 148.0151062011719 215.6847076416016 147.5428466796875 Z M 139.8778686523438 81.26607513427734 C 129.4501647949219 90.26403045654297 120.0469818115234 100.4301910400391 111.8532867431641 111.5609588623047 C 113.6496353149414 113.3947677612305 115.0334777832031 115.6349182128906 115.8579025268555 118.1298828125 C 146.3880920410156 121.7035751342773 175.7803649902344 130.5858764648438 203.3231353759766 144.5559539794922 C 203.9647827148438 143.8679504394531 204.6622924804688 143.2324523925781 205.4090118408203 142.6584625244141 C 194.3922424316406 119.225959777832 178.3983306884766 98.12406921386719 158.8742828369141 81.26660919189453 C 153.2051544189453 85.13546752929688 145.5463256835938 85.13486480712891 139.8778686523438 81.26607513427734 Z M 215.6338806152344 139.1660766601562 C 217.2287445068359 139.1660766601562 218.8385314941406 139.3860931396484 220.3404388427734 139.8180389404297 C 231.3472137451172 121.5308837890625 239.9992065429688 101.9252624511719 246.1020202636719 81.44438171386719 C 237.3672790527344 76.60584259033203 234.6783599853516 64.83788299560547 240.4720611572266 56.697265625 L 240.4720153808594 56.697265625 C 238.0049743652344 54.19834136962891 235.4300537109375 51.79445648193359 232.7701721191406 49.50626373291016 C 224.7447204589844 56.47088241577148 211.8175659179688 53.84399795532227 206.9985504150391 44.54030227661133 C 192.4997406005859 48.86072540283203 178.6347503662109 54.9383430480957 165.6907806396484 62.65026473999023 C 166.8175506591797 66.71303558349609 166.3570098876953 71.23634338378906 164.4248657226562 74.98384094238281 C 184.8744354248047 92.65899658203125 201.6145172119141 114.7870330810547 213.1192932128906 139.3541564941406 C 213.9409332275391 139.2283630371094 214.7852935791016 139.1660766601562 215.6338806152344 139.1660766601562 Z M 16.85774803161621 121.4521102905273 C 12.14217090606689 121.4521102905273 8.3057861328125 125.3164215087891 8.3057861328125 130.066650390625 C 8.3057861328125 134.8168792724609 12.14274787902832 138.6812286376953 16.85774803161621 138.6806488037109 C 28.19928741455078 138.2100372314453 28.20263290405273 121.9243774414062 16.85774803161621 121.4521102905273 Z M 99.78240203857422 114.8540725708008 C 95.06682586669922 114.8540725708008 91.23043823242188 118.7184219360352 91.22986602783203 123.4686508178711 C 91.69879150390625 134.8939819335938 107.8637466430664 134.8973541259766 108.3343658447266 123.4686508178711 C 108.3343658447266 118.7184219360352 104.4979400634766 114.8540725708008 99.78240203857422 114.8540725708008 Z M 149.3766326904297 58.58638000488281 C 144.6610565185547 58.58638000488281 140.8246765136719 62.45072555541992 140.8246765136719 67.20095825195312 C 140.8246765136719 71.95060729980469 144.6610565185547 75.81495666503906 149.3766326904297 75.81495666503906 C 160.7187042236328 75.34434509277344 160.7220611572266 59.05868911743164 149.3766326904297 58.58638000488281 Z M 254.2582855224609 57.93749618530273 C 242.9156341552734 58.40811157226562 242.9128570556641 74.69434356689453 254.2582855224609 75.16661071777344 C 258.9738159179688 75.16661071777344 262.8102722167969 71.30229949951172 262.8102722167969 66.55207061767578 C 262.8102722167969 61.80184173583984 258.973876953125 57.93749618530273 254.2582855224609 57.93749618530273 Z M 149.3763732910156 50.29661560058594 C 153.8140258789062 50.29661560058594 158.2527618408203 51.98978424072266 161.5246734619141 55.37430191040039 C 175.1387023925781 47.27730178833008 189.7213592529297 40.90453338623047 204.9719390869141 36.39299392700195 C 204.9803619384766 34.72907257080078 205.2290496826172 33.12218856811523 205.6834411621094 31.60249519348145 C 188.2878875732422 22.93509674072266 168.8473205566406 18.60907173156738 149.3995208740234 18.60907173156738 C 129.3147125244141 18.60907173156738 109.2226333618164 23.22710418701172 91.39474487304688 32.44645690917969 C 91.66078948974609 33.53972625732422 91.82063293457031 34.67261123657227 91.86425018310547 35.8363037109375 C 107.8134384155273 40.37580490112305 123.0422058105469 46.93522644042969 137.2291717529297 55.37372589111328 C 140.502197265625 51.98838043212891 144.9387359619141 50.29661560058594 149.3763732910156 50.29661560058594 Z M 74.94402313232422 27.90898513793945 C 70.78585052490234 27.90898513793945 66.62748718261719 30.76538467407227 66.3922119140625 36.47903442382812 C 66.3922119140625 41.22926330566406 70.22859191894531 45.09361267089844 74.94416809082031 45.09361267089844 C 79.65974426269531 45.09361267089844 83.49671173095703 41.22926330566406 83.49671173095703 36.47903442382812 C 83.26222229003906 30.76595306396484 79.10321044921875 27.90898513793945 74.94402313232422 27.90898513793945 Z M 221.9054412841797 27.86503410339355 C 217.1898651123047 27.86503410339355 213.3534851074219 31.72937965393066 213.3534851074219 36.47961044311523 C 213.8224029541016 47.90497589111328 229.9873962402344 47.90775299072266 230.4579467773438 36.47961044311523 C 230.4579467773438 31.72937965393066 226.6215515136719 27.86503410339355 221.9054412841797 27.86503410339355 Z" stroke="none" fill="#101010"/>
    </g>
  </g>
</svg>
