<svg xmlns="http://www.w3.org/2000/svg" xmlns:xlink="http://www.w3.org/1999/xlink" width="300.069" height="200" viewBox="0 0 346.407 308.86">
  <defs>
    <linearGradient id="linear-gradient" x1="0.1" y1="-0.078" x2="0.5" y2="1" gradientUnits="objectBoundingBox">
      <stop offset="0" stop-color="#d18b68"/>
      <stop offset="1" stop-color="#9d6447"/>
    </linearGradient>
    <linearGradient id="linear-gradient-2" x1="0.5" x2="0.5" y2="1" gradientUnits="objectBoundingBox">
      <stop offset="0" stop-color="#e49c79"/>
      <stop offset="1" stop-color="#f0737f"/>
    </linearGradient>
  </defs>
  <g id="Group_541" data-name="Group 541" transform="translate(-584.306 -1125.06)">
    <path id="Polygon_31" data-name="Polygon 31" d="M25.811,9.117a6,6,0,0,1,10.419,0L56.91,45.308A6,6,0,0,1,51.7,54.285H10.339A6,6,0,0,1,5.13,45.308Z" transform="translate(848.404 1212.861) rotate(-38)" fill="url(#linear-gradient)"/>
    <g id="wireframe" transform="matrix(0.978, 0.208, -0.208, 0.978, 802.983, 1304.117)">
      <path id="Path_126" data-name="Path 126" d="M60.253,116.618a9.729,9.729,0,0,0,9.718-9.718V9.718A9.729,9.729,0,0,0,60.253,0H9.718A9.729,9.729,0,0,0,0,9.718V106.9a9.729,9.729,0,0,0,9.718,9.718ZM3.887,19.436h62.2V97.182H3.887ZM9.718,3.887H60.253a5.831,5.831,0,0,1,5.83,5.831v5.83H3.887V9.718A5.831,5.831,0,0,1,9.718,3.887ZM3.887,106.9v-5.83h62.2v5.83a5.831,5.831,0,0,1-5.83,5.831H9.718A5.831,5.831,0,0,1,3.887,106.9Zm0,0" transform="translate(0 0)" stroke="#101010" stroke-width="2" fill="url(#linear-gradient-2)"/>
      <path id="Path_127" data-name="Path 127" d="M1.943,3.887H3.887A1.944,1.944,0,1,0,3.887,0H1.943a1.944,1.944,0,0,0,0,3.887Zm0,0" transform="translate(25.267 7.774)" stroke="#101010" stroke-width="2" fill="url(#linear-gradient-2)"/>
      <path id="Path_128" data-name="Path 128" d="M1.943,3.887H7.774A1.944,1.944,0,0,0,7.774,0H1.943a1.944,1.944,0,0,0,0,3.887Zm0,0" transform="translate(34.986 7.774)" stroke="#101010" stroke-width="2" fill="url(#linear-gradient-2)"/>
      <path id="Path_129" data-name="Path 129" d="M1.943,3.887h15.55a1.944,1.944,0,0,0,0-3.887H1.943a1.944,1.944,0,0,0,0,3.887Zm0,0" transform="translate(25.267 104.956)" stroke="#101010" stroke-width="2" fill="url(#linear-gradient-2)"/>
      <path id="Path_130" data-name="Path 130" d="M3.887,0H1.944a1.944,1.944,0,1,0,0,3.887H3.887A1.944,1.944,0,1,0,3.887,0Zm0,0" transform="translate(7.774 89.408)" stroke="#101010" stroke-width="2" fill="url(#linear-gradient-2)"/>
      <path id="Path_131" data-name="Path 131" d="M13.606,0H1.943a1.944,1.944,0,0,0,0,3.887H13.606a1.944,1.944,0,0,0,0-3.887Zm0,0" transform="translate(17.493 89.408)" stroke="#101010" stroke-width="2" fill="url(#linear-gradient-2)"/>
      <path id="Path_132" data-name="Path 132" d="M3.887,0H1.944a1.944,1.944,0,1,0,0,3.887H3.887A1.944,1.944,0,1,0,3.887,0Zm0,0" transform="translate(36.929 89.408)" stroke="#101010" stroke-width="2" fill="url(#linear-gradient-2)"/>
      <path id="Path_133" data-name="Path 133" d="M13.606,0H1.943a1.944,1.944,0,0,0,0,3.887H13.606a1.944,1.944,0,0,0,0-3.887Zm0,0" transform="translate(46.647 89.408)" stroke="#101010" stroke-width="2" fill="url(#linear-gradient-2)"/>
      <path id="Path_134" data-name="Path 134" d="M50.535,0H3.887A3.887,3.887,0,0,0,0,3.887V31.1a3.887,3.887,0,0,0,3.887,3.887H50.535A3.887,3.887,0,0,0,54.422,31.1V3.887A3.887,3.887,0,0,0,50.535,0ZM3.887,5.221,23.539,17.493,3.887,29.765ZM9.095,3.887H45.328L27.211,15.2Zm18.117,15.9L45.328,31.1H9.095Zm3.671-2.294L50.535,5.221V29.768Zm0,0" transform="translate(7.774 23.323)" stroke="#101010" stroke-width="2" fill="url(#linear-gradient-2)"/>
      <path id="Path_135" data-name="Path 135" d="M24.158,1.166a.645.645,0,0,0-.07-.051A3.861,3.861,0,0,0,21.38,0H3.887A3.887,3.887,0,0,0,0,3.887V19.436a3.887,3.887,0,0,0,3.887,3.887H21.38a3.887,3.887,0,0,0,3.887-3.887V3.887A3.867,3.867,0,0,0,24.2,1.222C24.179,1.2,24.175,1.178,24.158,1.166ZM18.282,3.887,3.887,17.02V3.887ZM7.009,19.436,21.38,6.321V19.436Zm0,0" transform="translate(7.774 62.196)" stroke="#101010" stroke-width="2" fill="url(#linear-gradient-2)"/>
      <path id="Path_136" data-name="Path 136" d="M24.158,1.166a.648.648,0,0,0-.07-.051A3.861,3.861,0,0,0,21.38,0H3.887A3.887,3.887,0,0,0,0,3.887V19.436a3.887,3.887,0,0,0,3.887,3.887H21.38a3.887,3.887,0,0,0,3.887-3.887V3.887A3.867,3.867,0,0,0,24.2,1.222C24.179,1.2,24.175,1.178,24.158,1.166ZM18.282,3.887,3.887,17.02V3.887ZM7.009,19.436,21.38,6.321V19.436Zm0,0" transform="translate(36.929 62.196)" stroke="#101010" stroke-width="2" fill="url(#linear-gradient-2)"/>
    </g>
    <g id="Group_285" data-name="Group 285" transform="translate(727.428 1281.165) rotate(-11)">
      <path id="Path_75" data-name="Path 75" d="M9.378,0a9.378,9.378,0,1,0,9.378,9.378A9.378,9.378,0,0,0,9.378,0Zm0,15.629a6.252,6.252,0,1,1,6.252-6.252A6.252,6.252,0,0,1,9.378,15.629Zm0,0" transform="translate(12.504 12.503)" stroke="#101010" stroke-width="1" fill="url(#linear-gradient-2)"/>
      <path id="Path_76" data-name="Path 76" d="M42.2,15.629H36.975l3.695-3.695a1.563,1.563,0,0,0,0-2.21L34.038,3.093a1.563,1.563,0,0,0-2.21,0L28.133,6.788V1.563A1.563,1.563,0,0,0,26.57,0H17.192a1.563,1.563,0,0,0-1.563,1.563V6.788L11.935,3.093a1.563,1.563,0,0,0-2.21,0L3.093,9.725a1.563,1.563,0,0,0,0,2.21l3.7,3.695H1.563A1.563,1.563,0,0,0,0,17.193V26.57a1.563,1.563,0,0,0,1.563,1.563H6.788L3.093,31.828a1.563,1.563,0,0,0,0,2.21l6.632,6.632a1.563,1.563,0,0,0,2.21,0l3.695-3.695V42.2a1.563,1.563,0,0,0,1.563,1.563H26.57A1.563,1.563,0,0,0,28.133,42.2V36.975l3.7,3.695a1.562,1.562,0,0,0,2.209,0l6.632-6.632a1.563,1.563,0,0,0,0-2.21l-3.7-3.695H42.2a1.563,1.563,0,0,0,1.563-1.563V17.193A1.563,1.563,0,0,0,42.2,15.629Zm-1.563,9.378h-5.5a1.563,1.563,0,0,0-1.472,1.038,12.756,12.756,0,0,1-.507,1.213,1.563,1.563,0,0,0,.3,1.78l3.9,3.9-4.422,4.422-3.9-3.893a1.562,1.562,0,0,0-1.779-.313,12.959,12.959,0,0,1-1.211.5,1.563,1.563,0,0,0-1.041,1.472v5.514H18.755v-5.5a1.562,1.562,0,0,0-1.04-1.474,12.377,12.377,0,0,1-1.213-.505,1.563,1.563,0,0,0-1.779.313l-3.9,3.889L6.408,32.933,10.3,29.04a1.563,1.563,0,0,0,.313-1.779,12.728,12.728,0,0,1-.5-1.211,1.564,1.564,0,0,0-1.482-1.043H3.126V18.755h5.5A1.563,1.563,0,0,0,10.1,17.718a12.387,12.387,0,0,1,.507-1.213,1.564,1.564,0,0,0-.313-1.781l-3.889-3.9L10.83,6.408,14.724,10.3a1.564,1.564,0,0,0,1.779.313,12.584,12.584,0,0,1,1.211-.5,1.563,1.563,0,0,0,1.041-1.479V3.126h6.252v5.5a1.563,1.563,0,0,0,1.04,1.474,12.372,12.372,0,0,1,1.213.5,1.562,1.562,0,0,0,1.779-.312l3.9-3.889,4.422,4.422-3.9,3.894a1.563,1.563,0,0,0-.313,1.779,12.746,12.746,0,0,1,.5,1.211,1.563,1.563,0,0,0,1.475,1.042h5.516Zm0,0" transform="translate(0 0)" stroke="#101010" stroke-width="1" fill="url(#linear-gradient-2)"/>
    </g>
    <g id="cube_1_" data-name="cube (1)" transform="matrix(0.985, 0.174, -0.174, 0.985, 707.481, 1119)">
      <g id="Group_83" data-name="Group 83" transform="translate(0.07 26.103)">
        <g id="Group_82" data-name="Group 82" transform="translate(0 0)">
          <path id="Path_199" data-name="Path 199" d="M3.917.882,2.828.253A1.886,1.886,0,0,0,.943,3.52l1.089.629A1.886,1.886,0,0,0,3.917.882Z" transform="translate(0 0)" stroke="#101010" stroke-width="1" fill="url(#linear-gradient-2)"/>
        </g>
      </g>
      <g id="Group_85" data-name="Group 85" transform="translate(7.854 30.599)">
        <g id="Group_84" data-name="Group 84" transform="translate(0 0)">
          <path id="Path_200" data-name="Path 200" d="M5.06,1.542,2.828.253A1.886,1.886,0,0,0,.943,3.521L3.175,4.81A1.886,1.886,0,0,0,5.06,1.542Z" stroke="#101010" stroke-width="1" fill="url(#linear-gradient-2)"/>
        </g>
      </g>
      <g id="Group_87" data-name="Group 87" transform="translate(79.276 71.846)">
        <g id="Group_86" data-name="Group 86" transform="translate(0 0)">
          <path id="Path_201" data-name="Path 201" d="M5.06,1.542,2.828.253A1.886,1.886,0,0,0,.943,3.521L3.175,4.81A1.886,1.886,0,0,0,5.06,1.542Z" transform="translate(0 0)" stroke="#101010" stroke-width="1" fill="url(#linear-gradient-2)"/>
        </g>
      </g>
      <g id="Group_89" data-name="Group 89" transform="translate(97.131 82.158)">
        <g id="Group_88" data-name="Group 88" transform="translate(0 0)">
          <path id="Path_202" data-name="Path 202" d="M5.06,1.542,2.828.253A1.886,1.886,0,0,0,.943,3.52L3.175,4.809A1.886,1.886,0,0,0,5.06,1.542Z" stroke="#101010" stroke-width="1" fill="url(#linear-gradient-2)"/>
        </g>
      </g>
      <g id="Group_91" data-name="Group 91" transform="translate(88.204 77.002)">
        <g id="Group_90" data-name="Group 90" transform="translate(0 0)">
          <path id="Path_203" data-name="Path 203" d="M5.06,1.542,2.828.253A1.886,1.886,0,0,0,.943,3.521L3.175,4.81A1.886,1.886,0,0,0,5.06,1.542Z" stroke="#101010" stroke-width="1" fill="url(#linear-gradient-2)"/>
        </g>
      </g>
      <g id="Group_93" data-name="Group 93" transform="translate(70.348 66.69)">
        <g id="Group_92" data-name="Group 92" transform="translate(0 0)">
          <path id="Path_204" data-name="Path 204" d="M5.06,1.542,2.828.253A1.886,1.886,0,0,0,.943,3.521L3.175,4.809A1.886,1.886,0,0,0,5.06,1.542Z" transform="translate(0 0)" stroke="#101010" stroke-width="1" fill="url(#linear-gradient-2)"/>
        </g>
      </g>
      <g id="Group_95" data-name="Group 95" transform="translate(114.987 92.47)">
        <g id="Group_94" data-name="Group 94" transform="translate(0 0)">
          <path id="Path_205" data-name="Path 205" d="M5.06,1.542,2.828.253A1.886,1.886,0,0,0,.943,3.521L3.175,4.81A1.886,1.886,0,0,0,5.06,1.542Z" stroke="#101010" stroke-width="1" fill="url(#linear-gradient-2)"/>
        </g>
      </g>
      <g id="Group_97" data-name="Group 97" transform="translate(123.915 97.626)">
        <g id="Group_96" data-name="Group 96" transform="translate(0 0)">
          <path id="Path_206" data-name="Path 206" d="M3.917.882,2.828.253A1.886,1.886,0,0,0,.943,3.52l1.089.629A1.886,1.886,0,0,0,3.917.882Z" stroke="#101010" stroke-width="1" fill="url(#linear-gradient-2)"/>
        </g>
      </g>
      <g id="Group_99" data-name="Group 99" transform="translate(0.07 74.841)">
        <g id="Group_98" data-name="Group 98" transform="translate(0 0)">
          <path id="Path_207" data-name="Path 207" d="M3.916.881,2.828.253A1.886,1.886,0,0,0,.943,3.521l1.089.629A1.886,1.886,0,0,0,3.916.881Z" transform="translate(0)" stroke="#101010" stroke-width="1" fill="url(#linear-gradient-2)"/>
        </g>
      </g>
      <g id="Group_101" data-name="Group 101" transform="translate(68.466 114.341)">
        <g id="Group_100" data-name="Group 100" transform="translate(0 0)">
          <path id="Path_208" data-name="Path 208" d="M5,1.507,2.828.253A1.886,1.886,0,0,0,.943,3.521L3.115,4.774A1.886,1.886,0,0,0,5,1.507Z" transform="translate(0 0)" stroke="#101010" stroke-width="1" fill="url(#linear-gradient-2)"/>
        </g>
      </g>
      <g id="Group_103" data-name="Group 103" transform="translate(77.151 119.357)">
        <g id="Group_102" data-name="Group 102" transform="translate(0 0)">
          <path id="Path_209" data-name="Path 209" d="M5,1.507,2.828.253A1.886,1.886,0,0,0,.943,3.52L3.114,4.774A1.886,1.886,0,0,0,5,1.507Z" transform="translate(0)" stroke="#101010" stroke-width="1" fill="url(#linear-gradient-2)"/>
        </g>
      </g>
      <g id="Group_105" data-name="Group 105" transform="translate(7.672 79.231)">
        <g id="Group_104" data-name="Group 104" transform="translate(0 0)">
          <path id="Path_210" data-name="Path 210" d="M5,1.507,2.828.253A1.886,1.886,0,0,0,.943,3.521L3.114,4.774A1.886,1.886,0,0,0,5,1.507Z" transform="translate(0 0)" stroke="#101010" stroke-width="1" fill="url(#linear-gradient-2)"/>
        </g>
      </g>
      <g id="Group_107" data-name="Group 107" transform="translate(85.836 124.373)">
        <g id="Group_106" data-name="Group 106" transform="translate(0 0)">
          <path id="Path_211" data-name="Path 211" d="M3.917.882,2.828.253A1.886,1.886,0,0,0,.943,3.52l1.089.629A1.886,1.886,0,0,0,3.917.882Z" transform="translate(0)" stroke="#101010" stroke-width="1" fill="url(#linear-gradient-2)"/>
        </g>
      </g>
      <g id="Group_109" data-name="Group 109" transform="translate(123.915 26.103)">
        <g id="Group_108" data-name="Group 108" transform="translate(0 0)">
          <path id="Path_212" data-name="Path 212" d="M4.607.943A1.885,1.885,0,0,0,2.032.253L.943.882A1.886,1.886,0,1,0,2.828,4.149L3.917,3.52A1.887,1.887,0,0,0,4.607.943Z" transform="translate(0 0)" stroke="#101010" stroke-width="1" fill="url(#linear-gradient-2)"/>
        </g>
      </g>
      <g id="Group_111" data-name="Group 111" transform="translate(34.638 77.002)">
        <g id="Group_110" data-name="Group 110" transform="translate(0 0)">
          <path id="Path_213" data-name="Path 213" d="M5.75.944A1.884,1.884,0,0,0,3.175.253L.943,1.542A1.886,1.886,0,1,0,2.828,4.809L5.06,3.52A1.887,1.887,0,0,0,5.75.944Z" stroke="#101010" stroke-width="1" fill="url(#linear-gradient-2)"/>
        </g>
      </g>
      <g id="Group_113" data-name="Group 113" transform="translate(25.71 82.158)">
        <g id="Group_112" data-name="Group 112" transform="translate(0 0)">
          <path id="Path_214" data-name="Path 214" d="M5.75.944A1.884,1.884,0,0,0,3.175.253L.943,1.542A1.886,1.886,0,1,0,2.828,4.809L5.06,3.52A1.887,1.887,0,0,0,5.75.944Z" stroke="#101010" stroke-width="1" fill="url(#linear-gradient-2)"/>
        </g>
      </g>
      <g id="Group_115" data-name="Group 115" transform="translate(7.854 92.47)">
        <g id="Group_114" data-name="Group 114" transform="translate(0 0)">
          <path id="Path_215" data-name="Path 215" d="M5.751.944A1.885,1.885,0,0,0,3.175.253L.943,1.542A1.886,1.886,0,1,0,2.828,4.809L5.06,3.52A1.887,1.887,0,0,0,5.751.944Z" stroke="#101010" stroke-width="1" fill="url(#linear-gradient-2)"/>
        </g>
      </g>
      <g id="Group_117" data-name="Group 117" transform="translate(114.987 30.599)">
        <g id="Group_116" data-name="Group 116" transform="translate(0 0)">
          <path id="Path_216" data-name="Path 216" d="M5.75.944A1.885,1.885,0,0,0,3.175.253L.943,1.542A1.886,1.886,0,1,0,2.828,4.809L5.06,3.52A1.887,1.887,0,0,0,5.75.944Z" stroke="#101010" stroke-width="1" fill="url(#linear-gradient-2)"/>
        </g>
      </g>
      <g id="Group_119" data-name="Group 119" transform="translate(43.565 71.847)">
        <g id="Group_118" data-name="Group 118" transform="translate(0 0)">
          <path id="Path_217" data-name="Path 217" d="M5.75.944A1.884,1.884,0,0,0,3.175.253L.943,1.542A1.886,1.886,0,1,0,2.828,4.809L5.06,3.52A1.887,1.887,0,0,0,5.75.944Z" stroke="#101010" stroke-width="1" fill="url(#linear-gradient-2)"/>
        </g>
      </g>
      <g id="Group_121" data-name="Group 121" transform="translate(52.493 66.69)">
        <g id="Group_120" data-name="Group 120" transform="translate(0 0)">
          <path id="Path_218" data-name="Path 218" d="M5.75.944A1.884,1.884,0,0,0,3.175.253L.943,1.542A1.886,1.886,0,1,0,2.828,4.809L5.06,3.52A1.887,1.887,0,0,0,5.75.944Z" stroke="#101010" stroke-width="1" fill="url(#linear-gradient-2)"/>
        </g>
      </g>
      <g id="Group_123" data-name="Group 123" transform="translate(0.07 97.626)">
        <g id="Group_122" data-name="Group 122" transform="translate(0 0)">
          <path id="Path_219" data-name="Path 219" d="M4.607.944A1.885,1.885,0,0,0,2.032.253L.943.882A1.886,1.886,0,1,0,2.828,4.149L3.917,3.52A1.887,1.887,0,0,0,4.607.944Z" stroke="#101010" stroke-width="1" fill="url(#linear-gradient-2)"/>
        </g>
      </g>
      <g id="Group_125" data-name="Group 125" transform="translate(123.915 74.841)">
        <g id="Group_124" data-name="Group 124" transform="translate(0 0)">
          <path id="Path_220" data-name="Path 220" d="M4.607.944A1.885,1.885,0,0,0,2.032.253L.943.881A1.886,1.886,0,1,0,2.828,4.149l1.089-.629A1.887,1.887,0,0,0,4.607.944Z" stroke="#101010" stroke-width="1" fill="url(#linear-gradient-2)"/>
        </g>
      </g>
      <g id="Group_127" data-name="Group 127" transform="translate(45.751 119.357)">
        <g id="Group_126" data-name="Group 126" transform="translate(0 0)">
          <path id="Path_221" data-name="Path 221" d="M5.69.944A1.885,1.885,0,0,0,3.114.253L.943,1.507A1.886,1.886,0,1,0,2.828,4.774L5,3.52A1.887,1.887,0,0,0,5.69.944Z" stroke="#101010" stroke-width="1" fill="url(#linear-gradient-2)"/>
        </g>
      </g>
      <g id="Group_129" data-name="Group 129" transform="translate(16.357 54.369)">
        <g id="Group_128" data-name="Group 128" transform="translate(0 0)">
          <path id="Path_222" data-name="Path 222" d="M94.762,34.488l-.73-.422,1.155-.667A1.886,1.886,0,0,0,93.3,30.131l-1.877,1.084v-5.1a1.885,1.885,0,1,0-3.771,0v7.277l-3.036,1.754h0L82.446,36.4h0l-32.5,18.767v-.883a1.885,1.885,0,1,0-3.771,0v.883L8.474,33.392V1.886a1.885,1.885,0,1,0-3.771,0V31.214L2.828,30.131A1.886,1.886,0,0,0,.943,33.4l1.155.667-.73.422a1.886,1.886,0,1,0,1.885,3.267l2.232-1.289a1.889,1.889,0,0,0,.336-.249l41.3,23.851,0,0a1.827,1.827,0,0,0,.168.083c.019.009.037.019.056.027.05.02.1.036.153.052.027.008.053.019.08.027.053.014.107.022.16.031.026,0,.052.012.078.015a1.878,1.878,0,0,0,.96-.126c.043-.018.084-.041.126-.062s.066-.03.1-.049l.578-.334.007,0,2.171-1.254.009-.006,6.5-3.754.005,0,2.171-1.254,0,0L66.958,49.7l0,0,2.171-1.254h0l6.511-3.76h0l2.171-1.254,0,0,12.488-7.212a1.9,1.9,0,0,0,.337.25l2.232,1.289a1.886,1.886,0,0,0,1.885-3.267Z" transform="translate(0 0)" stroke="#101010" stroke-width="1" fill="url(#linear-gradient-2)"/>
        </g>
      </g>
      <g id="Group_131" data-name="Group 131" transform="translate(54.435 114.341)">
        <g id="Group_130" data-name="Group 130" transform="translate(0 0)">
          <path id="Path_223" data-name="Path 223" d="M5.69.944A1.885,1.885,0,0,0,3.115.253L.943,1.507A1.886,1.886,0,1,0,2.828,4.774L5,3.521A1.887,1.887,0,0,0,5.69.944Z" stroke="#101010" stroke-width="1" fill="url(#linear-gradient-2)"/>
        </g>
      </g>
      <g id="Group_133" data-name="Group 133" transform="translate(115.23 79.231)">
        <g id="Group_132" data-name="Group 132" transform="translate(0 0)">
          <path id="Path_224" data-name="Path 224" d="M5.69.944A1.885,1.885,0,0,0,3.114.253L.943,1.506A1.886,1.886,0,1,0,2.828,4.774L5,3.52A1.887,1.887,0,0,0,5.69.944Z" transform="translate(0)" stroke="#101010" stroke-width="1" fill="url(#linear-gradient-2)"/>
        </g>
      </g>
      <g id="Group_135" data-name="Group 135" transform="translate(38.148 124.373)">
        <g id="Group_134" data-name="Group 134" transform="translate(0 0)">
          <path id="Path_225" data-name="Path 225" d="M4.607.943A1.885,1.885,0,0,0,2.032.253L.943.882A1.886,1.886,0,1,0,2.828,4.149L3.917,3.52A1.887,1.887,0,0,0,4.607.943Z" stroke="#101010" stroke-width="1" fill="url(#linear-gradient-2)"/>
        </g>
      </g>
      <g id="Group_137" data-name="Group 137" transform="translate(123.916 49.798)">
        <g id="Group_136" data-name="Group 136" transform="translate(0 0)">
          <path id="Path_226" data-name="Path 226" d="M3.92.887,2.833.255A1.886,1.886,0,0,0,.939,3.518l1.087.632A1.886,1.886,0,0,0,3.92.887Z" stroke="#101010" stroke-width="1" fill="url(#linear-gradient-2)"/>
        </g>
      </g>
      <g id="Group_139" data-name="Group 139" transform="translate(54.535 9.457)">
        <g id="Group_138" data-name="Group 138" transform="translate(0 0)">
          <path id="Path_227" data-name="Path 227" d="M5,1.516,2.833.256A1.886,1.886,0,0,0,.938,3.517L3.107,4.778A1.886,1.886,0,0,0,5,1.516Z" stroke="#101010" stroke-width="1" fill="url(#linear-gradient-2)"/>
        </g>
      </g>
      <g id="Group_141" data-name="Group 141" transform="translate(45.863 4.414)">
        <g id="Group_140" data-name="Group 140" transform="translate(0 0)">
          <path id="Path_228" data-name="Path 228" d="M5,1.517,2.833.256A1.886,1.886,0,0,0,.938,3.517L3.106,4.778A1.886,1.886,0,0,0,5,1.517Z" transform="translate(0 0)" stroke="#101010" stroke-width="1" fill="url(#linear-gradient-2)"/>
        </g>
      </g>
      <g id="Group_143" data-name="Group 143" transform="translate(115.244 44.755)">
        <g id="Group_142" data-name="Group 142" transform="translate(0 0)">
          <path id="Path_229" data-name="Path 229" d="M5,1.516,2.833.256A1.886,1.886,0,0,0,.938,3.517L3.106,4.778A1.886,1.886,0,0,0,5,1.516Z" stroke="#101010" stroke-width="1" fill="url(#linear-gradient-2)"/>
        </g>
      </g>
      <g id="Group_145" data-name="Group 145" transform="translate(16.316 14.085)">
        <g id="Group_144" data-name="Group 144" transform="translate(0 0)">
          <path id="Path_230" data-name="Path 230" d="M95.255,27.144l-1.911-1.111L94.8,25.19a1.886,1.886,0,0,0-1.885-3.267l-2.232,1.289a1.874,1.874,0,0,0-.763.831L49.052.256,49.035.247a1.914,1.914,0,0,0-.207-.1l-.008,0a1.894,1.894,0,0,0-.205-.07L48.558.057c-.056-.014-.112-.025-.17-.034l-.06-.009A1.872,1.872,0,0,0,48.109,0H48.1a1.876,1.876,0,0,0-.221.014L47.82.023c-.058.009-.114.02-.171.034l-.056.014a1.844,1.844,0,0,0-.209.071h0a1.843,1.843,0,0,0-.21.1l-.016.008L6.288,24.043a1.876,1.876,0,0,0-.763-.831L3.294,21.923A1.886,1.886,0,0,0,1.409,25.19l1.454.84L.941,27.143a1.886,1.886,0,1,0,1.89,3.265L4.744,29.3v4.864a1.885,1.885,0,1,0,3.771,0v-4.87l36.6,21.139a1.874,1.874,0,0,0,1.1,1.911V86.331a1.885,1.885,0,1,0,3.771,0V52.345A1.874,1.874,0,0,0,51.1,50.43L87.691,29.3l0,0v28.93a1.885,1.885,0,1,0,3.771,0V29.3l1.895,1.1a1.886,1.886,0,0,0,1.894-3.262ZM48.1,47.8,10.39,26.021,46.341,5.193l.042-.024a1.884,1.884,0,0,0,3.469-.062L50,5.192a1.854,1.854,0,0,0,.237.116l6.076,3.536a1.905,1.905,0,0,0,.192.13l2.168,1.261a1.878,1.878,0,0,0,.193.1L65,13.9a1.9,1.9,0,0,0,.17.112l2.168,1.261c.045.026.092.047.138.068l6.246,3.635c.039.027.079.054.121.078l2.168,1.261c.026.015.053.026.08.039l6.376,3.711c.017.01.032.022.049.032l2.168,1.261.026.013,1.107.644Z" transform="translate(0 0)" stroke="#101010" stroke-width="1" fill="url(#linear-gradient-2)"/>
        </g>
      </g>
      <g id="Group_147" data-name="Group 147" transform="translate(38.271 0)">
        <g id="Group_146" data-name="Group 146" transform="translate(0 0)">
          <path id="Path_231" data-name="Path 231" d="M3.92.888,2.833.256A1.886,1.886,0,0,0,.938,3.517l1.087.632A1.886,1.886,0,0,0,3.92.888Z" transform="translate(0 0)" stroke="#101010" stroke-width="1" fill="url(#linear-gradient-2)"/>
        </g>
      </g>
      <g id="Group_149" data-name="Group 149" transform="translate(0 49.799)">
        <g id="Group_148" data-name="Group 148" transform="translate(0 0)">
          <path id="Path_232" data-name="Path 232" d="M4.6.941A1.885,1.885,0,0,0,2.028.254L.941.885A1.886,1.886,0,1,0,2.83,4.149l1.088-.63A1.887,1.887,0,0,0,4.6.941Z" transform="translate(0 0)" stroke="#101010" stroke-width="1" fill="url(#linear-gradient-2)"/>
        </g>
      </g>
      <g id="Group_151" data-name="Group 151" transform="translate(77.231 4.413)">
        <g id="Group_150" data-name="Group 150" transform="translate(0 0)">
          <path id="Path_233" data-name="Path 233" d="M5.693.941A1.885,1.885,0,0,0,3.116.254L.941,1.515A1.886,1.886,0,1,0,2.83,4.78L5.006,3.519A1.887,1.887,0,0,0,5.693.941Z" stroke="#101010" stroke-width="1" fill="url(#linear-gradient-2)"/>
        </g>
      </g>
      <g id="Group_153" data-name="Group 153" transform="translate(68.53 9.455)">
        <g id="Group_152" data-name="Group 152" transform="translate(0 0)">
          <path id="Path_234" data-name="Path 234" d="M5.693.941A1.885,1.885,0,0,0,3.116.254L.941,1.515A1.886,1.886,0,1,0,2.83,4.78L5.006,3.519A1.887,1.887,0,0,0,5.693.941Z" stroke="#101010" stroke-width="1" fill="url(#linear-gradient-2)"/>
        </g>
      </g>
      <g id="Group_155" data-name="Group 155" transform="translate(7.614 44.756)">
        <g id="Group_154" data-name="Group 154" transform="translate(0 0)">
          <path id="Path_235" data-name="Path 235" d="M5.693.941A1.885,1.885,0,0,0,3.116.254L.941,1.515A1.886,1.886,0,1,0,2.83,4.78L5.006,3.519A1.887,1.887,0,0,0,5.693.941Z" stroke="#101010" stroke-width="1" fill="url(#linear-gradient-2)"/>
        </g>
      </g>
      <g id="Group_157" data-name="Group 157" transform="translate(85.934 0)">
        <g id="Group_156" data-name="Group 156" transform="translate(0)">
          <path id="Path_236" data-name="Path 236" d="M4.6.941A1.885,1.885,0,0,0,2.028.254L.941.885a1.886,1.886,0,1,0,1.89,3.264l1.088-.631A1.887,1.887,0,0,0,4.6.941Z" transform="translate(0 0)" stroke="#101010" stroke-width="1" fill="url(#linear-gradient-2)"/>
        </g>
      </g>
      <g id="Group_159" data-name="Group 159" transform="translate(62.535 54.327)">
        <g id="Group_158" data-name="Group 158" transform="translate(0 0)">
          <path id="Path_237" data-name="Path 237" d="M1.885,0A1.886,1.886,0,0,0,0,1.886V4.4a1.885,1.885,0,1,0,3.771,0V1.886A1.886,1.886,0,0,0,1.885,0Z" transform="translate(0 0)" stroke="#101010" stroke-width="1" fill="url(#linear-gradient-2)"/>
        </g>
      </g>
      <g id="Group_161" data-name="Group 161" transform="translate(62.535 24.145)">
        <g id="Group_160" data-name="Group 160" transform="translate(0 0)">
          <path id="Path_238" data-name="Path 238" d="M1.885,0A1.886,1.886,0,0,0,0,1.886V4.4a1.885,1.885,0,1,0,3.771,0V1.886A1.886,1.886,0,0,0,1.885,0Z" transform="translate(0 0)" stroke="#101010" stroke-width="1" fill="url(#linear-gradient-2)"/>
        </g>
      </g>
      <g id="Group_163" data-name="Group 163" transform="translate(62.535 34.206)">
        <g id="Group_162" data-name="Group 162" transform="translate(0 0)">
          <path id="Path_239" data-name="Path 239" d="M1.885,0A1.886,1.886,0,0,0,0,1.886V4.4a1.885,1.885,0,1,0,3.771,0V1.886A1.886,1.886,0,0,0,1.885,0Z" transform="translate(0 0)" stroke="#101010" stroke-width="1" fill="url(#linear-gradient-2)"/>
        </g>
      </g>
      <g id="Group_165" data-name="Group 165" transform="translate(62.535 44.266)">
        <g id="Group_164" data-name="Group 164" transform="translate(0 0)">
          <path id="Path_240" data-name="Path 240" d="M1.885,0A1.886,1.886,0,0,0,0,1.886V4.4a1.885,1.885,0,1,0,3.771,0V1.886A1.886,1.886,0,0,0,1.885,0Z" transform="translate(0 0)" stroke="#101010" stroke-width="1" fill="url(#linear-gradient-2)"/>
        </g>
      </g>
    </g>
    <g id="ux" transform="translate(582 1265.143) rotate(-7)">
      <path id="Path_137" data-name="Path 137" d="M.676,5.409,8.758.123A.8.8,0,0,1,9.219,0a1.621,1.621,0,0,1,1.475,1.537,1.077,1.077,0,0,1-.461.891L3.78,6.669l6.454,4.241a1,1,0,0,1,.461.891,1.589,1.589,0,0,1-1.475,1.505.8.8,0,0,1-.461-.122L.676,7.9A1.54,1.54,0,0,1,0,6.669a1.592,1.592,0,0,1,.676-1.26Zm0,0" transform="translate(11.257 43.458)" stroke="#101010" stroke-width="1" fill="url(#linear-gradient-2)"/>
      <path id="Path_138" data-name="Path 138" d="M13.614,1.167a.9.9,0,0,1-.123.492L2.212,24.155a1.113,1.113,0,0,1-1.013.583A1.188,1.188,0,0,1,0,23.6a1.231,1.231,0,0,1,.092-.461L11.4.553A.936.936,0,0,1,12.323,0,1.254,1.254,0,0,1,13.614,1.167Zm0,0" transform="translate(25.423 34.977)" stroke="#101010" stroke-width="1" fill="url(#linear-gradient-2)"/>
      <path id="Path_139" data-name="Path 139" d="M9.988,7.9,1.905,13.183a.7.7,0,0,1-.43.123A1.566,1.566,0,0,1,0,11.8a1.051,1.051,0,0,1,.43-.891L6.915,6.668.43,2.428A1.139,1.139,0,0,1,0,1.537,1.6,1.6,0,0,1,1.475,0a.7.7,0,0,1,.43.123L9.988,5.409a1.594,1.594,0,0,1,.676,1.261A1.461,1.461,0,0,1,9.988,7.9Zm0,0" transform="translate(42.509 43.459)" stroke="#101010" stroke-width="1" fill="url(#linear-gradient-2)"/>
      <path id="Path_140" data-name="Path 140" d="M64.3,42V6.967A6.975,6.975,0,0,0,57.337,0H6.967A6.974,6.974,0,0,0,0,6.967V42a6.974,6.974,0,0,0,6.967,6.967h50.37A6.975,6.975,0,0,0,64.3,42ZM3.284,42V6.967A3.687,3.687,0,0,1,6.967,3.284h50.37A3.687,3.687,0,0,1,61.02,6.967V42a3.687,3.687,0,0,1-3.683,3.683H6.967A3.687,3.687,0,0,1,3.284,42Zm0,0" transform="translate(0 23.494)" stroke="#101010" stroke-width="1" fill="url(#linear-gradient-2)"/>
      <path id="Path_141" data-name="Path 141" d="M8.548,0A8.557,8.557,0,0,0,0,8.547q0,.183.008.364C0,8.965,0,9.018,0,9.072a1.661,1.661,0,0,0,.05.4A8.548,8.548,0,1,0,8.548,0Zm0,3.284A5.273,5.273,0,0,1,13.692,7.43H3.4A5.272,5.272,0,0,1,8.548,3.284Zm0,10.527a5.272,5.272,0,0,1-4.8-3.1h9.593a5.27,5.27,0,0,1-4.8,3.1Zm0,0" transform="translate(79.694 80.582)" stroke="#101010" stroke-width="1" fill="url(#linear-gradient-2)"/>
      <path id="Path_142" data-name="Path 142" d="M79.15,83.421h-.865a18.6,18.6,0,0,0-1.1-2.635l.622-.622a4.584,4.584,0,0,0,0-6.478l-1.6-1.6a4.582,4.582,0,0,0-5.841-.532V7a7.006,7.006,0,0,0-7-7H7A7.006,7.006,0,0,0,0,7v11.57a1.642,1.642,0,1,0,3.284,0V14.62h63.8v57.2q-.3-.113-.609-.214v-.866a4.585,4.585,0,0,0-4.58-4.581H59.633a4.585,4.585,0,0,0-4.58,4.581v.771a18.511,18.511,0,0,0-2.733,1.1L51.8,72.09a4.58,4.58,0,0,0-6.478,0l-1.6,1.6a4.581,4.581,0,0,0,0,6.478l.429.429a18.535,18.535,0,0,0-1.206,2.827h-.573A4.585,4.585,0,0,0,37.794,88v.011H3.284V77.392a1.642,1.642,0,1,0-3.284,0V95.464a7,7,0,0,0,7,7H42.521a4.549,4.549,0,0,0,1.2,2.11l1.6,1.6a4.58,4.58,0,0,0,6.478,0l.328-.329a18.587,18.587,0,0,0,2.928,1.2v.478a4.585,4.585,0,0,0,4.58,4.581h2.258a4.585,4.585,0,0,0,4.58-4.581v-.572a18.583,18.583,0,0,0,2.827-1.206l.429.429a4.58,4.58,0,0,0,6.478,0l1.6-1.6a4.58,4.58,0,0,0,0-6.478l-.524-.524a18.465,18.465,0,0,0,1.1-2.732h.772a4.585,4.585,0,0,0,4.581-4.58V88a4.585,4.585,0,0,0-4.581-4.58ZM3.284,11.336V7A3.717,3.717,0,0,1,7,3.284H63.366A3.718,3.718,0,0,1,67.08,7v4.339Zm0,84.128V91.3H37.913a4.587,4.587,0,0,0,4.461,3.542h.479a18.505,18.505,0,0,0,1.2,2.928l-.329.328a4.6,4.6,0,0,0-.806,1.083H7a3.717,3.717,0,0,1-3.713-3.713Zm77.162-5.206a1.3,1.3,0,0,1-1.3,1.3H77.916a2.665,2.665,0,0,0-2.559,1.922,15.267,15.267,0,0,1-1.2,2.976,2.676,2.676,0,0,0,.476,3.122l.843.843a1.3,1.3,0,0,1,0,1.834l-1.6,1.6a1.3,1.3,0,0,1-1.834,0l-.758-.758a2.657,2.657,0,0,0-3.179-.444,15.208,15.208,0,0,1-3.046,1.3,2.681,2.681,0,0,0-1.88,2.556v1.016a1.3,1.3,0,0,1-1.3,1.3H59.633a1.3,1.3,0,0,1-1.3-1.3v-.936a2.663,2.663,0,0,0-1.918-2.561,15.3,15.3,0,0,1-3.146-1.288,2.622,2.622,0,0,0-1.257-.321,2.69,2.69,0,0,0-1.888.783l-.653.652a1.3,1.3,0,0,1-1.833,0l-1.6-1.6a1.27,1.27,0,0,1-.379-.916,1.532,1.532,0,0,1,.009-.167,1.261,1.261,0,0,0,.022-.128,1.277,1.277,0,0,1,.347-.622l.653-.653a2.667,2.667,0,0,0,.462-3.146,15.329,15.329,0,0,1-1.287-3.145,2.665,2.665,0,0,0-2.562-1.919h-.936a1.3,1.3,0,0,1-1.3-1.3V88a1.3,1.3,0,0,1,1.3-1.3h1.015a2.682,2.682,0,0,0,2.557-1.88,15.224,15.224,0,0,1,1.3-3.045A2.668,2.668,0,0,0,46.8,78.6l-.758-.757a1.3,1.3,0,0,1,0-1.833l1.6-1.6a1.3,1.3,0,0,1,1.833,0l.844.843a2.687,2.687,0,0,0,1.887.783,2.608,2.608,0,0,0,1.235-.307,15.291,15.291,0,0,1,2.975-1.2,2.666,2.666,0,0,0,1.923-2.559V70.742a1.3,1.3,0,0,1,1.3-1.3h2.258a1.3,1.3,0,0,1,1.3,1.3v1.319a2.674,2.674,0,0,0,1.877,2.546A15.224,15.224,0,0,1,67.9,75.79l.084.045a2.657,2.657,0,0,0,3.119-.476l.946-.946a1.3,1.3,0,0,1,1.834,0l1.6,1.6a1.3,1.3,0,0,1,0,1.833l-.946.947a2.673,2.673,0,0,0-.458,3.154,15.272,15.272,0,0,1,1.209,2.885,2.674,2.674,0,0,0,2.546,1.878H79.15a1.3,1.3,0,0,1,1.3,1.3Zm0,0" transform="translate(27.48 0)" stroke="#101010" stroke-width="1" fill="url(#linear-gradient-2)"/>
    </g>
  </g>
</svg>
