<svg xmlns="http://www.w3.org/2000/svg" xmlns:xlink="http://www.w3.org/1999/xlink" width="350" height="200" viewBox="0 0 373.069 290.77">
  <defs>
    <linearGradient id="linear-gradient" x1="0.696" y1="0.134" x2="0.5" y2="1" gradientUnits="objectBoundingBox">
      <stop offset="0" stop-color="#6084b4"/>
      <stop offset="1" stop-color="#60b4ae"/>
    </linearGradient>
    <linearGradient id="linear-gradient-2" x1="0.5" x2="0.724" y2="1.259" gradientUnits="objectBoundingBox">
      <stop offset="0" stop-color="#60b4ae"/>
      <stop offset="1" stop-color="#5e648f"/>
    </linearGradient>
    <linearGradient id="linear-gradient-12" x1="0.13" y1="0.146" x2="0.781" y2="3.4" gradientUnits="objectBoundingBox">
      <stop offset="0" stop-color="#73c7c2"/>
      <stop offset="1" stop-color="#56619a"/>
    </linearGradient>
    <linearGradient id="linear-gradient-28" x1="-1.084" y1="1.172" x2="0.5" y2="1" gradientUnits="objectBoundingBox">
      <stop offset="0" stop-color="#7fe4de"/>
      <stop offset="1" stop-color="#60b4ae"/>
    </linearGradient>
    <linearGradient id="linear-gradient-39" x1="0.955" y1="0.348" x2="-0.034" y2="0.854" gradientUnits="objectBoundingBox">
      <stop offset="0" stop-color="#73c7c2"/>
      <stop offset="1" stop-color="#4f7ca0"/>
    </linearGradient>
  </defs>
  <g id="Group_540" data-name="Group 540" transform="translate(-124.236 -1131)">
    <rect id="Rectangle_58" data-name="Rectangle 58" width="82.311" height="82.742" rx="41.155" transform="translate(380.9 1185.001) rotate(-41)" fill="url(#linear-gradient)"/>
    <g id="eye" transform="translate(313.448 1136.004) rotate(11)">
      <path id="Path_179" data-name="Path 179" d="M32.267,31.346C20.164,31.346,8.786,26,.23,16.282a.922.922,0,0,1,0-1.219C8.786,5.347,20.163,0,32.267,0S55.749,5.347,64.3,15.063a.922.922,0,0,1,0,1.217c-.987,1.127-2.06,2.234-3.28,3.383a.922.922,0,1,1-1.264-1.342c.955-.9,1.816-1.771,2.613-2.647C54.238,6.748,43.577,1.845,32.264,1.845S10.292,6.749,2.157,15.674C10.292,24.6,20.953,29.5,32.264,29.5a38.658,38.658,0,0,0,14.652-2.891.922.922,0,0,1,.694,1.707,40.481,40.481,0,0,1-15.344,3.027Z" transform="translate(0 10.326)" fill="url(#linear-gradient-2)"/>
      <path id="Path_180" data-name="Path 180" d="M.917,3.306A.922.922,0,0,1,.436,1.6c.787-.48,1.528-.962,2.2-1.434a.922.922,0,1,1,1.058,1.51c-.7.493-1.475,1-2.3,1.5A.916.916,0,0,1,.917,3.306Z" transform="translate(52.122 32.511)" fill="url(#linear-gradient-2)"/>
      <path id="Path_181" data-name="Path 181" d="M15.673,31.346A15.673,15.673,0,1,1,31.346,15.673,15.673,15.673,0,0,1,15.673,31.346Zm0-29.5A13.829,13.829,0,1,0,29.5,15.673,13.829,13.829,0,0,0,15.673,1.844Z" transform="translate(16.594 10.326)" fill="url(#linear-gradient-2)"/>
      <path id="Path_182" data-name="Path 182" d="M8.682,17.364A8.682,8.682,0,1,1,8.682,0a3.566,3.566,0,0,1,.369.013.922.922,0,1,1-.17,1.836c-.065-.006-.13,0-.195,0A6.838,6.838,0,1,0,15.52,8.684a1.885,1.885,0,0,0,0-.192.922.922,0,1,1,1.833-.178c.012.123.014.244.014.369a8.692,8.692,0,0,1-8.68,8.681Z" transform="translate(23.585 17.316)" fill="url(#linear-gradient-2)"/>
      <path id="Path_183" data-name="Path 183" d="M8.39,9.311A8.426,8.426,0,0,1,0,.922a.922.922,0,0,1,1.844,0A6.579,6.579,0,0,0,8.391,7.468a.922.922,0,0,1,0,1.844Z" transform="translate(31.628 17.332)" fill="url(#linear-gradient-2)"/>
      <path id="Path_184" data-name="Path 184" d="M.92,5.41A.922.922,0,0,1,.113,4.047L2.063.48a.922.922,0,1,1,1.617.885L1.73,4.931A.922.922,0,0,1,.92,5.41Z" transform="translate(47.485 4.626)" fill="url(#linear-gradient-2)"/>
      <path id="Path_185" data-name="Path 185" d="M.923,5.784A.922.922,0,0,1,.028,4.635L1.028.7a.922.922,0,1,1,1.788.453l-1,3.94a.922.922,0,0,1-.893.7Z" transform="translate(39.614 1.157)" fill="url(#linear-gradient-2)"/>
      <path id="Path_186" data-name="Path 186" d="M.922,5.91A.922.922,0,0,1,0,4.989V.922a.922.922,0,0,1,1.844,0V4.988A.922.922,0,0,1,.922,5.91Z" transform="translate(31.345 0)" fill="url(#linear-gradient-2)"/>
      <path id="Path_187" data-name="Path 187" d="M1.921,5.786a.922.922,0,0,1-.893-.7l-1-3.941A.922.922,0,0,1,1.816.7l1,3.941a.922.922,0,0,1-.9,1.149Z" transform="translate(22.077 1.156)" fill="url(#linear-gradient-2)"/>
      <path id="Path_188" data-name="Path 188" d="M2.879,5.408a.922.922,0,0,1-.809-.479L.114,1.365A.922.922,0,1,1,1.731.479L3.681,4.046A.922.922,0,0,1,2.874,5.41Z" transform="translate(13.254 4.628)" fill="url(#linear-gradient-2)"/>
    </g>
    <g id="web-design" transform="matrix(0.996, 0.087, -0.087, 0.996, 294.166, 1233.299)">
      <g id="Group_51" data-name="Group 51" transform="translate(0 0)">
        <g id="Group_50" data-name="Group 50" transform="translate(0 0)">
          <path id="Path_143" data-name="Path 143" d="M117.69,0H2.344A2.345,2.345,0,0,0,0,2.344V26.459A2.345,2.345,0,0,0,2.344,28.8H117.69a2.345,2.345,0,0,0,2.344-2.344V2.344A2.345,2.345,0,0,0,117.69,0Zm-2.344,24.114H4.689V4.689H115.345Z" stroke="#0c0c0c" stroke-width="3" fill="url(#linear-gradient-12)"/>
        </g>
      </g>
      <g id="Group_53" data-name="Group 53" transform="translate(93.956 6.015)">
        <g id="Group_52" data-name="Group 52" transform="translate(0 0)">
          <path id="Path_144" data-name="Path 144" d="M16.093,12.774l-1.915-1.915A7.491,7.491,0,0,0,2.194,2.19a7.491,7.491,0,0,0,8.669,11.985l1.915,1.915a2.344,2.344,0,1,0,3.315-3.316ZM9.47,9.467a2.8,2.8,0,1,1,.821-1.98A2.782,2.782,0,0,1,9.47,9.467Z" stroke="#0c0c0c" stroke-width="3" fill="url(#linear-gradient-12)"/>
        </g>
      </g>
      <g id="Group_55" data-name="Group 55" transform="translate(79.368 16.302)">
        <g id="Group_54" data-name="Group 54">
          <path id="Path_145" data-name="Path 145" d="M4.642,1.886a2.358,2.358,0,0,0-.134-.438,2.391,2.391,0,0,0-.216-.406A2.354,2.354,0,0,0,4,.686,2.246,2.246,0,0,0,3.646.4,2.314,2.314,0,0,0,3.24.179,2.366,2.366,0,0,0,2.8.046a2.32,2.32,0,0,0-.917,0,2.4,2.4,0,0,0-1.2.64,2.492,2.492,0,0,0-.291.356,2.4,2.4,0,0,0-.216.406,2.364,2.364,0,0,0-.134.438,2.382,2.382,0,0,0,0,.917,2.362,2.362,0,0,0,.134.438,2.476,2.476,0,0,0,.216.406A2.5,2.5,0,0,0,.685,4a2.423,2.423,0,0,0,.762.506,2.482,2.482,0,0,0,.438.134A2.335,2.335,0,0,0,3.24,4.509a2.4,2.4,0,0,0,.406-.216A2.233,2.233,0,0,0,4,4a2.365,2.365,0,0,0,.687-1.657A2.335,2.335,0,0,0,4.642,1.886Z" stroke="#0c0c0c" stroke-width="3" fill="url(#linear-gradient-12)"/>
        </g>
      </g>
      <g id="Group_57" data-name="Group 57" transform="translate(21.755 16.302)">
        <g id="Group_56" data-name="Group 56">
          <path id="Path_146" data-name="Path 146" d="M51.069,0H2.344a2.344,2.344,0,0,0,0,4.689H51.069a2.344,2.344,0,0,0,0-4.689Z" stroke="#0c0c0c" stroke-width="3" fill="url(#linear-gradient-12)"/>
        </g>
      </g>
      <g id="Group_59" data-name="Group 59" transform="translate(0.277 32.145)">
        <g id="Group_58" data-name="Group 58">
          <path id="Path_147" data-name="Path 147" d="M73.53,0H2.344A2.345,2.345,0,0,0,0,2.344V48.576A2.344,2.344,0,0,0,2.344,50.92H73.53a2.345,2.345,0,0,0,2.344-2.344V2.344A2.345,2.345,0,0,0,73.53,0ZM28.279,46.231H8.38l13.4-15.517,9.706,11.239Zm5.861,0L38.512,40.4H49.88a2.344,2.344,0,1,0,0-4.689H42.029l1.645-2.193h14.72l9.534,12.71Zm13.049-17.4,3.844-5.125,3.844,5.125Zm24,13.929L52.909,18.393a2.344,2.344,0,0,0-3.751,0L34.367,38.114,23.556,25.6a2.344,2.344,0,0,0-3.549,0L4.689,43.331V4.689h66.5Z" stroke="#0c0c0c" stroke-width="3" fill="url(#linear-gradient-12)"/>
        </g>
      </g>
      <g id="Group_61" data-name="Group 61" transform="translate(23.982 39.526)">
        <g id="Group_60" data-name="Group 60">
          <path id="Path_148" data-name="Path 148" d="M8.288,0a8.288,8.288,0,1,0,8.288,8.288A8.3,8.3,0,0,0,8.288,0Zm0,11.888a3.6,3.6,0,1,1,3.6-3.6A3.6,3.6,0,0,1,8.288,11.888Z" stroke="#0c0c0c" stroke-width="3" fill="url(#linear-gradient-12)"/>
        </g>
      </g>
      <g id="Group_63" data-name="Group 63" transform="translate(79.314 32.145)">
        <g id="Group_62" data-name="Group 62" transform="translate(0 0)">
          <path id="Path_149" data-name="Path 149" d="M38.376,0H2.344A2.344,2.344,0,0,0,0,2.344V48.576A2.344,2.344,0,0,0,2.344,50.92H38.376a2.345,2.345,0,0,0,2.344-2.344V2.344A2.345,2.345,0,0,0,38.376,0ZM36.031,46.232H4.689V4.689H36.031Z" stroke="#0c0c0c" stroke-width="3" fill="url(#linear-gradient-12)"/>
        </g>
      </g>
      <g id="Group_65" data-name="Group 65" transform="translate(87.117 40.696)">
        <g id="Group_64" data-name="Group 64">
          <path id="Path_150" data-name="Path 150" d="M22.77,0H2.344a2.344,2.344,0,1,0,0,4.689H22.77A2.344,2.344,0,0,0,22.77,0Z" stroke="#0c0c0c" stroke-width="3" fill="url(#linear-gradient-12)"/>
        </g>
      </g>
      <g id="Group_67" data-name="Group 67" transform="translate(87.117 50.105)">
        <g id="Group_66" data-name="Group 66">
          <path id="Path_151" data-name="Path 151" d="M22.77,0H2.344a2.344,2.344,0,1,0,0,4.689H22.77A2.344,2.344,0,0,0,22.77,0Z" stroke="#0c0c0c" stroke-width="3" fill="url(#linear-gradient-12)"/>
        </g>
      </g>
      <g id="Group_69" data-name="Group 69" transform="translate(87.117 59.514)">
        <g id="Group_68" data-name="Group 68" transform="translate(0 0)">
          <path id="Path_152" data-name="Path 152" d="M22.77,0H2.344a2.344,2.344,0,1,0,0,4.689H22.77A2.344,2.344,0,0,0,22.77,0Z" stroke="#0c0c0c" stroke-width="3" fill="url(#linear-gradient-12)"/>
        </g>
      </g>
      <g id="Group_71" data-name="Group 71" transform="translate(87.116 68.923)">
        <g id="Group_70" data-name="Group 70" transform="translate(0 0)">
          <path id="Path_153" data-name="Path 153" d="M4.644,1.886a2.355,2.355,0,0,0-.134-.438,2.472,2.472,0,0,0-.216-.406,2.346,2.346,0,0,0-2.408-1,2.364,2.364,0,0,0-.438.134,2.492,2.492,0,0,0-.406.216A2.281,2.281,0,0,0,.4,1.042a2.494,2.494,0,0,0-.216.406,2.362,2.362,0,0,0-.134.438,2.262,2.262,0,0,0,0,.916,2.364,2.364,0,0,0,.134.439A2.475,2.475,0,0,0,.4,3.646a2.281,2.281,0,0,0,.647.647,2.5,2.5,0,0,0,.406.216,2.369,2.369,0,0,0,.438.134A2.325,2.325,0,0,0,4,4a2.51,2.51,0,0,0,.293-.356,2.491,2.491,0,0,0,.216-.406A2.361,2.361,0,0,0,4.644,2.8a2.38,2.38,0,0,0,0-.916Z" stroke="#0c0c0c" stroke-width="3" fill="url(#linear-gradient-12)"/>
        </g>
      </g>
      <g id="Group_73" data-name="Group 73" transform="translate(96.005 68.923)">
        <g id="Group_72" data-name="Group 72">
          <path id="Path_154" data-name="Path 154" d="M13.882,0H2.344a2.344,2.344,0,1,0,0,4.689H13.882a2.344,2.344,0,1,0,0-4.689Z" stroke="#0c0c0c" stroke-width="3" fill="url(#linear-gradient-12)"/>
        </g>
      </g>
      <g id="Group_75" data-name="Group 75" transform="translate(0.277 86.392)">
        <g id="Group_74" data-name="Group 74">
          <path id="Path_155" data-name="Path 155" d="M38.376,0H2.344A2.345,2.345,0,0,0,0,2.344V26.492a2.344,2.344,0,0,0,2.344,2.344H38.376a2.344,2.344,0,0,0,2.344-2.344V2.344A2.345,2.345,0,0,0,38.376,0ZM36.031,24.148H4.689V4.689H36.031Z" stroke="#0c0c0c" stroke-width="3" fill="url(#linear-gradient-12)"/>
        </g>
      </g>
      <g id="Group_77" data-name="Group 77" transform="translate(44.48 86.392)">
        <g id="Group_76" data-name="Group 76">
          <path id="Path_156" data-name="Path 156" d="M73.21,0H2.344A2.345,2.345,0,0,0,0,2.344V26.492a2.345,2.345,0,0,0,2.344,2.344H73.21a2.345,2.345,0,0,0,2.344-2.344V2.344A2.345,2.345,0,0,0,73.21,0ZM70.865,24.148H4.689V4.689H70.865V24.148Z" stroke="#0c0c0c" stroke-width="3" fill="url(#linear-gradient-12)"/>
        </g>
      </g>
      <g id="Group_79" data-name="Group 79" transform="translate(55.206 98.467)">
        <g id="Group_78" data-name="Group 78">
          <path id="Path_157" data-name="Path 157" d="M4.642,1.887a2.37,2.37,0,0,0-.134-.438,2.309,2.309,0,0,0-.216-.405A2.276,2.276,0,0,0,3.646.4,2.332,2.332,0,0,0,3.24.18,2.375,2.375,0,0,0,2.8.044a2.413,2.413,0,0,0-.917,0A2.492,2.492,0,0,0,1.447.18a2.4,2.4,0,0,0-.4.216A2.243,2.243,0,0,0,.687.686a2.382,2.382,0,0,0-.293.357,2.31,2.31,0,0,0-.216.405,2.372,2.372,0,0,0-.134.438,2.367,2.367,0,0,0,0,.914,2.45,2.45,0,0,0,.134.441A2.349,2.349,0,0,0,2.344,4.688,2.325,2.325,0,0,0,2.8,4.644a2.369,2.369,0,0,0,.438-.136,2.165,2.165,0,0,0,.406-.216,2.278,2.278,0,0,0,.647-.647,2.375,2.375,0,0,0,.216-.4A2.445,2.445,0,0,0,4.642,2.8a2.253,2.253,0,0,0,0-.914Z" stroke="#0c0c0c" stroke-width="3" fill="url(#linear-gradient-12)"/>
        </g>
      </g>
      <g id="Group_81" data-name="Group 81" transform="translate(64.094 98.466)">
        <g id="Group_80" data-name="Group 80">
          <path id="Path_158" data-name="Path 158" d="M41.714,0H2.344a2.344,2.344,0,0,0,0,4.689h39.37a2.344,2.344,0,1,0,0-4.689Z" stroke="#0c0c0c" stroke-width="3" fill="url(#linear-gradient-12)"/>
        </g>
      </g>
    </g>
    <g id="puzzle-piece_1_" data-name="puzzle-piece (1)" transform="translate(156.291 1341.507) rotate(-13)">
      <path id="Path_241" data-name="Path 241" d="M28.9,36.545a1.181,1.181,0,0,1-.436-.084l-8.906-3.543a1.181,1.181,0,0,1-.056-2.172,3.753,3.753,0,1,0-5.06-4.8,3.624,3.624,0,0,0,.009,2.775,1.181,1.181,0,0,1-1.522,1.561l-8.94-3.553A1.181,1.181,0,0,1,3.326,25.2L6.08,18.269a6.114,6.114,0,1,1,4.2-10.588L13.043.744a1.181,1.181,0,0,1,1.535-.66L36.893,8.953a3.509,3.509,0,0,1,1.963,4.55L30,35.793A1.181,1.181,0,0,1,28.9,36.545Zm-6.5-5.034,5.834,2.317,8.423-21.192a1.158,1.158,0,0,0-.639-1.482L14.8,2.716l-3.1,7.825a1.181,1.181,0,0,1-2.176.048,3.753,3.753,0,1,0-2,5.034,1.181,1.181,0,0,1,1.547,1.528L5.958,24.97,11.807,27.3a6.125,6.125,0,1,1,10.6,4.212Z" transform="translate(43.579 0)" stroke="#000" stroke-width="0.5" fill="url(#linear-gradient-28)"/>
      <path id="Path_242" data-name="Path 242" d="M1.186,2.362A1.181,1.181,0,0,1,1.176,0h.011a1.181,1.181,0,0,1,0,2.362Z" transform="translate(67.202 46.078)" stroke="#000" stroke-width="0.5" fill="url(#linear-gradient-28)"/>
      <path id="Path_243" data-name="Path 243" d="M1.187,2.362A1.181,1.181,0,1,1,1.175,0h.012a1.181,1.181,0,0,1,0,2.362Z" transform="translate(54.952 46.078)" stroke="#000" stroke-width="0.5" fill="url(#linear-gradient-28)"/>
      <path id="Path_244" data-name="Path 244" d="M1.181,2.363a1.183,1.183,0,1,1,.472-.1,1.157,1.157,0,0,1-.472.1Z" transform="translate(54.946 46.083)" stroke="#000" stroke-width="0.5" fill="url(#linear-gradient-28)"/>
      <path id="Path_245" data-name="Path 245" d="M65.4,69.542H4.166A4.165,4.165,0,0,1,0,65.387V4.143A4.16,4.16,0,0,1,4.166,0h30.6a1.181,1.181,0,0,1,1.181,1.181V13.427a1.181,1.181,0,0,1-2.008.848,5.109,5.109,0,1,0,0,7.383,1.181,1.181,0,0,1,2.008.848V33.56H44.8a7.487,7.487,0,1,1,13.557,0H68.361a1.181,1.181,0,0,1,1.181,1.181V65.387A4.153,4.153,0,0,1,65.4,69.542ZM4.166,2.362a1.8,1.8,0,0,0-1.8,1.781V65.387a1.8,1.8,0,0,0,1.8,1.793H65.4a1.789,1.789,0,0,0,1.781-1.793V35.916H56.139a1.181,1.181,0,0,1-.853-2,5.112,5.112,0,1,0-8.82-3.527A4.953,4.953,0,0,0,47.884,33.9a1.181,1.181,0,0,1-.84,2.008H34.771a1.181,1.181,0,0,1-1.181-1.181v-10a7.474,7.474,0,1,1,0-13.541V2.362Z" transform="translate(0 12.524)" stroke="#000" stroke-width="0.5" fill="url(#linear-gradient-28)"/>
      <path id="Path_246" data-name="Path 246" d="M1.181,14.621A1.181,1.181,0,0,1,0,13.44V1.188a1.181,1.181,0,0,1,2.362-.013V13.434a1.181,1.181,0,0,1-1.181,1.187Z" transform="translate(33.601 46.085)" stroke="#000" stroke-width="0.5" fill="url(#linear-gradient-28)"/>
      <path id="Path_247" data-name="Path 247" d="M1.181,14.627A1.181,1.181,0,0,1,0,13.446V1.181a1.181,1.181,0,1,1,2.362,0V13.446a1.181,1.181,0,0,1-1.181,1.181Z" transform="translate(33.61 67.392)" stroke="#000" stroke-width="0.5" fill="url(#linear-gradient-28)"/>
      <path id="Path_248" data-name="Path 248" d="M13.4,2.362H1.181A1.181,1.181,0,1,1,1.181,0H13.4a1.181,1.181,0,0,1,0,2.362Z" transform="translate(21.379 46.078)" stroke="#000" stroke-width="0.5" fill="url(#linear-gradient-28)"/>
      <path id="Path_249" data-name="Path 249" d="M13.45,2.362H1.181A1.181,1.181,0,1,1,1.181,0H13.45a1.181,1.181,0,1,1,0,2.362Z" transform="translate(0.033 46.085)" stroke="#000" stroke-width="0.5" fill="url(#linear-gradient-28)"/>
      <path id="Path_250" data-name="Path 250" d="M7.471,13.06A7.468,7.468,0,0,1,2.112.387,1.181,1.181,0,1,1,3.806,2.034a5.11,5.11,0,1,0,8.783,3.552A5.019,5.019,0,0,0,11.16,2.042,1.181,1.181,0,1,1,12.844.388a7.374,7.374,0,0,1,2.107,5.2,7.487,7.487,0,0,1-7.48,7.468Z" transform="translate(10.526 46.056)" stroke="#000" stroke-width="0.5" fill="url(#linear-gradient-28)"/>
      <path id="Path_251" data-name="Path 251" d="M5.581,14.961a7.451,7.451,0,0,1-5.2-2.11,1.181,1.181,0,1,1,1.639-1.7,5.107,5.107,0,1,0,.043-7.4,1.181,1.181,0,0,1-2.043-.8V2.942a1.181,1.181,0,0,1,.361-.849,7.48,7.48,0,1,1,5.2,12.867Z" transform="translate(33.586 56.582)" stroke="#000" stroke-width="0.5" fill="url(#linear-gradient-28)"/>
    </g>
    <g id="test" transform="matrix(0.978, -0.208, 0.208, 0.978, 126, 1175.387)">
      <path id="Path_159" data-name="Path 159" d="M101.631,0H2.209A2.209,2.209,0,0,0,0,2.209V5.554a2.208,2.208,0,1,0,4.417,0V4.417H49.711V107.365H4.417V23.13A2.208,2.208,0,1,0,0,23.13v86.444a2.209,2.209,0,0,0,2.209,2.209h99.422a2.209,2.209,0,0,0,2.209-2.209V2.209A2.209,2.209,0,0,0,101.631,0ZM99.422,107.366H54.128V4.417H99.422Zm0,0" transform="translate(0.015 0)" stroke="#101010" stroke-width="3" fill="url(#linear-gradient-39)"/>
      <path id="Path_160" data-name="Path 160" d="M16.254,0A16.255,16.255,0,1,0,32.509,16.254,16.273,16.273,0,0,0,16.254,0Zm0,28.091A11.837,11.837,0,1,1,28.092,16.254,11.851,11.851,0,0,1,16.254,28.091Zm0,0" transform="translate(10.825 8.953)" stroke="#101010" stroke-width="3" fill="url(#linear-gradient-39)"/>
      <path id="Path_161" data-name="Path 161" d="M9.651.647,5.71,4.588,3.771,2.648A2.209,2.209,0,0,0,.647,5.771l3.5,3.5a2.21,2.21,0,0,0,3.124,0l5.5-5.5A2.209,2.209,0,1,0,9.651.647Zm0,0" transform="translate(20.369 20.795)" stroke="#101010" stroke-width="3" fill="url(#linear-gradient-39)"/>
      <path id="Path_162" data-name="Path 162" d="M16.254,32.509A16.255,16.255,0,1,0,0,16.255,16.272,16.272,0,0,0,16.254,32.509Zm0-28.091A11.837,11.837,0,1,1,4.417,16.255,11.851,11.851,0,0,1,16.254,4.418Zm0,0" transform="translate(60.537 8.952)" stroke="#101010" stroke-width="3" fill="url(#linear-gradient-39)"/>
      <path id="Path_163" data-name="Path 163" d="M.647,11.239a2.209,2.209,0,0,0,3.123,0L5.943,9.066l2.173,2.173a2.209,2.209,0,1,0,3.123-3.124L9.066,5.943l2.173-2.172A2.209,2.209,0,1,0,8.116.647L5.943,2.819,3.77.647A2.209,2.209,0,1,0,.647,3.771L2.819,5.943.647,8.115A2.208,2.208,0,0,0,.647,11.239Zm0,0" transform="translate(70.848 19.265)" stroke="#101010" stroke-width="3" fill="url(#linear-gradient-39)"/>
      <path id="Path_164" data-name="Path 164" d="M0,2.209V14.351a2.209,2.209,0,0,0,2.209,2.209H14.351a2.209,2.209,0,0,0,2.208-2.209V2.209A2.209,2.209,0,0,0,14.351,0H2.209A2.208,2.208,0,0,0,0,2.209ZM4.417,4.417h7.726v7.726H4.417Zm0,0" transform="translate(8.226 46.987)" stroke="#101010" stroke-width="3" fill="url(#linear-gradient-39)"/>
      <path id="Path_165" data-name="Path 165" d="M13.569,0H2.208a2.208,2.208,0,0,0,0,4.417H13.569a2.208,2.208,0,0,0,0-4.417Zm0,0" transform="translate(29.373 49.134)" stroke="#101010" stroke-width="3" fill="url(#linear-gradient-39)"/>
      <path id="Path_166" data-name="Path 166" d="M13.569,0H2.208a2.208,2.208,0,0,0,0,4.417H13.569a2.208,2.208,0,0,0,0-4.417Zm0,0" transform="translate(29.373 57.442)" stroke="#101010" stroke-width="3" fill="url(#linear-gradient-39)"/>
      <path id="Path_167" data-name="Path 167" d="M0,14.351a2.208,2.208,0,0,0,2.209,2.208H14.351a2.208,2.208,0,0,0,2.208-2.208V2.209A2.209,2.209,0,0,0,14.351,0H2.209A2.209,2.209,0,0,0,0,2.209ZM4.417,4.418h7.726v7.725H4.417Zm0,0" transform="translate(8.226 66.853)" stroke="#101010" stroke-width="3" fill="url(#linear-gradient-39)"/>
      <path id="Path_168" data-name="Path 168" d="M13.569,0H2.208a2.208,2.208,0,0,0,0,4.417H13.569a2.208,2.208,0,0,0,0-4.417Zm0,0" transform="translate(29.373 69)" stroke="#101010" stroke-width="3" fill="url(#linear-gradient-39)"/>
      <path id="Path_169" data-name="Path 169" d="M13.569,0H2.208a2.208,2.208,0,0,0,0,4.417H13.569a2.208,2.208,0,0,0,0-4.417Zm0,0" transform="translate(29.373 77.308)" stroke="#101010" stroke-width="3" fill="url(#linear-gradient-39)"/>
      <path id="Path_170" data-name="Path 170" d="M0,14.351a2.209,2.209,0,0,0,2.209,2.209H14.351a2.209,2.209,0,0,0,2.208-2.209V2.209A2.209,2.209,0,0,0,14.351,0H2.209A2.209,2.209,0,0,0,0,2.209ZM4.417,4.417h7.726v7.726H4.417Zm0,0" transform="translate(8.226 86.719)" stroke="#101010" stroke-width="3" fill="url(#linear-gradient-39)"/>
      <path id="Path_171" data-name="Path 171" d="M13.569,0H2.208a2.209,2.209,0,0,0,0,4.418H13.569a2.209,2.209,0,0,0,0-4.418Zm0,0" transform="translate(29.373 88.866)" stroke="#101010" stroke-width="3" fill="url(#linear-gradient-39)"/>
      <path id="Path_172" data-name="Path 172" d="M13.569,0H2.208a2.209,2.209,0,0,0,0,4.418H13.569a2.209,2.209,0,0,0,0-4.418Zm0,0" transform="translate(29.373 97.174)" stroke="#101010" stroke-width="3" fill="url(#linear-gradient-39)"/>
      <path id="Path_173" data-name="Path 173" d="M2.208,16.106H33.614A2.209,2.209,0,0,0,35.823,13.9V2.209A2.209,2.209,0,0,0,33.614,0H2.208A2.209,2.209,0,0,0,0,2.209V13.9A2.209,2.209,0,0,0,2.208,16.106ZM4.417,4.417H31.405v7.271H4.417Zm0,0" transform="translate(59.085 46.987)" stroke="#101010" stroke-width="3" fill="url(#linear-gradient-39)"/>
      <path id="Path_174" data-name="Path 174" d="M2.208,4.417H24.927a2.208,2.208,0,0,0,0-4.417H2.208a2.208,2.208,0,0,0,0,4.417Zm0,0" transform="translate(59.085 67.519)" stroke="#101010" stroke-width="3" fill="url(#linear-gradient-39)"/>
      <path id="Path_175" data-name="Path 175" d="M2.208,16.106H33.614A2.209,2.209,0,0,0,35.823,13.9V2.209A2.209,2.209,0,0,0,33.614,0H2.208A2.209,2.209,0,0,0,0,2.209V13.9A2.209,2.209,0,0,0,2.208,16.106ZM4.417,4.418H31.405v7.271H4.417Zm0,0" transform="translate(59.085 76.642)" stroke="#101010" stroke-width="3" fill="url(#linear-gradient-39)"/>
      <path id="Path_176" data-name="Path 176" d="M2.208,4.418H33.614a2.209,2.209,0,1,0,0-4.418H2.208a2.209,2.209,0,0,0,0,4.418Zm0,0" transform="translate(59.085 97.174)" stroke="#101010" stroke-width="3" fill="url(#linear-gradient-39)"/>
      <path id="Path_177" data-name="Path 177" d="M4.256,1.381A2.208,2.208,0,1,0,.162,3.037l.03.073A2.208,2.208,0,1,0,4.286,1.454Zm0,0" transform="translate(90.475 67.622)" stroke="#101010" stroke-width="3" fill="url(#linear-gradient-39)"/>
      <path id="Path_178" data-name="Path 178" d="M.191,3.11a2.209,2.209,0,1,0,4.1-1.656l-.03-.073A2.208,2.208,0,0,0,.162,3.037Zm0,0" transform="translate(0 12.197)" stroke="#101010" stroke-width="3" fill="url(#linear-gradient-39)"/>
    </g>
  </g>
</svg>
