<svg xmlns="http://www.w3.org/2000/svg" xmlns:xlink="http://www.w3.org/1999/xlink" width="967.641" height="642.481" viewBox="0 0 967.641 642.481">
  <defs>
    <linearGradient id="linear-gradient" x1="0.5" x2="0.5" y2="1" gradientUnits="objectBoundingBox">
      <stop offset="0" stop-color="#ff6767"/>
      <stop offset="1" stop-color="#57bcff"/>
    </linearGradient>
    <linearGradient id="linear-gradient-4" x1="0.5" x2="0.5" y2="1" gradientUnits="objectBoundingBox">
      <stop offset="0" stop-color="#605622"/>
      <stop offset="1" stop-color="#e4d381"/>
    </linearGradient>
    <linearGradient id="linear-gradient-5" x1="-0.506" y1="-0.154" x2="-0.714" y2="1.338" gradientUnits="objectBoundingBox">
      <stop offset="0" stop-color="#ff7b7b"/>
      <stop offset="1" stop-color="#84ccc0"/>
    </linearGradient>
    <linearGradient id="linear-gradient-8" x1="0.263" y1="0.038" x2="0.585" y2="1.244" gradientUnits="objectBoundingBox">
      <stop offset="0" stop-color="#a9dfff"/>
      <stop offset="1" stop-color="#8e60bc"/>
    </linearGradient>
    <linearGradient id="linear-gradient-18" x1="0.696" y1="0.134" x2="0.5" y2="1" gradientUnits="objectBoundingBox">
      <stop offset="0" stop-color="#79dde8"/>
      <stop offset="1" stop-color="#5e65c5"/>
    </linearGradient>
    <linearGradient id="linear-gradient-19" x1="0.696" y1="0.134" x2="0.5" y2="1" gradientUnits="objectBoundingBox">
      <stop offset="0" stop-color="#e4d381"/>
      <stop offset="1" stop-color="#e59e7a"/>
    </linearGradient>
    <linearGradient id="linear-gradient-20" x1="0.696" y1="0.134" x2="0.5" y2="1" gradientUnits="objectBoundingBox">
      <stop offset="0" stop-color="#79e8ce"/>
      <stop offset="1" stop-color="#c5bb5e"/>
    </linearGradient>
    <linearGradient id="linear-gradient-21" x1="0.5" x2="0.5" y2="1" gradientUnits="objectBoundingBox">
      <stop offset="0" stop-color="#ffa17d"/>
      <stop offset="0.629" stop-color="#6f71b4"/>
      <stop offset="1" stop-color="#7628bb"/>
    </linearGradient>
    <linearGradient id="linear-gradient-22" x1="0.5" x2="0.717" y2="1" gradientUnits="objectBoundingBox">
      <stop offset="0" stop-color="#f98686"/>
      <stop offset="1" stop-color="#9f9348"/>
    </linearGradient>
    <linearGradient id="linear-gradient-23" y1="0.268" x2="0.869" y2="0.874" gradientUnits="objectBoundingBox">
      <stop offset="0" stop-color="#60b4ae"/>
      <stop offset="1" stop-color="#715bd0"/>
    </linearGradient>
    <linearGradient id="linear-gradient-24" y1="0.268" x2="0.869" y2="0.874" gradientUnits="objectBoundingBox">
      <stop offset="0" stop-color="#ff8af6"/>
      <stop offset="1" stop-color="#4aca92"/>
    </linearGradient>
  </defs>
  <g id="Group_545" data-name="Group 545" transform="translate(-91 -234.759)">
    <g id="Group_282" data-name="Group 282" transform="matrix(0.985, -0.174, 0.174, 0.985, -627.176, 203.111)">
      <g id="Smartphone" transform="matrix(0.934, -0.358, 0.358, 0.934, 1048.538, 662.482)">
        <path id="Path_36" data-name="Path 36" d="M66.326,0H11.436A11.5,11.5,0,0,0,0,11.533V131.477A11.5,11.5,0,0,0,11.435,143.01h54.89a11.5,11.5,0,0,0,11.435-11.533V11.533A11.5,11.5,0,0,0,66.326,0ZM54.388,4.613l-1.372,6.92H24.746l-1.372-6.92Zm18.8,126.863a6.9,6.9,0,0,1-6.861,6.92H11.435a6.9,6.9,0,0,1-6.861-6.92V11.533a6.9,6.9,0,0,1,6.861-6.92h7.273l1.919,9.679a2.292,2.292,0,0,0,2.243,1.854H54.89a2.292,2.292,0,0,0,2.243-1.854l1.919-9.679h7.273a6.9,6.9,0,0,1,6.861,6.92Z" transform="translate(0 0)" fill="url(#linear-gradient)"/>
        <path id="Path_37" data-name="Path 37" d="M16.01,0H2.287a2.287,2.287,0,0,0,0,4.574H16.01A2.287,2.287,0,1,0,16.01,0Z" transform="translate(9.148 129.287)" fill="url(#linear-gradient)"/>
        <path id="Path_38" data-name="Path 38" d="M4.574,0H2.287a2.287,2.287,0,1,0,0,4.574H4.574A2.287,2.287,0,1,0,4.574,0Z" transform="translate(29.732 129.287)" fill="url(#linear-gradient)"/>
      </g>
      <g id="link" transform="matrix(0.934, -0.358, 0.358, 0.934, 1084.049, 700.683)">
        <g id="Group_9" data-name="Group 9" transform="translate(0 15.563)">
          <path id="Path_34" data-name="Path 34" d="M28.214,2.779A9.434,9.434,0,0,0,21.348,0L16.643,4.707a1.364,1.364,0,0,0,1.928,1.928,4.091,4.091,0,1,1,5.785,5.785L12.434,24.334a4.091,4.091,0,1,1-5.785-5.785l3.3-3.293a11.425,11.425,0,0,1-1.022-.906,12.059,12.059,0,0,1-2.391-3.394L2.791,14.692a9.545,9.545,0,1,0,13.5,13.5L28.214,16.278c2.257-2.257,4.919-8.581,0-13.5Z" transform="translate(0 0)" fill="#e4d381"/>
        </g>
        <g id="Group_10" data-name="Group 10" transform="translate(8.07 0)">
          <path id="Path_35" data-name="Path 35" d="M22.072,16.413a11.938,11.938,0,0,1,2.391,3.394l3.511-3.516a9.545,9.545,0,1,0-13.5-13.5L2.788,14.484A9.528,9.528,0,0,0,9.653,30.761l4.705-4.705a1.364,1.364,0,0,0-1.928-1.928,4.091,4.091,0,1,1-5.785-5.785L18.332,6.648a4.091,4.091,0,1,1,5.785,5.785L21.05,15.506a11.118,11.118,0,0,1,1.022.906Z" transform="translate(0)" fill="#e4d381"/>
        </g>
      </g>
    </g>
    <path id="Path_365" data-name="Path 365" d="M0,46.575,9.315,37.26,0,27.945,9.315,18.63,0,9.315,9.315,0" transform="translate(114 339.792) rotate(-59)" fill="none" stroke="#977dff" stroke-width="4" opacity="0.73"/>
    <path id="Path_368" data-name="Path 368" d="M0,63.514l12.7-12.7L0,38.109l12.7-12.7L0,12.7,12.7,0" transform="translate(422.278 805.484) rotate(-59)" fill="none" stroke="#f0a0d9" stroke-width="4" opacity="0.76"/>
    <path id="Path_369" data-name="Path 369" d="M0,0,15.251,15.251,0,30.5,15.252,45.754,0,61.006,15.251,76.257" transform="translate(779.457 298.593) rotate(59)" fill="none" stroke="#a0bbf0" stroke-width="4"/>
    <path id="Polygon_25" data-name="Polygon 25" d="M12.982,4.331a3,3,0,0,1,5.156,0L28.42,21.605a3,3,0,0,1-2.578,4.534H5.277A3,3,0,0,1,2.7,21.605Z" transform="translate(639.215 255.074) rotate(141)" fill="url(#linear-gradient-4)"/>
    <g id="Group_276" data-name="Group 276" transform="translate(304.014 305.2)">
      <path id="Path_341" data-name="Path 341" d="M3383.771,340.252c.093-.463,9.809-39.791,9.809-39.791l-26.187,15.268,4.288,7.478s-5.121,2.424-3.085,7.328,9.624,2.221,9.624,2.221l5.09,9.069Z" transform="translate(-3360.646 -298.538)" fill="#cb65ff"/>
      <path id="Path_342" data-name="Path 342" d="M15.5,1.609c.087.473,9.281,40.7,9.281,40.7L0,26.695l4.553-8.33s-5.342-1.8-3.415-6.816c3.394-6.133,9.107-2.272,9.107-2.272L15.061,0Z" transform="matrix(-0.891, -0.454, 0.454, -0.891, 35.803, 50.875)" fill="#ff657a"/>
      <g id="Union_2" data-name="Union 2" transform="translate(53.454 33.019) rotate(149)" fill="none">
        <path d="M0,38.521V6.612H9.569a6.768,6.768,0,0,1,13.533,0H32.67V17.418a6.4,6.4,0,1,1,0,12.791v8.313Z" stroke="none"/>
        <path d="M 4.000006198883057 34.52127456665039 L 28.67041969299316 34.52125930786133 L 28.67042541503906 26.20862770080566 L 32.67042541503906 26.20862770080566 C 34.07362365722656 26.20862770080566 35.21520614624023 25.13409805297852 35.21520614624023 23.81331634521484 C 35.21520614624023 23.19101715087891 34.96218490600586 22.60104751586914 34.50274658203125 22.15209770202637 C 34.01832580566406 21.67873764038086 33.36759567260742 21.41804695129395 32.67042541503906 21.41804695129395 L 28.67042541503906 21.41804695129395 L 28.67043113708496 10.61225128173828 L 19.10170555114746 10.61225700378418 L 19.10170555114746 6.612257480621338 C 19.10170555114746 5.171847343444824 17.86067581176758 3.99999737739563 16.33523559570312 3.99999737739563 C 14.80979537963867 3.99999737739563 13.56875514984131 5.171847343444824 13.56875514984131 6.612257480621338 L 13.56875514984131 10.61225700378418 L 4.000013828277588 10.61226272583008 L 4.000006198883057 34.52127456665039 M 4.980468929716153e-06 38.52127838134766 L 1.498046913184226e-05 6.61226749420166 L 9.568755149841309 6.612257480621338 C 9.568755149841309 2.960477352142334 12.59820461273193 -2.716674771363614e-06 16.33523559570312 -2.716674771363614e-06 C 20.072265625 -2.716674771363614e-06 23.10170555114746 2.960477352142334 23.10170555114746 6.612257480621338 L 32.67043685913086 6.612247467041016 L 32.67042541503906 17.41804695129395 C 36.28513336181641 17.41804695129395 39.21521377563477 20.28138732910156 39.21520614624023 23.81332778930664 C 39.21520614624023 27.34560775756836 36.28512573242188 30.20862770080566 32.67042541503906 30.20862770080566 L 32.67041397094727 38.52125549316406 L 4.980468929716153e-06 38.52127838134766 Z" stroke="none" fill="#f057d7"/>
      </g>
    </g>
    <g id="Group_278" data-name="Group 278" transform="translate(91 576.874)">
      <path id="Path_341-2" data-name="Path 341" d="M3392.322,302.856c.141.7,14.929,60.563,14.929,60.563l-39.858-23.239,7.324-12.394s-8.593-2.676-5.493-10.141,14.648-3.38,14.648-3.38l7.746-13.8Z" transform="translate(-3357.159 -284.07)" fill="#e4d381"/>
      <path id="Path_342-2" data-name="Path 342" d="M23.589,61.954C23.722,61.233,37.715,0,37.715,0L0,23.773,6.93,36.452s-7.753,1.771-5.2,10.374,13.86,3.458,13.86,3.458l7.33,14.12Z" transform="matrix(-0.891, 0.454, -0.454, -0.891, 83.697, 62.225)" fill="#f89b6c"/>
      <g id="Union_2-2" data-name="Union 2" transform="translate(51.127 82.276) rotate(-149)" fill="none">
        <path d="M0,0V49.822H14.554a10.292,10.292,0,1,0,20.584,0H49.692V32.95a9.985,9.985,0,0,0,0-19.971V0Z" stroke="none"/>
        <path d="M 3 3 L 3.000080108642578 46.82185745239258 L 17.55419540405273 46.82187271118164 L 17.55420684814453 49.82186126708984 C 17.55421829223633 53.86045074462891 20.82534027099609 57.14607238769531 24.84609603881836 57.14608383178711 L 24.84613037109375 57.14608383178711 C 28.86685180664062 57.14608383178711 32.1379508972168 53.8604736328125 32.1379508972168 49.82190704345703 L 32.1379508972168 46.82189559936523 L 46.69206619262695 46.82193374633789 L 46.6920280456543 29.9500617980957 L 49.69203948974609 29.9500617980957 C 53.52685165405273 29.9500617980957 56.64669418334961 26.8164176940918 56.64669418334961 22.96465301513672 C 56.64668273925781 19.11287307739258 53.52682876586914 15.97921752929688 49.69199371337891 15.97920608520508 L 46.6920051574707 15.97919464111328 L 46.69198989868164 3.000080108642578 L 3 3 M -3.814697265625e-06 -3.814697265625e-06 L 49.69198608398438 8.392333984375e-05 L 49.6920051574707 12.97920608520508 C 55.19000625610352 12.97921752929688 59.64668273925781 17.44944000244141 59.64669418334961 22.96464157104492 C 59.64669418334961 28.47931861877441 55.1900520324707 32.9500617980957 49.69203948974609 32.9500617980957 L 49.69207382202148 49.82194137573242 L 35.1379508972168 49.82190704345703 C 35.1379508972168 55.52369689941406 30.5301513671875 60.1461067199707 24.84608459472656 60.14608383178711 C 19.16204071044922 60.14607238769531 14.55421829223633 55.52366256713867 14.55420684814453 49.82187271118164 L 8.392333984375e-05 49.82185363769531 L -3.814697265625e-06 -3.814697265625e-06 Z" stroke="none" fill="#fce089"/>
      </g>
    </g>
    <g id="Group_307" data-name="Group 307" transform="translate(-779.738 -43.264)">
      <g id="Group_305" data-name="Group 305" transform="translate(1169.738 468.606) rotate(-16)">
        <path id="Union_6" data-name="Union 6" d="M24.591,87.823A24.619,24.619,0,0,1,0,63.232V24.59A24.62,24.62,0,0,1,24.591,0H63.232a24.619,24.619,0,0,1,24.59,24.59V63.232a24.62,24.62,0,0,1-24.59,24.59Z" transform="translate(0 0)" fill="none" stroke="#946dd9" stroke-width="3"/>
      </g>
      <g id="Group_290" data-name="Group 290" transform="translate(1192.354 486.153) rotate(-16)">
        <path id="Path_6" data-name="Path 6" d="M14.113,12.242,3.088.561a1.788,1.788,0,1,0-2.6,2.454l9.867,10.453L.488,23.923a1.788,1.788,0,0,0,2.6,2.455L14.113,14.7A1.789,1.789,0,0,0,14.113,12.242Z" transform="translate(40.295 11.313) rotate(20)" fill="url(#linear-gradient-5)"/>
        <path id="Path_7" data-name="Path 7" d="M14.114,23.923,4.247,13.469,14.114,3.015a1.788,1.788,0,0,0-2.6-2.454L.488,12.242a1.789,1.789,0,0,0,0,2.455L11.514,26.378a1.788,1.788,0,0,0,2.6-2.455Z" transform="translate(9.213 0) rotate(20)" fill="url(#linear-gradient-5)"/>
        <path id="Path_8" data-name="Path 8" d="M7.3.02a1.79,1.79,0,0,0-2.038,1.5L.021,35.846a1.788,1.788,0,0,0,1.5,2.038,1.841,1.841,0,0,0,.272.02,1.788,1.788,0,0,0,1.765-1.518L8.8,2.058A1.788,1.788,0,0,0,7.3.02Z" transform="translate(29.345 1.492) rotate(20)" fill="url(#linear-gradient-5)"/>
      </g>
    </g>
    <g id="Group_281" data-name="Group 281" transform="translate(-669.531 8.107)">
      <circle id="Ellipse_47" data-name="Ellipse 47" cx="38.48" cy="38.48" r="38.48" transform="translate(1587.835 308.099)" fill="#ff7070" opacity="0"/>
      <circle id="Ellipse_48" data-name="Ellipse 48" cx="35.052" cy="35.052" r="35.052" transform="translate(1559.069 370.591)" fill="#9ebeff" opacity="0"/>
      <g id="web-site" transform="translate(1525.102 331.784) rotate(-17)">
        <path id="Path_41" data-name="Path 41" d="M125.217,124.638H16.036A16.055,16.055,0,0,1,0,108.6V16.036A16.055,16.055,0,0,1,16.036,0H125.217a16.055,16.055,0,0,1,16.036,16.036V108.6A16.055,16.055,0,0,1,125.217,124.638ZM16.036,4.777A11.272,11.272,0,0,0,4.777,16.036V108.6a11.272,11.272,0,0,0,11.259,11.259H125.217A11.272,11.272,0,0,0,136.476,108.6V16.036A11.272,11.272,0,0,0,125.217,4.777Zm0,0" transform="translate(0 0)"/>
        <path id="Path_42" data-name="Path 42" d="M39.918,4.777H2.388A2.388,2.388,0,0,1,2.388,0h37.53a2.388,2.388,0,0,1,0,4.777Zm0,0" transform="translate(79.778 83.398)"/>
        <path id="Path_43" data-name="Path 43" d="M39.918,4.777H2.388A2.388,2.388,0,0,1,2.388,0h37.53a2.388,2.388,0,0,1,0,4.777Zm0,0" transform="translate(79.778 100.666)"/>
        <path id="Path_44" data-name="Path 44" d="M39.918,4.777H2.388A2.388,2.388,0,0,1,2.388,0h37.53a2.388,2.388,0,0,1,0,4.777Zm0,0" transform="translate(79.778 48.863)"/>
        <path id="Path_45" data-name="Path 45" d="M39.918,4.777H2.388A2.388,2.388,0,0,1,2.388,0h37.53a2.388,2.388,0,0,1,0,4.777Zm0,0" transform="translate(79.778 66.131)"/>
        <path id="Path_46" data-name="Path 46" d="M138.864,4.777H2.388A2.388,2.388,0,0,1,2.388,0H138.864a2.388,2.388,0,0,1,0,4.777Zm0,0" transform="translate(0 27.203)"/>
        <path id="Path_47" data-name="Path 47" d="M7.433,14.863a7.432,7.432,0,1,1,7.432-7.432A7.44,7.44,0,0,1,7.433,14.863Zm0-10.086a2.655,2.655,0,1,0,2.655,2.655A2.659,2.659,0,0,0,7.433,4.777Zm0,0" transform="translate(26.998 8.604)"/>
        <path id="Path_48" data-name="Path 48" d="M7.432,14.863a7.432,7.432,0,1,1,7.433-7.432A7.44,7.44,0,0,1,7.432,14.863Zm0-10.086a2.655,2.655,0,1,0,2.656,2.655A2.659,2.659,0,0,0,7.432,4.777Zm0,0" transform="translate(9.791 8.604)"/>
        <path id="Path_49" data-name="Path 49" d="M7.432,14.863a7.432,7.432,0,1,1,7.433-7.432A7.439,7.439,0,0,1,7.432,14.863Zm0-10.086a2.655,2.655,0,1,0,2.656,2.655A2.658,2.658,0,0,0,7.432,4.777Zm0,0" transform="translate(44.207 8.604)"/>
        <path id="Path_50" data-name="Path 50" d="M45.719,56.579H2.388A2.388,2.388,0,0,1,0,54.19V2.388A2.389,2.389,0,0,1,2.388,0H45.719a2.389,2.389,0,0,1,2.388,2.388v51.8A2.388,2.388,0,0,1,45.719,56.579ZM4.777,51.8H43.331V4.777H4.777Zm0,0" transform="translate(18.424 48.863)"/>
      </g>
      <g id="web-site-2" data-name="web-site" transform="translate(1525.102 331.784) rotate(-17)">
        <path id="Path_41-2" data-name="Path 41" d="M125.217,124.638H16.036A16.055,16.055,0,0,1,0,108.6V16.036A16.055,16.055,0,0,1,16.036,0H125.217a16.055,16.055,0,0,1,16.036,16.036V108.6A16.055,16.055,0,0,1,125.217,124.638ZM16.036,4.777A11.272,11.272,0,0,0,4.777,16.036V108.6a11.272,11.272,0,0,0,11.259,11.259H125.217A11.272,11.272,0,0,0,136.476,108.6V16.036A11.272,11.272,0,0,0,125.217,4.777Zm0,0" transform="translate(0 0)" fill="url(#linear-gradient-8)"/>
        <path id="Path_42-2" data-name="Path 42" d="M39.918,4.777H2.388A2.388,2.388,0,0,1,2.388,0h37.53a2.388,2.388,0,0,1,0,4.777Zm0,0" transform="translate(79.778 83.398)" fill="url(#linear-gradient-8)"/>
        <path id="Path_43-2" data-name="Path 43" d="M39.918,4.777H2.388A2.388,2.388,0,0,1,2.388,0h37.53a2.388,2.388,0,0,1,0,4.777Zm0,0" transform="translate(79.778 100.666)" fill="url(#linear-gradient-8)"/>
        <path id="Path_44-2" data-name="Path 44" d="M39.918,4.777H2.388A2.388,2.388,0,0,1,2.388,0h37.53a2.388,2.388,0,0,1,0,4.777Zm0,0" transform="translate(79.778 48.863)" fill="url(#linear-gradient-8)"/>
        <path id="Path_45-2" data-name="Path 45" d="M39.918,4.777H2.388A2.388,2.388,0,0,1,2.388,0h37.53a2.388,2.388,0,0,1,0,4.777Zm0,0" transform="translate(79.778 66.131)" fill="url(#linear-gradient-8)"/>
        <path id="Path_46-2" data-name="Path 46" d="M138.864,4.777H2.388A2.388,2.388,0,0,1,2.388,0H138.864a2.388,2.388,0,0,1,0,4.777Zm0,0" transform="translate(0 27.203)" fill="url(#linear-gradient-8)"/>
        <path id="Path_47-2" data-name="Path 47" d="M7.433,14.863a7.432,7.432,0,1,1,7.432-7.432A7.44,7.44,0,0,1,7.433,14.863Zm0-10.086a2.655,2.655,0,1,0,2.655,2.655A2.659,2.659,0,0,0,7.433,4.777Zm0,0" transform="translate(26.998 8.604)" fill="url(#linear-gradient-8)"/>
        <path id="Path_48-2" data-name="Path 48" d="M7.432,14.863a7.432,7.432,0,1,1,7.433-7.432A7.44,7.44,0,0,1,7.432,14.863Zm0-10.086a2.655,2.655,0,1,0,2.656,2.655A2.659,2.659,0,0,0,7.432,4.777Zm0,0" transform="translate(9.791 8.604)" fill="url(#linear-gradient-8)"/>
        <path id="Path_49-2" data-name="Path 49" d="M7.432,14.863a7.432,7.432,0,1,1,7.433-7.432A7.439,7.439,0,0,1,7.432,14.863Zm0-10.086a2.655,2.655,0,1,0,2.656,2.655A2.658,2.658,0,0,0,7.432,4.777Zm0,0" transform="translate(44.207 8.604)" fill="url(#linear-gradient-8)"/>
        <path id="Path_50-2" data-name="Path 50" d="M45.719,56.579H2.388A2.388,2.388,0,0,1,0,54.19V2.388A2.389,2.389,0,0,1,2.388,0H45.719a2.389,2.389,0,0,1,2.388,2.388v51.8A2.388,2.388,0,0,1,45.719,56.579ZM4.777,51.8H43.331V4.777H4.777Zm0,0" transform="translate(18.424 48.863)" fill="url(#linear-gradient-8)"/>
      </g>
    </g>
    <rect id="Rectangle_51" data-name="Rectangle 51" width="41.667" height="41.951" rx="20.834" transform="translate(192.724 478.102) rotate(-41)" fill="url(#linear-gradient-18)"/>
    <rect id="Rectangle_57" data-name="Rectangle 57" width="94.268" height="94.762" rx="47.134" transform="translate(817.555 752.834) rotate(-41)" fill="url(#linear-gradient-19)"/>
    <rect id="Rectangle_52" data-name="Rectangle 52" width="25.476" height="25.649" rx="12.738" transform="translate(156.669 251.473) rotate(-41)" fill="url(#linear-gradient-20)"/>
    <g id="Group_306" data-name="Group 306" transform="matrix(1, -0.017, 0.017, 1, -936.177, -17.141)">
      <g id="Group_280" data-name="Group 280" transform="translate(1527.012 457.167)">
        <path id="Path_345" data-name="Path 345" d="M3445.263,505.755l5.3,6.083,10.99-8.831-1.57-2.944-5.3-3.532Z" transform="translate(-3362.733 -465.182)" fill="#bfa775" stroke="#707070" stroke-width="1"/>
        <path id="Path_346" data-name="Path 346" d="M3450.325,509.016l2.453,4.514s26.688,33.361,34.146,40.033,15.5,18.643,22.371,15.5,5.495-8.046,0-13.737-22.371-26.885-22.371-26.885l-28.848-27.278Z" transform="translate(-3359.651 -462.36)" fill="#f8c14e" stroke="#707070" stroke-width="1"/>
        <path id="Path_344" data-name="Path 344" d="M1240.28,380.73l4.585,21.727s9.936,7.513,16.412,9.083a56.145,56.145,0,0,0,9.028-8.046s-3.14-12.756-5.888-14.914-17.858-10.008-24.138-7.85" transform="translate(-1178.748 -371.753)" fill="#292929" stroke="#707070" stroke-width="1"/>
        <path id="Path_343" data-name="Path 343" d="M1247.08,395.176c-4.856-.765-11.489-3.827-18.122,12.246s-13.521,37.246-10.46,50,2.04,27.042,17.6,41.073,35.716,17.6,35.716,17.6,43.625,1.021,53.064-17.6,7.653-19.9,7.653-19.9v-11.48l-27.3-28.828s-11.735.51-26.277,1.786-23.725-16.582-23.725-16.582-1.531-13.011,0-16.072S1251.936,395.941,1247.08,395.176Z" transform="translate(-1192.473 -363.176)" fill="none"/>
        <ellipse id="Ellipse_49" data-name="Ellipse 49" cx="8.046" cy="8.85" rx="8.046" ry="8.85" transform="translate(38.515 72.396)" fill="#ff5959"/>
        <ellipse id="Ellipse_50" data-name="Ellipse 50" cx="10.46" cy="10.46" rx="10.46" ry="10.46" transform="translate(46.561 99.751)" fill="#ffc159"/>
        <ellipse id="Ellipse_51" data-name="Ellipse 51" cx="11.264" cy="11.264" rx="11.264" ry="11.264" transform="translate(72.308 114.234)" fill="#ff9b59"/>
        <ellipse id="Ellipse_52" data-name="Ellipse 52" cx="10.46" cy="10.46" rx="10.46" ry="10.46" transform="translate(104.491 106.188)" fill="#459586"/>
        <g id="artist" transform="matrix(0.407, -0.914, 0.914, 0.407, 0, 121.877)">
          <path id="Path_5" data-name="Path 5" d="M43.195,128.746c1.068.2,7.073.54,7.576-1.279s-5.8-2.4-6.869-2.595A34.753,34.753,0,0,1,24.38,114.046C9.16,97.43,2.384,79.508,4.239,60.778,8.425,18.509,53-2.53,94.107,5.692a9.592,9.592,0,0,1,7.881,9.176,9.466,9.466,0,0,1-6.9,9.739C88.167,26.673,82.7,29.69,78.827,33.572c-8.869,8.9-9.638,23.911-1.169,34.024a34.649,34.649,0,0,1,7.755,17.542c-4.458,10.133-9.018,21.609-12.546,32.231a35.638,35.638,0,0,1-20.261,8c-1.085.071-9.653-1.167-10.313,1.349s9.411,2.584,10.44,2.584c.043,0,.086,0,.13,0a39.743,39.743,0,0,0,18.027-5.708,8.486,8.486,0,0,0,15.55,6.5c3.791-6.708,7.9-14.849,11.879-23.544.453-.989,3.9-6.991,1.74-8.311s-4.868,5.684-5.32,6.672c-3.934,8.6-7.989,16.633-11.727,23.245a4.563,4.563,0,0,1-5.933,1.864,4.517,4.517,0,0,1-2.386-5.408c5.082-16.765,13.558-37.172,21.323-52.952l10.582,4.53c-2.467,6.724-5.278,13.725-8.146,20.363-.431,1-4.438,9.989-2.513,11.056s5.7-8.5,6.128-9.5c5.4-12.536,11.431-28.193,14.949-41.366a4.468,4.468,0,0,0,2.633-2.473l1.7-3.981a4.5,4.5,0,0,0,.286-2.607c3.277-2.092,7.864-5.823,10.241-11.376,2.937-6.859.985-18.48-.439-24.8a3.879,3.879,0,0,0-5.779-2.474c-5.554,3.33-15.309,9.94-18.245,16.8-2.376,5.551-1.911,11.444-1.163,15.259a4.489,4.489,0,0,0-1.688,2.01l-1.7,3.981a4.466,4.466,0,0,0,.028,3.612A286.289,286.289,0,0,0,88.135,79.084a38.466,38.466,0,0,0-7.458-14.015A20.858,20.858,0,0,1,75.7,51.33c0-11.163,6.9-18.884,20.512-22.95a13.278,13.278,0,0,0,9.709-13.694A13.586,13.586,0,0,0,94.879,1.831C51.545-6.836,4.749,15.685.321,60.39c-1.97,19.891,5.148,38.838,21.156,56.315A38.659,38.659,0,0,0,43.195,128.746Zm62.719-75.433,7.13,3.052c-1.287,4.734-3.031,10.235-5.108,16.115L97.78,68.132c2.821-5.563,5.6-10.621,8.134-14.819Zm11.822-4.569-1.7,3.981a.586.586,0,0,1-.768.307l-8.472-3.626a.585.585,0,0,1-.307-.768l1.7-3.981a.585.585,0,0,1,.768-.307l8.471,3.626a.591.591,0,0,1,.307.768Zm-6.7-21.356c.862-2.014,4.2-7.5,16.581-14.929,3.166,14.088,1.505,20.288.643,22.3-2.033,4.749-6.122,7.974-8.963,9.749-.105-.055-.213-.107-.323-.154l-8.472-3.626h0q-.164-.07-.334-.127c-.676-3.282-1.165-8.466.867-13.215Z" transform="translate(0 0)" fill="url(#linear-gradient-21)"/>
        </g>
      </g>
    </g>
    <path id="Polygon_30" data-name="Polygon 30" d="M24.94,9.117a6,6,0,0,1,10.419,0l19.81,34.668a6,6,0,0,1-5.209,8.977H10.339A6,6,0,0,1,5.13,43.785Z" transform="translate(886.017 519.027) rotate(-13)" fill="url(#linear-gradient-22)"/>
    <g id="Group_279" data-name="Group 279" transform="translate(770.01 624.501)">
      <g id="cube" transform="translate(57.428 0) rotate(16)">
        <path id="Path_9" data-name="Path 9" d="M190.337,49.008A4.029,4.029,0,0,0,188,45.438L97.326.5A4.908,4.908,0,0,0,93.01.5L2.337,45.438A4.029,4.029,0,0,0,0,49.008V159.95a4.032,4.032,0,0,0,2.357,3.581l90.673,44.4.113.044a5.651,5.651,0,0,0,4.179-.052l.035-.015,90.623-44.373a4.032,4.032,0,0,0,2.357-3.581V49.008ZM95.168,8.711l81.31,40.3-81.31,40.3-81.31-40.3ZM8.991,55.877,90.673,96.359v101.16l-81.683-40ZM99.663,197.519V96.359l81.683-40.482V157.523Z" transform="translate(0 0)" fill="url(#linear-gradient-23)"/>
        <path id="Path_10" data-name="Path 10" d="M7.375,1.23,6.007.491A4.07,4.07,0,1,0,2.135,7.652L3.5,8.391A4.07,4.07,0,1,0,7.375,1.23Z" transform="translate(165.07 144.152)" fill="url(#linear-gradient-24)"/>
        <path id="Path_11" data-name="Path 11" d="M7.375,1.23,6.007.491A4.07,4.07,0,1,0,2.135,7.652L3.5,8.391A4.07,4.07,0,1,0,7.375,1.23Z" transform="translate(108.669 117.534)" fill="url(#linear-gradient-24)"/>
        <path id="Path_12" data-name="Path 12" d="M7.375,1.23,6.007.491A4.07,4.07,0,1,0,2.135,7.652L3.5,8.391A4.07,4.07,0,1,0,7.375,1.23Z" transform="translate(126.889 126.407)" fill="url(#linear-gradient-24)"/>
        <path id="Path_13" data-name="Path 13" d="M7.375,1.23,6.007.491A4.07,4.07,0,1,0,2.135,7.652L3.5,8.391A4.07,4.07,0,1,0,7.375,1.23Z" transform="translate(145.11 135.279)" fill="url(#linear-gradient-24)"/>
        <path id="Path_14" data-name="Path 14" d="M3.5.491,2.135,1.23A4.071,4.071,0,1,0,6.008,8.391l1.368-.739A4.07,4.07,0,1,0,3.5.491Z" transform="translate(15.757 144.152)" fill="url(#linear-gradient-24)"/>
        <path id="Path_15" data-name="Path 15" d="M3.5.491,2.135,1.23A4.07,4.07,0,1,0,6.008,8.391l1.368-.739A4.071,4.071,0,1,0,3.5.491Z" transform="translate(53.937 126.407)" fill="url(#linear-gradient-24)"/>
        <path id="Path_16" data-name="Path 16" d="M9.02,2.135A4.07,4.07,0,0,0,3.5.491L2.135,1.23A4.071,4.071,0,1,0,6.008,8.391l1.368-.739A4.072,4.072,0,0,0,9.02,2.135Z" transform="translate(72.158 117.534)" fill="url(#linear-gradient-24)"/>
        <path id="Path_17" data-name="Path 17" d="M3.5.491,2.135,1.23A4.07,4.07,0,1,0,6.008,8.391l1.368-.739A4.07,4.07,0,1,0,3.5.491Z" transform="translate(35.716 135.279)" fill="url(#linear-gradient-24)"/>
        <path id="Path_18" data-name="Path 18" d="M4.074,9.7h.009a4.071,4.071,0,0,0,4.061-4.08l0-1.554A4.071,4.071,0,0,0,4.071,0h-.01A4.071,4.071,0,0,0,0,4.08L0,5.634A4.071,4.071,0,0,0,4.074,9.7Z" transform="translate(91.032 16.778)" fill="url(#linear-gradient-24)"/>
        <path id="Path_19" data-name="Path 19" d="M4.074,9.7h.009a4.071,4.071,0,0,0,4.061-4.08l0-1.554A4.07,4.07,0,0,0,4.071,0h-.01A4.071,4.071,0,0,0,0,4.08L0,5.634A4.07,4.07,0,0,0,4.074,9.7Z" transform="translate(91.078 35.432)" fill="url(#linear-gradient-24)"/>
        <path id="Path_20" data-name="Path 20" d="M4.084,9.7a4.071,4.071,0,0,0,4.061-4.08l0-1.555A4.071,4.071,0,0,0,4.071,0H4.061A4.071,4.071,0,0,0,0,4.08L0,5.634A4.071,4.071,0,0,0,4.074,9.7Z" transform="translate(91.17 72.739)" fill="url(#linear-gradient-24)"/>
        <path id="Path_21" data-name="Path 21" d="M4.074,9.7h.01a4.071,4.071,0,0,0,4.061-4.08l0-1.554A4.071,4.071,0,0,0,4.071,0h-.01A4.071,4.071,0,0,0,0,4.08L0,5.634A4.071,4.071,0,0,0,4.074,9.7Z" transform="translate(91.124 54.085)" fill="url(#linear-gradient-24)"/>
      </g>
    </g>
  </g>
</svg>
