<svg xmlns="http://www.w3.org/2000/svg" width="20.777" height="20.777" viewBox="0 0 20.777 20.777">
  <path id="instagram" d="M13.388,3c-2.821,0-3.175.012-4.283.062a7.645,7.645,0,0,0-2.522.483A5.309,5.309,0,0,0,3.545,6.584a7.659,7.659,0,0,0-.483,2.522C3.012,10.213,3,10.567,3,13.388s.012,3.175.062,4.283a7.645,7.645,0,0,0,.483,2.522,5.307,5.307,0,0,0,3.039,3.039,7.659,7.659,0,0,0,2.522.483c1.108.05,1.462.062,4.283.062s3.175-.012,4.283-.062a7.645,7.645,0,0,0,2.522-.483,5.307,5.307,0,0,0,3.039-3.039,7.659,7.659,0,0,0,.483-2.522c.05-1.108.062-1.462.062-4.283s-.012-3.175-.062-4.283a7.645,7.645,0,0,0-.483-2.522,5.307,5.307,0,0,0-3.039-3.039,7.659,7.659,0,0,0-2.522-.483C16.563,3.012,16.209,3,13.388,3m0,1.872c2.774,0,3.1.01,4.2.06a5.771,5.771,0,0,1,1.93.357,3.439,3.439,0,0,1,1.972,1.972,5.765,5.765,0,0,1,.357,1.929c.05,1.1.06,1.423.06,4.2s-.01,3.1-.06,4.2a5.808,5.808,0,0,1-.357,1.93,3.439,3.439,0,0,1-1.972,1.972,5.765,5.765,0,0,1-1.929.357c-1.095.05-1.423.06-4.2.06s-3.1-.01-4.2-.06a5.808,5.808,0,0,1-1.93-.357A3.439,3.439,0,0,1,5.29,19.515a5.729,5.729,0,0,1-.357-1.929c-.05-1.1-.06-1.423-.06-4.2s.01-3.1.06-4.2a5.771,5.771,0,0,1,.357-1.93A3.439,3.439,0,0,1,7.261,5.29,5.729,5.729,0,0,1,9.19,4.932c1.1-.05,1.423-.06,4.2-.06m0,11.979a3.462,3.462,0,1,1,3.463-3.462,3.462,3.462,0,0,1-3.463,3.462m0-8.8a5.334,5.334,0,1,0,5.334,5.334,5.334,5.334,0,0,0-5.334-5.334m6.792-.211A1.247,1.247,0,1,1,18.933,6.6,1.247,1.247,0,0,1,20.18,7.844" transform="translate(-3 -3)" fill="#fff" fill-rule="evenodd"/>
</svg>
