<svg id="japan" xmlns="http://www.w3.org/2000/svg" width="59.491" height="38.999" viewBox="0 0 59.491 38.999">
  <path id="Path_84" data-name="Path 84" d="M56.756,88.178H2.734A2.737,2.737,0,0,0,0,90.912v33.531a2.737,2.737,0,0,0,2.734,2.734H56.756a2.737,2.737,0,0,0,2.734-2.734V90.912A2.737,2.737,0,0,0,56.756,88.178Zm.991,36.265a.993.993,0,0,1-.991.991H2.734a.992.992,0,0,1-.991-.991V90.912a.992.992,0,0,1,.991-.991H56.756a.992.992,0,0,1,.991.991Z" transform="translate(0 -88.178)" fill="#fdd6ff"/>
  <path id="Path_85" data-name="Path 85" d="M185.812,172.664a.871.871,0,0,0-.245,1.208,8.449,8.449,0,1,1-2.389-2.389.871.871,0,1,0,.962-1.453,10.193,10.193,0,1,0,2.88,2.88A.872.872,0,0,0,185.812,172.664Z" transform="translate(-148.779 -159.025)" fill="#fdd6ff"/>
</svg>
