<svg xmlns="http://www.w3.org/2000/svg" width="20.592" height="28.827" viewBox="0 0 20.592 28.827">
  <g id="location" transform="translate(-6.75 -2.25)">
    <path id="Path_71" data-name="Path 71" d="M19.868,13.309a2.059,2.059,0,1,1-2.059-2.059A2.059,2.059,0,0,1,19.868,13.309Z" transform="translate(-0.763 -0.763)" fill="#c28cff"/>
    <path id="Path_72" data-name="Path 72" d="M17.046,2.25A10.09,10.09,0,0,0,6.75,12.1c0,2.584,1.178,6.023,3.5,10.217A75.513,75.513,0,0,0,15.4,30.242a2.043,2.043,0,0,0,3.3,0,75.812,75.812,0,0,0,5.148-7.929c2.321-4.193,3.5-7.631,3.5-10.217A10.09,10.09,0,0,0,17.046,2.25Zm0,14.414a4.118,4.118,0,1,1,4.118-4.118A4.118,4.118,0,0,1,17.046,16.664Z" transform="translate(0)" fill="#c28cff"/>
  </g>
</svg>
