<svg xmlns="http://www.w3.org/2000/svg" xmlns:xlink="http://www.w3.org/1999/xlink" width="23.57" height="32.57" viewBox="0 0 23.57 32.57">
  <defs>
    <linearGradient id="linear-gradient" y1="0.181" x2="1.217" y2="1.176" gradientUnits="objectBoundingBox">
      <stop offset="0" stop-color="#d17585"/>
      <stop offset="1" stop-color="#755ccd"/>
    </linearGradient>
  </defs>
  <g id="map-marker-line" transform="translate(-6.22 -2)">
    <path id="Path_439" data-name="Path 439" d="M18,6.72a5.73,5.73,0,1,0,5.73,5.73A5.73,5.73,0,0,0,18,6.72Zm0,9.46a3.724,3.724,0,1,0,0-.01Z" fill="url(#linear-gradient)"/>
    <path id="Path_440" data-name="Path 440" d="M18,2A11.79,11.79,0,0,0,6.22,13.73c0,4.67,2.62,8.58,4.54,11.43l.35.52a99.611,99.611,0,0,0,6.14,8l.76.89.76-.89a99.821,99.821,0,0,0,6.14-8l.35-.53c1.91-2.85,4.53-6.75,4.53-11.42A11.79,11.79,0,0,0,18,2Zm5.59,22-.36.53A81.3,81.3,0,0,1,18,31.43c-1.18-1.43-3.51-4.32-5.23-6.9L12.42,24c-1.77-2.64-4.2-6.25-4.2-10.31a9.78,9.78,0,1,1,19.56,0c0,4.1-2.42,7.71-4.19,10.31Z" fill="url(#linear-gradient)"/>
  </g>
</svg>
