<svg xmlns="http://www.w3.org/2000/svg" xmlns:xlink="http://www.w3.org/1999/xlink" width="96.456" height="84.536" viewBox="0 0 96.456 84.536">
  <defs>
    <linearGradient id="linear-gradient" x1="0.715" y1="0.048" x2="0.41" y2="1.079" gradientUnits="objectBoundingBox">
      <stop offset="0" stop-color="#ffa9a9"/>
      <stop offset="1" stop-color="#ae9069"/>
    </linearGradient>
  </defs>
  <path id="Path_107" data-name="Path 107" d="M8.038,85.036H88.417A8.047,8.047,0,0,0,96.456,77V25.555a8.047,8.047,0,0,0-8.038-8.037H77.165V3.714a3.215,3.215,0,0,0-5.488-2.273L55.6,17.518H8.038A8.047,8.047,0,0,0,0,25.555V77a8.047,8.047,0,0,0,8.038,8.038ZM3.215,25.555a4.823,4.823,0,0,1,4.823-4.822H56.266a1.611,1.611,0,0,0,1.136-.471L73.95,3.714v15.41a1.608,1.608,0,0,0,1.607,1.608H88.417a4.823,4.823,0,0,1,4.823,4.822V77a4.823,4.823,0,0,1-4.823,4.823H8.038A4.823,4.823,0,0,1,3.215,77Zm0,0" transform="translate(0 -0.5)" fill="url(#linear-gradient)"/>
</svg>
