<svg xmlns="http://www.w3.org/2000/svg" xmlns:xlink="http://www.w3.org/1999/xlink" width="86.689" height="99.195" viewBox="0 0 86.689 99.195">
  <defs>
    <linearGradient id="linear-gradient" x1="-1.084" y1="1.172" x2="0.5" y2="1" gradientUnits="objectBoundingBox">
      <stop offset="0" stop-color="#7fe4de"/>
      <stop offset="1" stop-color="#60b4ae"/>
    </linearGradient>
  </defs>
  <g id="puzzle-piece_1_" data-name="puzzle-piece (1)" transform="translate(-2.517 18.932) rotate(-13)">
    <path id="Path_241" data-name="Path 241" d="M28.9,36.545a1.181,1.181,0,0,1-.436-.084l-8.906-3.543a1.181,1.181,0,0,1-.056-2.172,3.753,3.753,0,1,0-5.06-4.8,3.624,3.624,0,0,0,.009,2.775,1.181,1.181,0,0,1-1.522,1.561l-8.94-3.553A1.181,1.181,0,0,1,3.326,25.2L6.08,18.269a6.114,6.114,0,1,1,4.2-10.588L13.043.744a1.181,1.181,0,0,1,1.535-.66L36.893,8.953a3.509,3.509,0,0,1,1.963,4.55L30,35.793A1.181,1.181,0,0,1,28.9,36.545Zm-6.5-5.034,5.834,2.317,8.423-21.192a1.158,1.158,0,0,0-.639-1.482L14.8,2.716l-3.1,7.825a1.181,1.181,0,0,1-2.176.048,3.753,3.753,0,1,0-2,5.034,1.181,1.181,0,0,1,1.547,1.528L5.958,24.97,11.807,27.3a6.125,6.125,0,1,1,10.6,4.212Z" transform="translate(43.579 0)" stroke="#000" stroke-width="0.5" fill="url(#linear-gradient)"/>
    <path id="Path_242" data-name="Path 242" d="M1.186,2.362A1.181,1.181,0,0,1,1.176,0h.011a1.181,1.181,0,0,1,0,2.362Z" transform="translate(67.202 46.078)" stroke="#000" stroke-width="0.5" fill="url(#linear-gradient)"/>
    <path id="Path_243" data-name="Path 243" d="M1.187,2.362A1.181,1.181,0,1,1,1.175,0h.012a1.181,1.181,0,0,1,0,2.362Z" transform="translate(54.952 46.078)" stroke="#000" stroke-width="0.5" fill="url(#linear-gradient)"/>
    <path id="Path_244" data-name="Path 244" d="M1.181,2.363a1.183,1.183,0,1,1,.472-.1,1.157,1.157,0,0,1-.472.1Z" transform="translate(54.946 46.083)" stroke="#000" stroke-width="0.5" fill="url(#linear-gradient)"/>
    <path id="Path_245" data-name="Path 245" d="M65.4,69.542H4.166A4.165,4.165,0,0,1,0,65.387V4.143A4.16,4.16,0,0,1,4.166,0h30.6a1.181,1.181,0,0,1,1.181,1.181V13.427a1.181,1.181,0,0,1-2.008.848,5.109,5.109,0,1,0,0,7.383,1.181,1.181,0,0,1,2.008.848V33.56H44.8a7.487,7.487,0,1,1,13.557,0H68.361a1.181,1.181,0,0,1,1.181,1.181V65.387A4.153,4.153,0,0,1,65.4,69.542ZM4.166,2.362a1.8,1.8,0,0,0-1.8,1.781V65.387a1.8,1.8,0,0,0,1.8,1.793H65.4a1.789,1.789,0,0,0,1.781-1.793V35.916H56.139a1.181,1.181,0,0,1-.853-2,5.112,5.112,0,1,0-8.82-3.527A4.953,4.953,0,0,0,47.884,33.9a1.181,1.181,0,0,1-.84,2.008H34.771a1.181,1.181,0,0,1-1.181-1.181v-10a7.474,7.474,0,1,1,0-13.541V2.362Z" transform="translate(0 12.524)" stroke="#000" stroke-width="0.5" fill="url(#linear-gradient)"/>
    <path id="Path_246" data-name="Path 246" d="M1.181,14.621A1.181,1.181,0,0,1,0,13.44V1.188a1.181,1.181,0,0,1,2.362-.013V13.434a1.181,1.181,0,0,1-1.181,1.187Z" transform="translate(33.601 46.085)" stroke="#000" stroke-width="0.5" fill="url(#linear-gradient)"/>
    <path id="Path_247" data-name="Path 247" d="M1.181,14.627A1.181,1.181,0,0,1,0,13.446V1.181a1.181,1.181,0,1,1,2.362,0V13.446a1.181,1.181,0,0,1-1.181,1.181Z" transform="translate(33.61 67.392)" stroke="#000" stroke-width="0.5" fill="url(#linear-gradient)"/>
    <path id="Path_248" data-name="Path 248" d="M13.4,2.362H1.181A1.181,1.181,0,1,1,1.181,0H13.4a1.181,1.181,0,0,1,0,2.362Z" transform="translate(21.379 46.078)" stroke="#000" stroke-width="0.5" fill="url(#linear-gradient)"/>
    <path id="Path_249" data-name="Path 249" d="M13.45,2.362H1.181A1.181,1.181,0,1,1,1.181,0H13.45a1.181,1.181,0,1,1,0,2.362Z" transform="translate(0.033 46.085)" stroke="#000" stroke-width="0.5" fill="url(#linear-gradient)"/>
    <path id="Path_250" data-name="Path 250" d="M7.471,13.06A7.468,7.468,0,0,1,2.112.387,1.181,1.181,0,1,1,3.806,2.034a5.11,5.11,0,1,0,8.783,3.552A5.019,5.019,0,0,0,11.16,2.042,1.181,1.181,0,1,1,12.844.388a7.374,7.374,0,0,1,2.107,5.2,7.487,7.487,0,0,1-7.48,7.468Z" transform="translate(10.526 46.056)" stroke="#000" stroke-width="0.5" fill="url(#linear-gradient)"/>
    <path id="Path_251" data-name="Path 251" d="M5.581,14.961a7.451,7.451,0,0,1-5.2-2.11,1.181,1.181,0,1,1,1.639-1.7,5.107,5.107,0,1,0,.043-7.4,1.181,1.181,0,0,1-2.043-.8V2.942a1.181,1.181,0,0,1,.361-.849,7.48,7.48,0,1,1,5.2,12.867Z" transform="translate(33.586 56.582)" stroke="#000" stroke-width="0.5" fill="url(#linear-gradient)"/>
  </g>
</svg>
