<svg id="singapore" xmlns="http://www.w3.org/2000/svg" width="59.954" height="39.304" viewBox="0 0 59.954 39.304">
  <path id="Path_90" data-name="Path 90" d="M57.2,88.177H2.756A2.759,2.759,0,0,0,0,90.933v33.792a2.759,2.759,0,0,0,2.756,2.756H57.2a2.759,2.759,0,0,0,2.756-2.756V90.933A2.759,2.759,0,0,0,57.2,88.177Zm0,37.547H2.756a1,1,0,0,1-1-1V108.707H51.567a.878.878,0,1,0,0-1.756H1.756V90.933a1,1,0,0,1,1-1H57.2a1,1,0,0,1,1,1v16.018H55.321a.878.878,0,0,0,0,1.756H58.2v16.018a1,1,0,0,1-1,1Z" transform="translate(0 -88.177)" fill="#cfe4ff"/>
  <path id="Path_91" data-name="Path 91" d="M64.793,131.229a4.746,4.746,0,0,1,0-8.954.878.878,0,0,0,0-1.656,6.51,6.51,0,1,0,0,12.265.878.878,0,0,0,0-1.656Zm-6.924-4.477a4.762,4.762,0,0,1,4.007-4.7,6.492,6.492,0,0,0,0,9.39A4.762,4.762,0,0,1,57.869,126.752Z" transform="translate(-49.541 -116.487)" fill="#cfe4ff"/>
  <path id="Path_92" data-name="Path 92" d="M153.23,136.274h-.009a.883.883,0,1,0,.009,0Z" transform="translate(-134.507 -130.642)" fill="#cfe4ff"/>
  <path id="Path_93" data-name="Path 93" d="M171.462,192.387h-.009a.883.883,0,1,0,.009,0Z" transform="translate(-150.604 -180.184)" fill="#cfe4ff"/>
  <path id="Path_94" data-name="Path 94" d="M135,192.387h-.009a.883.883,0,1,0,.009,0Z" transform="translate(-118.409 -180.184)" fill="#cfe4ff"/>
  <path id="Path_95" data-name="Path 95" d="M182.73,157.708h-.009a.883.883,0,1,0,.009,0Z" transform="translate(-160.553 -149.566)" fill="#cfe4ff"/>
  <path id="Path_96" data-name="Path 96" d="M123.72,157.708a.883.883,0,1,0,.009,0Z" transform="translate(-108.461 -149.566)" fill="#cfe4ff"/>
</svg>
