<svg xmlns="http://www.w3.org/2000/svg" width="22.627" height="18.856" viewBox="0 0 22.627 18.856">
  <path id="twitter" d="M22.627,5.206a6.081,6.081,0,0,1-.845,1.211A6.237,6.237,0,0,1,20.257,7.7q.025.2.038.378a13.73,13.73,0,0,1-.971,5.26,13.85,13.85,0,0,1-5.512,6.849,14.492,14.492,0,0,1-8.627,1.576A9.906,9.906,0,0,1,0,19.761a9.66,9.66,0,0,0,6.912-1.993,4.762,4.762,0,0,1-4.389-3.254,2.952,2.952,0,0,0,.984.05,9.152,9.152,0,0,0,1.11-.151,5.2,5.2,0,0,1-3.153-2.447,5.275,5.275,0,0,1-.53-2.321,4.432,4.432,0,0,0,2.094.63A5.409,5.409,0,0,1,.971,6.933a6.189,6.189,0,0,1,.568-3.014A15.854,15.854,0,0,0,6.925,7.955a11.157,11.157,0,0,0,4.225.883,5.647,5.647,0,0,1,.568-3.582,4.88,4.88,0,0,1,2.913-2.119,4.3,4.3,0,0,1,4.314,1.337,7.678,7.678,0,0,0,3-1.11,4.554,4.554,0,0,1-2.069,2.674,13.116,13.116,0,0,0,2.749-.832Z" transform="translate(0 -2.999)" fill="#fff"/>
</svg>
