<svg xmlns="http://www.w3.org/2000/svg" xmlns:xlink="http://www.w3.org/1999/xlink" width="122.293" height="122.581" viewBox="0 0 122.293 122.581">
  <defs>
    <linearGradient id="linear-gradient" x1="0.5" x2="0.5" y2="1" gradientUnits="objectBoundingBox">
      <stop offset="0" stop-color="#e49c79"/>
      <stop offset="1" stop-color="#f0737f"/>
    </linearGradient>
  </defs>
  <g id="ux" transform="translate(-2.306 14.11) rotate(-7)">
    <path id="Path_137" data-name="Path 137" d="M.676,5.409,8.758.123A.8.8,0,0,1,9.219,0a1.621,1.621,0,0,1,1.475,1.537,1.077,1.077,0,0,1-.461.891L3.78,6.669l6.454,4.241a1,1,0,0,1,.461.891,1.589,1.589,0,0,1-1.475,1.505.8.8,0,0,1-.461-.122L.676,7.9A1.54,1.54,0,0,1,0,6.669a1.592,1.592,0,0,1,.676-1.26Zm0,0" transform="translate(11.257 43.458)" stroke="#101010" stroke-width="1" fill="url(#linear-gradient)"/>
    <path id="Path_138" data-name="Path 138" d="M13.614,1.167a.9.9,0,0,1-.123.492L2.212,24.155a1.113,1.113,0,0,1-1.013.583A1.188,1.188,0,0,1,0,23.6a1.231,1.231,0,0,1,.092-.461L11.4.553A.936.936,0,0,1,12.323,0,1.254,1.254,0,0,1,13.614,1.167Zm0,0" transform="translate(25.423 34.977)" stroke="#101010" stroke-width="1" fill="url(#linear-gradient)"/>
    <path id="Path_139" data-name="Path 139" d="M9.988,7.9,1.905,13.183a.7.7,0,0,1-.43.123A1.566,1.566,0,0,1,0,11.8a1.051,1.051,0,0,1,.43-.891L6.915,6.668.43,2.428A1.139,1.139,0,0,1,0,1.537,1.6,1.6,0,0,1,1.475,0a.7.7,0,0,1,.43.123L9.988,5.409a1.594,1.594,0,0,1,.676,1.261A1.461,1.461,0,0,1,9.988,7.9Zm0,0" transform="translate(42.509 43.459)" stroke="#101010" stroke-width="1" fill="url(#linear-gradient)"/>
    <path id="Path_140" data-name="Path 140" d="M64.3,42V6.967A6.975,6.975,0,0,0,57.337,0H6.967A6.974,6.974,0,0,0,0,6.967V42a6.974,6.974,0,0,0,6.967,6.967h50.37A6.975,6.975,0,0,0,64.3,42ZM3.284,42V6.967A3.687,3.687,0,0,1,6.967,3.284h50.37A3.687,3.687,0,0,1,61.02,6.967V42a3.687,3.687,0,0,1-3.683,3.683H6.967A3.687,3.687,0,0,1,3.284,42Zm0,0" transform="translate(0 23.494)" stroke="#101010" stroke-width="1" fill="url(#linear-gradient)"/>
    <path id="Path_141" data-name="Path 141" d="M8.548,0A8.557,8.557,0,0,0,0,8.547q0,.183.008.364C0,8.965,0,9.018,0,9.072a1.661,1.661,0,0,0,.05.4A8.548,8.548,0,1,0,8.548,0Zm0,3.284A5.273,5.273,0,0,1,13.692,7.43H3.4A5.272,5.272,0,0,1,8.548,3.284Zm0,10.527a5.272,5.272,0,0,1-4.8-3.1h9.593a5.27,5.27,0,0,1-4.8,3.1Zm0,0" transform="translate(79.694 80.582)" stroke="#101010" stroke-width="1" fill="url(#linear-gradient)"/>
    <path id="Path_142" data-name="Path 142" d="M79.15,83.421h-.865a18.6,18.6,0,0,0-1.1-2.635l.622-.622a4.584,4.584,0,0,0,0-6.478l-1.6-1.6a4.582,4.582,0,0,0-5.841-.532V7a7.006,7.006,0,0,0-7-7H7A7.006,7.006,0,0,0,0,7v11.57a1.642,1.642,0,1,0,3.284,0V14.62h63.8v57.2q-.3-.113-.609-.214v-.866a4.585,4.585,0,0,0-4.58-4.581H59.633a4.585,4.585,0,0,0-4.58,4.581v.771a18.511,18.511,0,0,0-2.733,1.1L51.8,72.09a4.58,4.58,0,0,0-6.478,0l-1.6,1.6a4.581,4.581,0,0,0,0,6.478l.429.429a18.535,18.535,0,0,0-1.206,2.827h-.573A4.585,4.585,0,0,0,37.794,88v.011H3.284V77.392a1.642,1.642,0,1,0-3.284,0V95.464a7,7,0,0,0,7,7H42.521a4.549,4.549,0,0,0,1.2,2.11l1.6,1.6a4.58,4.58,0,0,0,6.478,0l.328-.329a18.587,18.587,0,0,0,2.928,1.2v.478a4.585,4.585,0,0,0,4.58,4.581h2.258a4.585,4.585,0,0,0,4.58-4.581v-.572a18.583,18.583,0,0,0,2.827-1.206l.429.429a4.58,4.58,0,0,0,6.478,0l1.6-1.6a4.58,4.58,0,0,0,0-6.478l-.524-.524a18.465,18.465,0,0,0,1.1-2.732h.772a4.585,4.585,0,0,0,4.581-4.58V88a4.585,4.585,0,0,0-4.581-4.58ZM3.284,11.336V7A3.717,3.717,0,0,1,7,3.284H63.366A3.718,3.718,0,0,1,67.08,7v4.339Zm0,84.128V91.3H37.913a4.587,4.587,0,0,0,4.461,3.542h.479a18.505,18.505,0,0,0,1.2,2.928l-.329.328a4.6,4.6,0,0,0-.806,1.083H7a3.717,3.717,0,0,1-3.713-3.713Zm77.162-5.206a1.3,1.3,0,0,1-1.3,1.3H77.916a2.665,2.665,0,0,0-2.559,1.922,15.267,15.267,0,0,1-1.2,2.976,2.676,2.676,0,0,0,.476,3.122l.843.843a1.3,1.3,0,0,1,0,1.834l-1.6,1.6a1.3,1.3,0,0,1-1.834,0l-.758-.758a2.657,2.657,0,0,0-3.179-.444,15.208,15.208,0,0,1-3.046,1.3,2.681,2.681,0,0,0-1.88,2.556v1.016a1.3,1.3,0,0,1-1.3,1.3H59.633a1.3,1.3,0,0,1-1.3-1.3v-.936a2.663,2.663,0,0,0-1.918-2.561,15.3,15.3,0,0,1-3.146-1.288,2.622,2.622,0,0,0-1.257-.321,2.69,2.69,0,0,0-1.888.783l-.653.652a1.3,1.3,0,0,1-1.833,0l-1.6-1.6a1.27,1.27,0,0,1-.379-.916,1.532,1.532,0,0,1,.009-.167,1.261,1.261,0,0,0,.022-.128,1.277,1.277,0,0,1,.347-.622l.653-.653a2.667,2.667,0,0,0,.462-3.146,15.329,15.329,0,0,1-1.287-3.145,2.665,2.665,0,0,0-2.562-1.919h-.936a1.3,1.3,0,0,1-1.3-1.3V88a1.3,1.3,0,0,1,1.3-1.3h1.015a2.682,2.682,0,0,0,2.557-1.88,15.224,15.224,0,0,1,1.3-3.045A2.668,2.668,0,0,0,46.8,78.6l-.758-.757a1.3,1.3,0,0,1,0-1.833l1.6-1.6a1.3,1.3,0,0,1,1.833,0l.844.843a2.687,2.687,0,0,0,1.887.783,2.608,2.608,0,0,0,1.235-.307,15.291,15.291,0,0,1,2.975-1.2,2.666,2.666,0,0,0,1.923-2.559V70.742a1.3,1.3,0,0,1,1.3-1.3h2.258a1.3,1.3,0,0,1,1.3,1.3v1.319a2.674,2.674,0,0,0,1.877,2.546A15.224,15.224,0,0,1,67.9,75.79l.084.045a2.657,2.657,0,0,0,3.119-.476l.946-.946a1.3,1.3,0,0,1,1.834,0l1.6,1.6a1.3,1.3,0,0,1,0,1.833l-.946.947a2.673,2.673,0,0,0-.458,3.154,15.272,15.272,0,0,1,1.209,2.885,2.674,2.674,0,0,0,2.546,1.878H79.15a1.3,1.3,0,0,1,1.3,1.3Zm0,0" transform="translate(27.48 0)" stroke="#101010" stroke-width="1" fill="url(#linear-gradient)"/>
  </g>
</svg>
