<svg xmlns="http://www.w3.org/2000/svg" xmlns:xlink="http://www.w3.org/1999/xlink" width="95.06" height="130.99" viewBox="0 0 95.06 130.99">
  <defs>
    <linearGradient id="linear-gradient" x1="0.5" x2="0.5" y2="1" gradientUnits="objectBoundingBox">
      <stop offset="0" stop-color="#e49c79"/>
      <stop offset="1" stop-color="#f0737f"/>
    </linearGradient>
  </defs>
  <g id="wireframe" transform="matrix(0.978, 0.208, -0.208, 0.978, 25.432, 1.186)">
    <path id="Path_126" data-name="Path 126" d="M60.253,116.618a9.729,9.729,0,0,0,9.718-9.718V9.718A9.729,9.729,0,0,0,60.253,0H9.718A9.729,9.729,0,0,0,0,9.718V106.9a9.729,9.729,0,0,0,9.718,9.718ZM3.887,19.436h62.2V97.182H3.887ZM9.718,3.887H60.253a5.831,5.831,0,0,1,5.83,5.831v5.83H3.887V9.718A5.831,5.831,0,0,1,9.718,3.887ZM3.887,106.9v-5.83h62.2v5.83a5.831,5.831,0,0,1-5.83,5.831H9.718A5.831,5.831,0,0,1,3.887,106.9Zm0,0" transform="translate(0 0)" stroke="#101010" stroke-width="2" fill="url(#linear-gradient)"/>
    <path id="Path_127" data-name="Path 127" d="M1.943,3.887H3.887A1.944,1.944,0,1,0,3.887,0H1.943a1.944,1.944,0,0,0,0,3.887Zm0,0" transform="translate(25.267 7.774)" stroke="#101010" stroke-width="2" fill="url(#linear-gradient)"/>
    <path id="Path_128" data-name="Path 128" d="M1.943,3.887H7.774A1.944,1.944,0,0,0,7.774,0H1.943a1.944,1.944,0,0,0,0,3.887Zm0,0" transform="translate(34.986 7.774)" stroke="#101010" stroke-width="2" fill="url(#linear-gradient)"/>
    <path id="Path_129" data-name="Path 129" d="M1.943,3.887h15.55a1.944,1.944,0,0,0,0-3.887H1.943a1.944,1.944,0,0,0,0,3.887Zm0,0" transform="translate(25.267 104.956)" stroke="#101010" stroke-width="2" fill="url(#linear-gradient)"/>
    <path id="Path_130" data-name="Path 130" d="M3.887,0H1.944a1.944,1.944,0,1,0,0,3.887H3.887A1.944,1.944,0,1,0,3.887,0Zm0,0" transform="translate(7.774 89.408)" stroke="#101010" stroke-width="2" fill="url(#linear-gradient)"/>
    <path id="Path_131" data-name="Path 131" d="M13.606,0H1.943a1.944,1.944,0,0,0,0,3.887H13.606a1.944,1.944,0,0,0,0-3.887Zm0,0" transform="translate(17.493 89.408)" stroke="#101010" stroke-width="2" fill="url(#linear-gradient)"/>
    <path id="Path_132" data-name="Path 132" d="M3.887,0H1.944a1.944,1.944,0,1,0,0,3.887H3.887A1.944,1.944,0,1,0,3.887,0Zm0,0" transform="translate(36.929 89.408)" stroke="#101010" stroke-width="2" fill="url(#linear-gradient)"/>
    <path id="Path_133" data-name="Path 133" d="M13.606,0H1.943a1.944,1.944,0,0,0,0,3.887H13.606a1.944,1.944,0,0,0,0-3.887Zm0,0" transform="translate(46.647 89.408)" stroke="#101010" stroke-width="2" fill="url(#linear-gradient)"/>
    <path id="Path_134" data-name="Path 134" d="M50.535,0H3.887A3.887,3.887,0,0,0,0,3.887V31.1a3.887,3.887,0,0,0,3.887,3.887H50.535A3.887,3.887,0,0,0,54.422,31.1V3.887A3.887,3.887,0,0,0,50.535,0ZM3.887,5.221,23.539,17.493,3.887,29.765ZM9.095,3.887H45.328L27.211,15.2Zm18.117,15.9L45.328,31.1H9.095Zm3.671-2.294L50.535,5.221V29.768Zm0,0" transform="translate(7.774 23.323)" stroke="#101010" stroke-width="2" fill="url(#linear-gradient)"/>
    <path id="Path_135" data-name="Path 135" d="M24.158,1.166a.645.645,0,0,0-.07-.051A3.861,3.861,0,0,0,21.38,0H3.887A3.887,3.887,0,0,0,0,3.887V19.436a3.887,3.887,0,0,0,3.887,3.887H21.38a3.887,3.887,0,0,0,3.887-3.887V3.887A3.867,3.867,0,0,0,24.2,1.222C24.179,1.2,24.175,1.178,24.158,1.166ZM18.282,3.887,3.887,17.02V3.887ZM7.009,19.436,21.38,6.321V19.436Zm0,0" transform="translate(7.774 62.196)" stroke="#101010" stroke-width="2" fill="url(#linear-gradient)"/>
    <path id="Path_136" data-name="Path 136" d="M24.158,1.166a.648.648,0,0,0-.07-.051A3.861,3.861,0,0,0,21.38,0H3.887A3.887,3.887,0,0,0,0,3.887V19.436a3.887,3.887,0,0,0,3.887,3.887H21.38a3.887,3.887,0,0,0,3.887-3.887V3.887A3.867,3.867,0,0,0,24.2,1.222C24.179,1.2,24.175,1.178,24.158,1.166ZM18.282,3.887,3.887,17.02V3.887ZM7.009,19.436,21.38,6.321V19.436Zm0,0" transform="translate(36.929 62.196)" stroke="#101010" stroke-width="2" fill="url(#linear-gradient)"/>
  </g>
</svg>
